<mxfile host="65bd71144e">
    <diagram id="qhy5X7LA2Rcb3pHL1lFX" name="Page-2">
        <mxGraphModel dx="3550" dy="2427" grid="1" gridSize="10" guides="1" tooltips="1" connect="1" arrows="1" fold="1" page="1" pageScale="2" pageWidth="1169" pageHeight="827" background="none" math="0" shadow="0">
            <root>
                <mxCell id="0"/>
                <mxCell id="1" parent="0"/>
                <mxCell id="nrEiqh1vNegxxQYrQlBO-148" value="Credential" style="shape=table;startSize=30;container=1;collapsible=1;childLayout=tableLayout;fixedRows=1;rowLines=0;fontStyle=1;align=center;resizeLast=1;fontFamily=Helvetica;fontSize=11;rounded=1;" parent="1" vertex="1">
                    <mxGeometry x="18" y="-77" width="150" height="90" as="geometry"/>
                </mxCell>
                <mxCell id="nrEiqh1vNegxxQYrQlBO-149" style="shape=tableRow;horizontal=0;startSize=0;swimlaneHead=0;swimlaneBody=0;fillColor=none;collapsible=0;dropTarget=0;points=[[0,0.5],[1,0.5]];portConstraint=eastwest;top=0;left=0;right=0;bottom=1;fontFamily=Helvetica;fontSize=11;rounded=1;" parent="nrEiqh1vNegxxQYrQlBO-148" vertex="1">
                    <mxGeometry y="30" width="150" height="30" as="geometry"/>
                </mxCell>
                <mxCell id="nrEiqh1vNegxxQYrQlBO-150" value="PK" style="shape=partialRectangle;connectable=0;fillColor=none;top=0;left=0;bottom=0;right=0;fontStyle=1;overflow=hidden;fontFamily=Helvetica;fontSize=11;rounded=1;" parent="nrEiqh1vNegxxQYrQlBO-149" vertex="1">
                    <mxGeometry width="30" height="30" as="geometry">
                        <mxRectangle width="30" height="30" as="alternateBounds"/>
                    </mxGeometry>
                </mxCell>
                <mxCell id="nrEiqh1vNegxxQYrQlBO-151" value="credential_email" style="shape=partialRectangle;connectable=0;fillColor=none;top=0;left=0;bottom=0;right=0;align=left;spacingLeft=6;fontStyle=5;overflow=hidden;fontFamily=Helvetica;fontSize=11;rounded=1;" parent="nrEiqh1vNegxxQYrQlBO-149" vertex="1">
                    <mxGeometry x="30" width="120" height="30" as="geometry">
                        <mxRectangle width="120" height="30" as="alternateBounds"/>
                    </mxGeometry>
                </mxCell>
                <mxCell id="nrEiqh1vNegxxQYrQlBO-175" style="shape=tableRow;horizontal=0;startSize=0;swimlaneHead=0;swimlaneBody=0;fillColor=none;collapsible=0;dropTarget=0;points=[[0,0.5],[1,0.5]];portConstraint=eastwest;top=0;left=0;right=0;bottom=0;fontFamily=Helvetica;fontSize=11;rounded=1;" parent="nrEiqh1vNegxxQYrQlBO-148" vertex="1">
                    <mxGeometry y="60" width="150" height="30" as="geometry"/>
                </mxCell>
                <mxCell id="nrEiqh1vNegxxQYrQlBO-176" style="shape=partialRectangle;connectable=0;fillColor=none;top=0;left=0;bottom=0;right=0;editable=1;overflow=hidden;fontFamily=Helvetica;fontSize=11;rounded=1;" parent="nrEiqh1vNegxxQYrQlBO-175" vertex="1">
                    <mxGeometry width="30" height="30" as="geometry">
                        <mxRectangle width="30" height="30" as="alternateBounds"/>
                    </mxGeometry>
                </mxCell>
                <mxCell id="nrEiqh1vNegxxQYrQlBO-177" value="credential_password" style="shape=partialRectangle;connectable=0;fillColor=none;top=0;left=0;bottom=0;right=0;align=left;spacingLeft=6;overflow=hidden;fontFamily=Helvetica;fontSize=11;rounded=1;" parent="nrEiqh1vNegxxQYrQlBO-175" vertex="1">
                    <mxGeometry x="30" width="120" height="30" as="geometry">
                        <mxRectangle width="120" height="30" as="alternateBounds"/>
                    </mxGeometry>
                </mxCell>
                <mxCell id="nrEiqh1vNegxxQYrQlBO-167" value="Counrty" style="shape=table;startSize=30;container=1;collapsible=1;childLayout=tableLayout;fixedRows=1;rowLines=0;fontStyle=1;align=center;resizeLast=1;fontFamily=Helvetica;fontSize=11;rounded=1;" parent="1" vertex="1">
                    <mxGeometry x="-900" y="120" width="150" height="90" as="geometry"/>
                </mxCell>
                <mxCell id="nrEiqh1vNegxxQYrQlBO-168" style="shape=tableRow;horizontal=0;startSize=0;swimlaneHead=0;swimlaneBody=0;fillColor=none;collapsible=0;dropTarget=0;points=[[0,0.5],[1,0.5]];portConstraint=eastwest;top=0;left=0;right=0;bottom=1;fontFamily=Helvetica;fontSize=11;rounded=1;" parent="nrEiqh1vNegxxQYrQlBO-167" vertex="1">
                    <mxGeometry y="30" width="150" height="30" as="geometry"/>
                </mxCell>
                <mxCell id="nrEiqh1vNegxxQYrQlBO-169" value="PK" style="shape=partialRectangle;connectable=0;fillColor=none;top=0;left=0;bottom=0;right=0;fontStyle=1;overflow=hidden;fontFamily=Helvetica;fontSize=11;rounded=1;" parent="nrEiqh1vNegxxQYrQlBO-168" vertex="1">
                    <mxGeometry width="30" height="30" as="geometry">
                        <mxRectangle width="30" height="30" as="alternateBounds"/>
                    </mxGeometry>
                </mxCell>
                <mxCell id="nrEiqh1vNegxxQYrQlBO-170" value="country_id" style="shape=partialRectangle;connectable=0;fillColor=none;top=0;left=0;bottom=0;right=0;align=left;spacingLeft=6;fontStyle=5;overflow=hidden;fontFamily=Helvetica;fontSize=11;rounded=1;" parent="nrEiqh1vNegxxQYrQlBO-168" vertex="1">
                    <mxGeometry x="30" width="120" height="30" as="geometry">
                        <mxRectangle width="120" height="30" as="alternateBounds"/>
                    </mxGeometry>
                </mxCell>
                <mxCell id="nrEiqh1vNegxxQYrQlBO-171" style="shape=tableRow;horizontal=0;startSize=0;swimlaneHead=0;swimlaneBody=0;fillColor=none;collapsible=0;dropTarget=0;points=[[0,0.5],[1,0.5]];portConstraint=eastwest;top=0;left=0;right=0;bottom=0;fontFamily=Helvetica;fontSize=11;rounded=1;" parent="nrEiqh1vNegxxQYrQlBO-167" vertex="1">
                    <mxGeometry y="60" width="150" height="30" as="geometry"/>
                </mxCell>
                <mxCell id="nrEiqh1vNegxxQYrQlBO-172" style="shape=partialRectangle;connectable=0;fillColor=none;top=0;left=0;bottom=0;right=0;editable=1;overflow=hidden;fontFamily=Helvetica;fontSize=11;rounded=1;" parent="nrEiqh1vNegxxQYrQlBO-171" vertex="1">
                    <mxGeometry width="30" height="30" as="geometry">
                        <mxRectangle width="30" height="30" as="alternateBounds"/>
                    </mxGeometry>
                </mxCell>
                <mxCell id="nrEiqh1vNegxxQYrQlBO-173" value="country_name" style="shape=partialRectangle;connectable=0;fillColor=none;top=0;left=0;bottom=0;right=0;align=left;spacingLeft=6;overflow=hidden;fontFamily=Helvetica;fontSize=11;rounded=1;" parent="nrEiqh1vNegxxQYrQlBO-171" vertex="1">
                    <mxGeometry x="30" width="120" height="30" as="geometry">
                        <mxRectangle width="120" height="30" as="alternateBounds"/>
                    </mxGeometry>
                </mxCell>
                <mxCell id="nrEiqh1vNegxxQYrQlBO-174" value="" style="edgeStyle=orthogonalEdgeStyle;fontSize=11;html=1;endArrow=ERmandOne;startArrow=ERmandOne;rounded=1;fontFamily=Helvetica;jumpStyle=arc;" parent="1" source="nrEiqh1vNegxxQYrQlBO-168" target="nrEiqh1vNegxxQYrQlBO-479" edge="1">
                    <mxGeometry width="100" height="100" relative="1" as="geometry">
                        <mxPoint x="-154" y="-239" as="sourcePoint"/>
                        <mxPoint x="-652.9999999999995" y="311" as="targetPoint"/>
                    </mxGeometry>
                </mxCell>
                <mxCell id="nrEiqh1vNegxxQYrQlBO-191" value="Social" style="shape=table;startSize=30;container=1;collapsible=1;childLayout=tableLayout;fixedRows=1;rowLines=0;fontStyle=1;align=center;resizeLast=1;fontFamily=Helvetica;fontSize=11;rounded=1;" parent="1" vertex="1">
                    <mxGeometry x="18" y="40" width="150" height="120" as="geometry"/>
                </mxCell>
                <mxCell id="nrEiqh1vNegxxQYrQlBO-192" style="shape=tableRow;horizontal=0;startSize=0;swimlaneHead=0;swimlaneBody=0;fillColor=none;collapsible=0;dropTarget=0;points=[[0,0.5],[1,0.5]];portConstraint=eastwest;top=0;left=0;right=0;bottom=1;fontFamily=Helvetica;fontSize=11;rounded=1;" parent="nrEiqh1vNegxxQYrQlBO-191" vertex="1">
                    <mxGeometry y="30" width="150" height="30" as="geometry"/>
                </mxCell>
                <mxCell id="nrEiqh1vNegxxQYrQlBO-193" value="PK" style="shape=partialRectangle;connectable=0;fillColor=none;top=0;left=0;bottom=0;right=0;fontStyle=1;overflow=hidden;fontFamily=Helvetica;fontSize=11;rounded=1;" parent="nrEiqh1vNegxxQYrQlBO-192" vertex="1">
                    <mxGeometry width="30" height="30" as="geometry">
                        <mxRectangle width="30" height="30" as="alternateBounds"/>
                    </mxGeometry>
                </mxCell>
                <mxCell id="nrEiqh1vNegxxQYrQlBO-194" value="social_id" style="shape=partialRectangle;connectable=0;fillColor=none;top=0;left=0;bottom=0;right=0;align=left;spacingLeft=6;fontStyle=5;overflow=hidden;fontFamily=Helvetica;fontSize=11;rounded=1;" parent="nrEiqh1vNegxxQYrQlBO-192" vertex="1">
                    <mxGeometry x="30" width="120" height="30" as="geometry">
                        <mxRectangle width="120" height="30" as="alternateBounds"/>
                    </mxGeometry>
                </mxCell>
                <mxCell id="nrEiqh1vNegxxQYrQlBO-195" style="shape=tableRow;horizontal=0;startSize=0;swimlaneHead=0;swimlaneBody=0;fillColor=none;collapsible=0;dropTarget=0;points=[[0,0.5],[1,0.5]];portConstraint=eastwest;top=0;left=0;right=0;bottom=0;fontFamily=Helvetica;fontSize=11;rounded=1;" parent="nrEiqh1vNegxxQYrQlBO-191" vertex="1">
                    <mxGeometry y="60" width="150" height="30" as="geometry"/>
                </mxCell>
                <mxCell id="nrEiqh1vNegxxQYrQlBO-196" style="shape=partialRectangle;connectable=0;fillColor=none;top=0;left=0;bottom=0;right=0;editable=1;overflow=hidden;fontFamily=Helvetica;fontSize=11;rounded=1;" parent="nrEiqh1vNegxxQYrQlBO-195" vertex="1">
                    <mxGeometry width="30" height="30" as="geometry">
                        <mxRectangle width="30" height="30" as="alternateBounds"/>
                    </mxGeometry>
                </mxCell>
                <mxCell id="nrEiqh1vNegxxQYrQlBO-197" value="social_type" style="shape=partialRectangle;connectable=0;fillColor=none;top=0;left=0;bottom=0;right=0;align=left;spacingLeft=6;overflow=hidden;fontFamily=Helvetica;fontSize=11;rounded=1;" parent="nrEiqh1vNegxxQYrQlBO-195" vertex="1">
                    <mxGeometry x="30" width="120" height="30" as="geometry">
                        <mxRectangle width="120" height="30" as="alternateBounds"/>
                    </mxGeometry>
                </mxCell>
                <mxCell id="nrEiqh1vNegxxQYrQlBO-451" style="shape=tableRow;horizontal=0;startSize=0;swimlaneHead=0;swimlaneBody=0;fillColor=none;collapsible=0;dropTarget=0;points=[[0,0.5],[1,0.5]];portConstraint=eastwest;top=0;left=0;right=0;bottom=0;fontFamily=Helvetica;fontSize=11;rounded=1;" parent="nrEiqh1vNegxxQYrQlBO-191" vertex="1">
                    <mxGeometry y="90" width="150" height="30" as="geometry"/>
                </mxCell>
                <mxCell id="nrEiqh1vNegxxQYrQlBO-452" style="shape=partialRectangle;connectable=0;fillColor=none;top=0;left=0;bottom=0;right=0;editable=1;overflow=hidden;fontFamily=Helvetica;fontSize=11;rounded=1;" parent="nrEiqh1vNegxxQYrQlBO-451" vertex="1">
                    <mxGeometry width="30" height="30" as="geometry">
                        <mxRectangle width="30" height="30" as="alternateBounds"/>
                    </mxGeometry>
                </mxCell>
                <mxCell id="nrEiqh1vNegxxQYrQlBO-453" value="social_username" style="shape=partialRectangle;connectable=0;fillColor=none;top=0;left=0;bottom=0;right=0;align=left;spacingLeft=6;overflow=hidden;fontFamily=Helvetica;fontSize=11;rounded=1;" parent="nrEiqh1vNegxxQYrQlBO-451" vertex="1">
                    <mxGeometry x="30" width="120" height="30" as="geometry">
                        <mxRectangle width="120" height="30" as="alternateBounds"/>
                    </mxGeometry>
                </mxCell>
                <mxCell id="nrEiqh1vNegxxQYrQlBO-198" value="" style="edgeStyle=orthogonalEdgeStyle;fontSize=11;html=1;endArrow=ERzeroToMany;startArrow=ERmandOne;rounded=1;fontFamily=Helvetica;jumpStyle=arc;endFill=0;" parent="1" source="nrEiqh1vNegxxQYrQlBO-142" target="nrEiqh1vNegxxQYrQlBO-192" edge="1">
                    <mxGeometry width="100" height="100" relative="1" as="geometry">
                        <mxPoint x="-147" y="196" as="sourcePoint"/>
                        <mxPoint x="-57" y="16" as="targetPoint"/>
                    </mxGeometry>
                </mxCell>
                <mxCell id="nrEiqh1vNegxxQYrQlBO-199" value="Review" style="shape=table;startSize=30;container=1;collapsible=1;childLayout=tableLayout;fixedRows=1;rowLines=0;fontStyle=1;align=center;resizeLast=1;fontFamily=Helvetica;fontSize=11;rounded=1;" parent="1" vertex="1">
                    <mxGeometry x="-674" y="104" width="150" height="270" as="geometry">
                        <mxRectangle x="226" y="519" width="80" height="30" as="alternateBounds"/>
                    </mxGeometry>
                </mxCell>
                <mxCell id="nrEiqh1vNegxxQYrQlBO-200" style="shape=tableRow;horizontal=0;startSize=0;swimlaneHead=0;swimlaneBody=0;fillColor=none;collapsible=0;dropTarget=0;points=[[0,0.5],[1,0.5]];portConstraint=eastwest;top=0;left=0;right=0;bottom=1;fontFamily=Helvetica;fontSize=11;rounded=1;" parent="nrEiqh1vNegxxQYrQlBO-199" vertex="1">
                    <mxGeometry y="30" width="150" height="30" as="geometry"/>
                </mxCell>
                <mxCell id="nrEiqh1vNegxxQYrQlBO-201" value="PK" style="shape=partialRectangle;connectable=0;fillColor=none;top=0;left=0;bottom=0;right=0;fontStyle=1;overflow=hidden;fontFamily=Helvetica;fontSize=11;rounded=1;" parent="nrEiqh1vNegxxQYrQlBO-200" vertex="1">
                    <mxGeometry width="30" height="30" as="geometry">
                        <mxRectangle width="30" height="30" as="alternateBounds"/>
                    </mxGeometry>
                </mxCell>
                <mxCell id="nrEiqh1vNegxxQYrQlBO-202" value="review_id" style="shape=partialRectangle;connectable=0;fillColor=none;top=0;left=0;bottom=0;right=0;align=left;spacingLeft=6;fontStyle=5;overflow=hidden;fontFamily=Helvetica;fontSize=11;rounded=1;" parent="nrEiqh1vNegxxQYrQlBO-200" vertex="1">
                    <mxGeometry x="30" width="120" height="30" as="geometry">
                        <mxRectangle width="120" height="30" as="alternateBounds"/>
                    </mxGeometry>
                </mxCell>
                <mxCell id="nrEiqh1vNegxxQYrQlBO-203" style="shape=tableRow;horizontal=0;startSize=0;swimlaneHead=0;swimlaneBody=0;fillColor=none;collapsible=0;dropTarget=0;points=[[0,0.5],[1,0.5]];portConstraint=eastwest;top=0;left=0;right=0;bottom=0;fontFamily=Helvetica;fontSize=11;rounded=1;" parent="nrEiqh1vNegxxQYrQlBO-199" vertex="1">
                    <mxGeometry y="60" width="150" height="30" as="geometry"/>
                </mxCell>
                <mxCell id="nrEiqh1vNegxxQYrQlBO-204" value="FK" style="shape=partialRectangle;connectable=0;fillColor=none;top=0;left=0;bottom=0;right=0;editable=1;overflow=hidden;fontFamily=Helvetica;fontSize=11;rounded=1;" parent="nrEiqh1vNegxxQYrQlBO-203" vertex="1">
                    <mxGeometry width="30" height="30" as="geometry">
                        <mxRectangle width="30" height="30" as="alternateBounds"/>
                    </mxGeometry>
                </mxCell>
                <mxCell id="nrEiqh1vNegxxQYrQlBO-205" value="booking_id" style="shape=partialRectangle;connectable=0;fillColor=none;top=0;left=0;bottom=0;right=0;align=left;spacingLeft=6;overflow=hidden;fontFamily=Helvetica;fontSize=11;rounded=1;" parent="nrEiqh1vNegxxQYrQlBO-203" vertex="1">
                    <mxGeometry x="30" width="120" height="30" as="geometry">
                        <mxRectangle width="120" height="30" as="alternateBounds"/>
                    </mxGeometry>
                </mxCell>
                <mxCell id="nrEiqh1vNegxxQYrQlBO-209" style="shape=tableRow;horizontal=0;startSize=0;swimlaneHead=0;swimlaneBody=0;fillColor=none;collapsible=0;dropTarget=0;points=[[0,0.5],[1,0.5]];portConstraint=eastwest;top=0;left=0;right=0;bottom=0;fontFamily=Helvetica;fontSize=11;rounded=1;" parent="nrEiqh1vNegxxQYrQlBO-199" vertex="1">
                    <mxGeometry y="90" width="150" height="30" as="geometry"/>
                </mxCell>
                <mxCell id="nrEiqh1vNegxxQYrQlBO-210" value="FK" style="shape=partialRectangle;connectable=0;fillColor=none;top=0;left=0;bottom=0;right=0;editable=1;overflow=hidden;fontFamily=Helvetica;fontSize=11;rounded=1;" parent="nrEiqh1vNegxxQYrQlBO-209" vertex="1">
                    <mxGeometry width="30" height="30" as="geometry">
                        <mxRectangle width="30" height="30" as="alternateBounds"/>
                    </mxGeometry>
                </mxCell>
                <mxCell id="nrEiqh1vNegxxQYrQlBO-211" value="review_sender" style="shape=partialRectangle;connectable=0;fillColor=none;top=0;left=0;bottom=0;right=0;align=left;spacingLeft=6;overflow=hidden;fontFamily=Helvetica;fontSize=11;rounded=1;" parent="nrEiqh1vNegxxQYrQlBO-209" vertex="1">
                    <mxGeometry x="30" width="120" height="30" as="geometry">
                        <mxRectangle width="120" height="30" as="alternateBounds"/>
                    </mxGeometry>
                </mxCell>
                <mxCell id="nrEiqh1vNegxxQYrQlBO-206" style="shape=tableRow;horizontal=0;startSize=0;swimlaneHead=0;swimlaneBody=0;fillColor=none;collapsible=0;dropTarget=0;points=[[0,0.5],[1,0.5]];portConstraint=eastwest;top=0;left=0;right=0;bottom=0;fontFamily=Helvetica;fontSize=11;rounded=1;" parent="nrEiqh1vNegxxQYrQlBO-199" vertex="1">
                    <mxGeometry y="120" width="150" height="30" as="geometry"/>
                </mxCell>
                <mxCell id="nrEiqh1vNegxxQYrQlBO-207" value="FK" style="shape=partialRectangle;connectable=0;fillColor=none;top=0;left=0;bottom=0;right=0;editable=1;overflow=hidden;fontFamily=Helvetica;fontSize=11;rounded=1;" parent="nrEiqh1vNegxxQYrQlBO-206" vertex="1">
                    <mxGeometry width="30" height="30" as="geometry">
                        <mxRectangle width="30" height="30" as="alternateBounds"/>
                    </mxGeometry>
                </mxCell>
                <mxCell id="nrEiqh1vNegxxQYrQlBO-208" value="review_reciever" style="shape=partialRectangle;connectable=0;fillColor=none;top=0;left=0;bottom=0;right=0;align=left;spacingLeft=6;overflow=hidden;fontFamily=Helvetica;fontSize=11;rounded=1;" parent="nrEiqh1vNegxxQYrQlBO-206" vertex="1">
                    <mxGeometry x="30" width="120" height="30" as="geometry">
                        <mxRectangle width="120" height="30" as="alternateBounds"/>
                    </mxGeometry>
                </mxCell>
                <mxCell id="bjA27ZTvpTViUHQnJj1i-5" style="shape=tableRow;horizontal=0;startSize=0;swimlaneHead=0;swimlaneBody=0;fillColor=none;collapsible=0;dropTarget=0;points=[[0,0.5],[1,0.5]];portConstraint=eastwest;top=0;left=0;right=0;bottom=0;fontFamily=Helvetica;fontSize=11;rounded=1;" parent="nrEiqh1vNegxxQYrQlBO-199" vertex="1">
                    <mxGeometry y="150" width="150" height="30" as="geometry"/>
                </mxCell>
                <mxCell id="bjA27ZTvpTViUHQnJj1i-6" value="FK" style="shape=partialRectangle;connectable=0;fillColor=none;top=0;left=0;bottom=0;right=0;editable=1;overflow=hidden;fontFamily=Helvetica;fontSize=11;rounded=1;" parent="bjA27ZTvpTViUHQnJj1i-5" vertex="1">
                    <mxGeometry width="30" height="30" as="geometry">
                        <mxRectangle width="30" height="30" as="alternateBounds"/>
                    </mxGeometry>
                </mxCell>
                <mxCell id="bjA27ZTvpTViUHQnJj1i-7" value="parent_review_id" style="shape=partialRectangle;connectable=0;fillColor=none;top=0;left=0;bottom=0;right=0;align=left;spacingLeft=6;overflow=hidden;fontFamily=Helvetica;fontSize=11;rounded=1;" parent="bjA27ZTvpTViUHQnJj1i-5" vertex="1">
                    <mxGeometry x="30" width="120" height="30" as="geometry">
                        <mxRectangle width="120" height="30" as="alternateBounds"/>
                    </mxGeometry>
                </mxCell>
                <mxCell id="nrEiqh1vNegxxQYrQlBO-215" style="shape=tableRow;horizontal=0;startSize=0;swimlaneHead=0;swimlaneBody=0;fillColor=none;collapsible=0;dropTarget=0;points=[[0,0.5],[1,0.5]];portConstraint=eastwest;top=0;left=0;right=0;bottom=0;fontFamily=Helvetica;fontSize=11;rounded=1;" parent="nrEiqh1vNegxxQYrQlBO-199" vertex="1">
                    <mxGeometry y="180" width="150" height="30" as="geometry"/>
                </mxCell>
                <mxCell id="nrEiqh1vNegxxQYrQlBO-216" style="shape=partialRectangle;connectable=0;fillColor=none;top=0;left=0;bottom=0;right=0;editable=1;overflow=hidden;fontFamily=Helvetica;fontSize=11;rounded=1;" parent="nrEiqh1vNegxxQYrQlBO-215" vertex="1">
                    <mxGeometry width="30" height="30" as="geometry">
                        <mxRectangle width="30" height="30" as="alternateBounds"/>
                    </mxGeometry>
                </mxCell>
                <mxCell id="nrEiqh1vNegxxQYrQlBO-217" value="review_created_on" style="shape=partialRectangle;connectable=0;fillColor=none;top=0;left=0;bottom=0;right=0;align=left;spacingLeft=6;overflow=hidden;fontFamily=Helvetica;fontSize=11;rounded=1;" parent="nrEiqh1vNegxxQYrQlBO-215" vertex="1">
                    <mxGeometry x="30" width="120" height="30" as="geometry">
                        <mxRectangle width="120" height="30" as="alternateBounds"/>
                    </mxGeometry>
                </mxCell>
                <mxCell id="5" style="shape=tableRow;horizontal=0;startSize=0;swimlaneHead=0;swimlaneBody=0;fillColor=none;collapsible=0;dropTarget=0;points=[[0,0.5],[1,0.5]];portConstraint=eastwest;top=0;left=0;right=0;bottom=0;fontFamily=Helvetica;fontSize=11;rounded=1;" parent="nrEiqh1vNegxxQYrQlBO-199" vertex="1">
                    <mxGeometry y="210" width="150" height="30" as="geometry"/>
                </mxCell>
                <mxCell id="6" style="shape=partialRectangle;connectable=0;fillColor=none;top=0;left=0;bottom=0;right=0;editable=1;overflow=hidden;fontFamily=Helvetica;fontSize=11;rounded=1;" parent="5" vertex="1">
                    <mxGeometry width="30" height="30" as="geometry">
                        <mxRectangle width="30" height="30" as="alternateBounds"/>
                    </mxGeometry>
                </mxCell>
                <mxCell id="7" value="review_star" style="shape=partialRectangle;connectable=0;fillColor=none;top=0;left=0;bottom=0;right=0;align=left;spacingLeft=6;overflow=hidden;fontFamily=Helvetica;fontSize=11;rounded=1;" parent="5" vertex="1">
                    <mxGeometry x="30" width="120" height="30" as="geometry">
                        <mxRectangle width="120" height="30" as="alternateBounds"/>
                    </mxGeometry>
                </mxCell>
                <mxCell id="nrEiqh1vNegxxQYrQlBO-212" style="shape=tableRow;horizontal=0;startSize=0;swimlaneHead=0;swimlaneBody=0;fillColor=none;collapsible=0;dropTarget=0;points=[[0,0.5],[1,0.5]];portConstraint=eastwest;top=0;left=0;right=0;bottom=0;fontFamily=Helvetica;fontSize=11;rounded=1;" parent="nrEiqh1vNegxxQYrQlBO-199" vertex="1">
                    <mxGeometry y="240" width="150" height="30" as="geometry"/>
                </mxCell>
                <mxCell id="nrEiqh1vNegxxQYrQlBO-213" style="shape=partialRectangle;connectable=0;fillColor=none;top=0;left=0;bottom=0;right=0;editable=1;overflow=hidden;fontFamily=Helvetica;fontSize=11;rounded=1;" parent="nrEiqh1vNegxxQYrQlBO-212" vertex="1">
                    <mxGeometry width="30" height="30" as="geometry">
                        <mxRectangle width="30" height="30" as="alternateBounds"/>
                    </mxGeometry>
                </mxCell>
                <mxCell id="nrEiqh1vNegxxQYrQlBO-214" value="review_content" style="shape=partialRectangle;connectable=0;fillColor=none;top=0;left=0;bottom=0;right=0;align=left;spacingLeft=6;overflow=hidden;fontFamily=Helvetica;fontSize=11;rounded=1;" parent="nrEiqh1vNegxxQYrQlBO-212" vertex="1">
                    <mxGeometry x="30" width="120" height="30" as="geometry">
                        <mxRectangle width="120" height="30" as="alternateBounds"/>
                    </mxGeometry>
                </mxCell>
                <mxCell id="bjA27ZTvpTViUHQnJj1i-11" value="sub_review" style="fontSize=11;html=1;endArrow=ERmandOne;startArrow=ERzeroToOne;edgeStyle=orthogonalEdgeStyle;elbow=vertical;startFill=0;dashed=1;" parent="nrEiqh1vNegxxQYrQlBO-199" source="bjA27ZTvpTViUHQnJj1i-5" target="nrEiqh1vNegxxQYrQlBO-200" edge="1">
                    <mxGeometry x="0.2617" width="100" height="100" relative="1" as="geometry">
                        <mxPoint x="137.9999999999999" y="194.99999999999977" as="sourcePoint"/>
                        <mxPoint x="137.9999999999999" y="44.99999999999977" as="targetPoint"/>
                        <Array as="points">
                            <mxPoint x="-26" y="165"/>
                            <mxPoint x="-26" y="45"/>
                        </Array>
                        <mxPoint as="offset"/>
                    </mxGeometry>
                </mxCell>
                <mxCell id="nrEiqh1vNegxxQYrQlBO-218" value="Property" style="shape=table;startSize=30;container=1;collapsible=1;childLayout=tableLayout;fixedRows=1;rowLines=0;fontStyle=1;align=center;resizeLast=1;fontFamily=Helvetica;fontSize=11;rounded=1;arcSize=14;" parent="1" vertex="1">
                    <mxGeometry x="-674" y="-570" width="150" height="360" as="geometry"/>
                </mxCell>
                <mxCell id="nrEiqh1vNegxxQYrQlBO-219" style="shape=tableRow;horizontal=0;startSize=0;swimlaneHead=0;swimlaneBody=0;fillColor=none;collapsible=0;dropTarget=0;points=[[0,0.5],[1,0.5]];portConstraint=eastwest;top=0;left=0;right=0;bottom=1;fontFamily=Helvetica;fontSize=11;rounded=1;" parent="nrEiqh1vNegxxQYrQlBO-218" vertex="1">
                    <mxGeometry y="30" width="150" height="30" as="geometry"/>
                </mxCell>
                <mxCell id="nrEiqh1vNegxxQYrQlBO-220" value="PK" style="shape=partialRectangle;connectable=0;fillColor=none;top=0;left=0;bottom=0;right=0;fontStyle=1;overflow=hidden;fontFamily=Helvetica;fontSize=11;rounded=1;" parent="nrEiqh1vNegxxQYrQlBO-219" vertex="1">
                    <mxGeometry width="30" height="30" as="geometry">
                        <mxRectangle width="30" height="30" as="alternateBounds"/>
                    </mxGeometry>
                </mxCell>
                <mxCell id="nrEiqh1vNegxxQYrQlBO-221" value="property_id" style="shape=partialRectangle;connectable=0;fillColor=none;top=0;left=0;bottom=0;right=0;align=left;spacingLeft=6;fontStyle=5;overflow=hidden;fontFamily=Helvetica;fontSize=11;rounded=1;" parent="nrEiqh1vNegxxQYrQlBO-219" vertex="1">
                    <mxGeometry x="30" width="120" height="30" as="geometry">
                        <mxRectangle width="120" height="30" as="alternateBounds"/>
                    </mxGeometry>
                </mxCell>
                <mxCell id="nrEiqh1vNegxxQYrQlBO-225" style="shape=tableRow;horizontal=0;startSize=0;swimlaneHead=0;swimlaneBody=0;fillColor=none;collapsible=0;dropTarget=0;points=[[0,0.5],[1,0.5]];portConstraint=eastwest;top=0;left=0;right=0;bottom=0;fontFamily=Helvetica;fontSize=11;rounded=1;" parent="nrEiqh1vNegxxQYrQlBO-218" vertex="1">
                    <mxGeometry y="60" width="150" height="30" as="geometry"/>
                </mxCell>
                <mxCell id="nrEiqh1vNegxxQYrQlBO-226" style="shape=partialRectangle;connectable=0;fillColor=none;top=0;left=0;bottom=0;right=0;editable=1;overflow=hidden;fontFamily=Helvetica;fontSize=11;rounded=1;" parent="nrEiqh1vNegxxQYrQlBO-225" vertex="1">
                    <mxGeometry width="30" height="30" as="geometry">
                        <mxRectangle width="30" height="30" as="alternateBounds"/>
                    </mxGeometry>
                </mxCell>
                <mxCell id="nrEiqh1vNegxxQYrQlBO-227" value="property_name" style="shape=partialRectangle;connectable=0;fillColor=none;top=0;left=0;bottom=0;right=0;align=left;spacingLeft=6;overflow=hidden;fontFamily=Helvetica;fontSize=11;rounded=1;" parent="nrEiqh1vNegxxQYrQlBO-225" vertex="1">
                    <mxGeometry x="30" width="120" height="30" as="geometry">
                        <mxRectangle width="120" height="30" as="alternateBounds"/>
                    </mxGeometry>
                </mxCell>
                <mxCell id="nrEiqh1vNegxxQYrQlBO-228" style="shape=tableRow;horizontal=0;startSize=0;swimlaneHead=0;swimlaneBody=0;fillColor=none;collapsible=0;dropTarget=0;points=[[0,0.5],[1,0.5]];portConstraint=eastwest;top=0;left=0;right=0;bottom=0;fontFamily=Helvetica;fontSize=11;rounded=1;" parent="nrEiqh1vNegxxQYrQlBO-218" vertex="1">
                    <mxGeometry y="90" width="150" height="30" as="geometry"/>
                </mxCell>
                <mxCell id="nrEiqh1vNegxxQYrQlBO-229" style="shape=partialRectangle;connectable=0;fillColor=none;top=0;left=0;bottom=0;right=0;editable=1;overflow=hidden;fontFamily=Helvetica;fontSize=11;rounded=1;" parent="nrEiqh1vNegxxQYrQlBO-228" vertex="1">
                    <mxGeometry width="30" height="30" as="geometry">
                        <mxRectangle width="30" height="30" as="alternateBounds"/>
                    </mxGeometry>
                </mxCell>
                <mxCell id="nrEiqh1vNegxxQYrQlBO-230" value="property_description" style="shape=partialRectangle;connectable=0;fillColor=none;top=0;left=0;bottom=0;right=0;align=left;spacingLeft=6;overflow=hidden;fontFamily=Helvetica;fontSize=11;rounded=1;" parent="nrEiqh1vNegxxQYrQlBO-228" vertex="1">
                    <mxGeometry x="30" width="120" height="30" as="geometry">
                        <mxRectangle width="120" height="30" as="alternateBounds"/>
                    </mxGeometry>
                </mxCell>
                <mxCell id="nrEiqh1vNegxxQYrQlBO-503" style="shape=tableRow;horizontal=0;startSize=0;swimlaneHead=0;swimlaneBody=0;fillColor=none;collapsible=0;dropTarget=0;points=[[0,0.5],[1,0.5]];portConstraint=eastwest;top=0;left=0;right=0;bottom=0;fontFamily=Helvetica;fontSize=11;rounded=1;" parent="nrEiqh1vNegxxQYrQlBO-218" vertex="1">
                    <mxGeometry y="120" width="150" height="30" as="geometry"/>
                </mxCell>
                <mxCell id="nrEiqh1vNegxxQYrQlBO-504" style="shape=partialRectangle;connectable=0;fillColor=none;top=0;left=0;bottom=0;right=0;editable=1;overflow=hidden;fontFamily=Helvetica;fontSize=11;rounded=1;" parent="nrEiqh1vNegxxQYrQlBO-503" vertex="1">
                    <mxGeometry width="30" height="30" as="geometry">
                        <mxRectangle width="30" height="30" as="alternateBounds"/>
                    </mxGeometry>
                </mxCell>
                <mxCell id="nrEiqh1vNegxxQYrQlBO-505" value="property_availabilty" style="shape=partialRectangle;connectable=0;fillColor=none;top=0;left=0;bottom=0;right=0;align=left;spacingLeft=6;overflow=hidden;fontFamily=Helvetica;fontSize=11;rounded=1;" parent="nrEiqh1vNegxxQYrQlBO-503" vertex="1">
                    <mxGeometry x="30" width="120" height="30" as="geometry">
                        <mxRectangle width="120" height="30" as="alternateBounds"/>
                    </mxGeometry>
                </mxCell>
                <mxCell id="nrEiqh1vNegxxQYrQlBO-234" style="shape=tableRow;horizontal=0;startSize=0;swimlaneHead=0;swimlaneBody=0;fillColor=none;collapsible=0;dropTarget=0;points=[[0,0.5],[1,0.5]];portConstraint=eastwest;top=0;left=0;right=0;bottom=0;fontFamily=Helvetica;fontSize=11;rounded=1;" parent="nrEiqh1vNegxxQYrQlBO-218" vertex="1">
                    <mxGeometry y="150" width="150" height="30" as="geometry"/>
                </mxCell>
                <mxCell id="nrEiqh1vNegxxQYrQlBO-235" style="shape=partialRectangle;connectable=0;fillColor=none;top=0;left=0;bottom=0;right=0;editable=1;overflow=hidden;fontFamily=Helvetica;fontSize=11;rounded=1;" parent="nrEiqh1vNegxxQYrQlBO-234" vertex="1">
                    <mxGeometry width="30" height="30" as="geometry">
                        <mxRectangle width="30" height="30" as="alternateBounds"/>
                    </mxGeometry>
                </mxCell>
                <mxCell id="nrEiqh1vNegxxQYrQlBO-236" value="property_price_per_night" style="shape=partialRectangle;connectable=0;fillColor=none;top=0;left=0;bottom=0;right=0;align=left;spacingLeft=6;overflow=hidden;fontFamily=Helvetica;fontSize=10;rounded=1;" parent="nrEiqh1vNegxxQYrQlBO-234" vertex="1">
                    <mxGeometry x="30" width="120" height="30" as="geometry">
                        <mxRectangle width="120" height="30" as="alternateBounds"/>
                    </mxGeometry>
                </mxCell>
                <mxCell id="nrEiqh1vNegxxQYrQlBO-385" style="shape=tableRow;horizontal=0;startSize=0;swimlaneHead=0;swimlaneBody=0;fillColor=none;collapsible=0;dropTarget=0;points=[[0,0.5],[1,0.5]];portConstraint=eastwest;top=0;left=0;right=0;bottom=0;fontFamily=Helvetica;fontSize=11;rounded=1;" parent="nrEiqh1vNegxxQYrQlBO-218" vertex="1">
                    <mxGeometry y="180" width="150" height="30" as="geometry"/>
                </mxCell>
                <mxCell id="nrEiqh1vNegxxQYrQlBO-386" style="shape=partialRectangle;connectable=0;fillColor=none;top=0;left=0;bottom=0;right=0;editable=1;overflow=hidden;fontFamily=Helvetica;fontSize=11;rounded=1;" parent="nrEiqh1vNegxxQYrQlBO-385" vertex="1">
                    <mxGeometry width="30" height="30" as="geometry">
                        <mxRectangle width="30" height="30" as="alternateBounds"/>
                    </mxGeometry>
                </mxCell>
                <mxCell id="nrEiqh1vNegxxQYrQlBO-387" value="property_rule" style="shape=partialRectangle;connectable=0;fillColor=none;top=0;left=0;bottom=0;right=0;align=left;spacingLeft=6;overflow=hidden;fontFamily=Helvetica;fontSize=11;rounded=1;" parent="nrEiqh1vNegxxQYrQlBO-385" vertex="1">
                    <mxGeometry x="30" width="120" height="30" as="geometry">
                        <mxRectangle width="120" height="30" as="alternateBounds"/>
                    </mxGeometry>
                </mxCell>
                <mxCell id="12" style="shape=tableRow;horizontal=0;startSize=0;swimlaneHead=0;swimlaneBody=0;fillColor=none;collapsible=0;dropTarget=0;points=[[0,0.5],[1,0.5]];portConstraint=eastwest;top=0;left=0;right=0;bottom=0;fontFamily=Helvetica;fontSize=11;rounded=1;" parent="nrEiqh1vNegxxQYrQlBO-218" vertex="1">
                    <mxGeometry y="210" width="150" height="30" as="geometry"/>
                </mxCell>
                <mxCell id="13" style="shape=partialRectangle;connectable=0;fillColor=none;top=0;left=0;bottom=0;right=0;editable=1;overflow=hidden;fontFamily=Helvetica;fontSize=11;rounded=1;" parent="12" vertex="1">
                    <mxGeometry width="30" height="30" as="geometry">
                        <mxRectangle width="30" height="30" as="alternateBounds"/>
                    </mxGeometry>
                </mxCell>
                <mxCell id="14" value="property_no_bedroom" style="shape=partialRectangle;connectable=0;fillColor=none;top=0;left=0;bottom=0;right=0;align=left;spacingLeft=6;overflow=hidden;fontFamily=Helvetica;fontSize=11;rounded=1;" parent="12" vertex="1">
                    <mxGeometry x="30" width="120" height="30" as="geometry">
                        <mxRectangle width="120" height="30" as="alternateBounds"/>
                    </mxGeometry>
                </mxCell>
                <mxCell id="nrEiqh1vNegxxQYrQlBO-231" style="shape=tableRow;horizontal=0;startSize=0;swimlaneHead=0;swimlaneBody=0;fillColor=none;collapsible=0;dropTarget=0;points=[[0,0.5],[1,0.5]];portConstraint=eastwest;top=0;left=0;right=0;bottom=0;fontFamily=Helvetica;fontSize=11;rounded=1;" parent="nrEiqh1vNegxxQYrQlBO-218" vertex="1">
                    <mxGeometry y="240" width="150" height="30" as="geometry"/>
                </mxCell>
                <mxCell id="nrEiqh1vNegxxQYrQlBO-232" value="FK" style="shape=partialRectangle;connectable=0;fillColor=none;top=0;left=0;bottom=0;right=0;editable=1;overflow=hidden;fontFamily=Helvetica;fontSize=11;rounded=1;" parent="nrEiqh1vNegxxQYrQlBO-231" vertex="1">
                    <mxGeometry width="30" height="30" as="geometry">
                        <mxRectangle width="30" height="30" as="alternateBounds"/>
                    </mxGeometry>
                </mxCell>
                <mxCell id="nrEiqh1vNegxxQYrQlBO-233" value="address_id" style="shape=partialRectangle;connectable=0;fillColor=none;top=0;left=0;bottom=0;right=0;align=left;spacingLeft=6;overflow=hidden;fontFamily=Helvetica;fontSize=11;rounded=1;" parent="nrEiqh1vNegxxQYrQlBO-231" vertex="1">
                    <mxGeometry x="30" width="120" height="30" as="geometry">
                        <mxRectangle width="120" height="30" as="alternateBounds"/>
                    </mxGeometry>
                </mxCell>
                <mxCell id="nrEiqh1vNegxxQYrQlBO-222" style="shape=tableRow;horizontal=0;startSize=0;swimlaneHead=0;swimlaneBody=0;fillColor=none;collapsible=0;dropTarget=0;points=[[0,0.5],[1,0.5]];portConstraint=eastwest;top=0;left=0;right=0;bottom=0;fontFamily=Helvetica;fontSize=11;rounded=1;" parent="nrEiqh1vNegxxQYrQlBO-218" vertex="1">
                    <mxGeometry y="270" width="150" height="30" as="geometry"/>
                </mxCell>
                <mxCell id="nrEiqh1vNegxxQYrQlBO-223" value="FK" style="shape=partialRectangle;connectable=0;fillColor=none;top=0;left=0;bottom=0;right=0;editable=1;overflow=hidden;fontFamily=Helvetica;fontSize=11;rounded=1;" parent="nrEiqh1vNegxxQYrQlBO-222" vertex="1">
                    <mxGeometry width="30" height="30" as="geometry">
                        <mxRectangle width="30" height="30" as="alternateBounds"/>
                    </mxGeometry>
                </mxCell>
                <mxCell id="nrEiqh1vNegxxQYrQlBO-224" value="host_id" style="shape=partialRectangle;connectable=0;fillColor=none;top=0;left=0;bottom=0;right=0;align=left;spacingLeft=6;overflow=hidden;fontFamily=Helvetica;fontSize=11;rounded=1;" parent="nrEiqh1vNegxxQYrQlBO-222" vertex="1">
                    <mxGeometry x="30" width="120" height="30" as="geometry">
                        <mxRectangle width="120" height="30" as="alternateBounds"/>
                    </mxGeometry>
                </mxCell>
                <mxCell id="nrEiqh1vNegxxQYrQlBO-379" style="shape=tableRow;horizontal=0;startSize=0;swimlaneHead=0;swimlaneBody=0;fillColor=none;collapsible=0;dropTarget=0;points=[[0,0.5],[1,0.5]];portConstraint=eastwest;top=0;left=0;right=0;bottom=0;fontFamily=Helvetica;fontSize=11;rounded=1;" parent="nrEiqh1vNegxxQYrQlBO-218" vertex="1">
                    <mxGeometry y="300" width="150" height="30" as="geometry"/>
                </mxCell>
                <mxCell id="nrEiqh1vNegxxQYrQlBO-380" value="FK" style="shape=partialRectangle;connectable=0;fillColor=none;top=0;left=0;bottom=0;right=0;editable=1;overflow=hidden;fontFamily=Helvetica;fontSize=11;rounded=1;" parent="nrEiqh1vNegxxQYrQlBO-379" vertex="1">
                    <mxGeometry width="30" height="30" as="geometry">
                        <mxRectangle width="30" height="30" as="alternateBounds"/>
                    </mxGeometry>
                </mxCell>
                <mxCell id="nrEiqh1vNegxxQYrQlBO-381" value="cancellation_policy_id" style="shape=partialRectangle;connectable=0;fillColor=none;top=0;left=0;bottom=0;right=0;align=left;spacingLeft=6;overflow=hidden;fontFamily=Helvetica;fontSize=11;rounded=1;" parent="nrEiqh1vNegxxQYrQlBO-379" vertex="1">
                    <mxGeometry x="30" width="120" height="30" as="geometry">
                        <mxRectangle width="120" height="30" as="alternateBounds"/>
                    </mxGeometry>
                </mxCell>
                <mxCell id="62" style="shape=tableRow;horizontal=0;startSize=0;swimlaneHead=0;swimlaneBody=0;fillColor=none;collapsible=0;dropTarget=0;points=[[0,0.5],[1,0.5]];portConstraint=eastwest;top=0;left=0;right=0;bottom=0;fontFamily=Helvetica;fontSize=11;rounded=1;" parent="nrEiqh1vNegxxQYrQlBO-218" vertex="1">
                    <mxGeometry y="330" width="150" height="30" as="geometry"/>
                </mxCell>
                <mxCell id="63" value="FK" style="shape=partialRectangle;connectable=0;fillColor=none;top=0;left=0;bottom=0;right=0;editable=1;overflow=hidden;fontFamily=Helvetica;fontSize=11;rounded=1;" parent="62" vertex="1">
                    <mxGeometry width="30" height="30" as="geometry">
                        <mxRectangle width="30" height="30" as="alternateBounds"/>
                    </mxGeometry>
                </mxCell>
                <mxCell id="64" value="neighbourhood_id" style="shape=partialRectangle;connectable=0;fillColor=none;top=0;left=0;bottom=0;right=0;align=left;spacingLeft=6;overflow=hidden;fontFamily=Helvetica;fontSize=11;rounded=1;" parent="62" vertex="1">
                    <mxGeometry x="30" width="120" height="30" as="geometry">
                        <mxRectangle width="120" height="30" as="alternateBounds"/>
                    </mxGeometry>
                </mxCell>
                <mxCell id="nrEiqh1vNegxxQYrQlBO-237" value="Booking" style="shape=table;startSize=30;container=1;collapsible=1;childLayout=tableLayout;fixedRows=1;rowLines=0;fontStyle=1;align=center;resizeLast=1;fontFamily=Helvetica;fontSize=11;rounded=1;" parent="1" vertex="1">
                    <mxGeometry x="-202" y="-790" width="150" height="300" as="geometry"/>
                </mxCell>
                <mxCell id="nrEiqh1vNegxxQYrQlBO-238" style="shape=tableRow;horizontal=0;startSize=0;swimlaneHead=0;swimlaneBody=0;fillColor=none;collapsible=0;dropTarget=0;points=[[0,0.5],[1,0.5]];portConstraint=eastwest;top=0;left=0;right=0;bottom=1;fontFamily=Helvetica;fontSize=11;rounded=1;" parent="nrEiqh1vNegxxQYrQlBO-237" vertex="1">
                    <mxGeometry y="30" width="150" height="30" as="geometry"/>
                </mxCell>
                <mxCell id="nrEiqh1vNegxxQYrQlBO-239" value="PK" style="shape=partialRectangle;connectable=0;fillColor=none;top=0;left=0;bottom=0;right=0;fontStyle=1;overflow=hidden;fontFamily=Helvetica;fontSize=11;rounded=1;" parent="nrEiqh1vNegxxQYrQlBO-238" vertex="1">
                    <mxGeometry width="30" height="30" as="geometry">
                        <mxRectangle width="30" height="30" as="alternateBounds"/>
                    </mxGeometry>
                </mxCell>
                <mxCell id="nrEiqh1vNegxxQYrQlBO-240" value="booking_id" style="shape=partialRectangle;connectable=0;fillColor=none;top=0;left=0;bottom=0;right=0;align=left;spacingLeft=6;fontStyle=5;overflow=hidden;fontFamily=Helvetica;fontSize=11;rounded=1;" parent="nrEiqh1vNegxxQYrQlBO-238" vertex="1">
                    <mxGeometry x="30" width="120" height="30" as="geometry">
                        <mxRectangle width="120" height="30" as="alternateBounds"/>
                    </mxGeometry>
                </mxCell>
                <mxCell id="bjA27ZTvpTViUHQnJj1i-12" style="shape=tableRow;horizontal=0;startSize=0;swimlaneHead=0;swimlaneBody=0;fillColor=none;collapsible=0;dropTarget=0;points=[[0,0.5],[1,0.5]];portConstraint=eastwest;top=0;left=0;right=0;bottom=0;fontFamily=Helvetica;fontSize=11;rounded=1;" parent="nrEiqh1vNegxxQYrQlBO-237" vertex="1">
                    <mxGeometry y="60" width="150" height="30" as="geometry"/>
                </mxCell>
                <mxCell id="bjA27ZTvpTViUHQnJj1i-13" style="shape=partialRectangle;connectable=0;fillColor=none;top=0;left=0;bottom=0;right=0;editable=1;overflow=hidden;fontFamily=Helvetica;fontSize=11;rounded=1;" parent="bjA27ZTvpTViUHQnJj1i-12" vertex="1">
                    <mxGeometry width="30" height="30" as="geometry">
                        <mxRectangle width="30" height="30" as="alternateBounds"/>
                    </mxGeometry>
                </mxCell>
                <mxCell id="bjA27ZTvpTViUHQnJj1i-14" value="booking_created_on" style="shape=partialRectangle;connectable=0;fillColor=none;top=0;left=0;bottom=0;right=0;align=left;spacingLeft=6;overflow=hidden;fontFamily=Helvetica;fontSize=11;rounded=1;" parent="bjA27ZTvpTViUHQnJj1i-12" vertex="1">
                    <mxGeometry x="30" width="120" height="30" as="geometry">
                        <mxRectangle width="120" height="30" as="alternateBounds"/>
                    </mxGeometry>
                </mxCell>
                <mxCell id="nrEiqh1vNegxxQYrQlBO-241" style="shape=tableRow;horizontal=0;startSize=0;swimlaneHead=0;swimlaneBody=0;fillColor=none;collapsible=0;dropTarget=0;points=[[0,0.5],[1,0.5]];portConstraint=eastwest;top=0;left=0;right=0;bottom=0;fontFamily=Helvetica;fontSize=11;rounded=1;" parent="nrEiqh1vNegxxQYrQlBO-237" vertex="1">
                    <mxGeometry y="90" width="150" height="30" as="geometry"/>
                </mxCell>
                <mxCell id="nrEiqh1vNegxxQYrQlBO-242" value="FK" style="shape=partialRectangle;connectable=0;fillColor=none;top=0;left=0;bottom=0;right=0;editable=1;overflow=hidden;fontFamily=Helvetica;fontSize=11;rounded=1;" parent="nrEiqh1vNegxxQYrQlBO-241" vertex="1">
                    <mxGeometry width="30" height="30" as="geometry">
                        <mxRectangle width="30" height="30" as="alternateBounds"/>
                    </mxGeometry>
                </mxCell>
                <mxCell id="nrEiqh1vNegxxQYrQlBO-243" value="property_id" style="shape=partialRectangle;connectable=0;fillColor=none;top=0;left=0;bottom=0;right=0;align=left;spacingLeft=6;overflow=hidden;fontFamily=Helvetica;fontSize=11;rounded=1;" parent="nrEiqh1vNegxxQYrQlBO-241" vertex="1">
                    <mxGeometry x="30" width="120" height="30" as="geometry">
                        <mxRectangle width="120" height="30" as="alternateBounds"/>
                    </mxGeometry>
                </mxCell>
                <mxCell id="nrEiqh1vNegxxQYrQlBO-320" style="shape=tableRow;horizontal=0;startSize=0;swimlaneHead=0;swimlaneBody=0;fillColor=none;collapsible=0;dropTarget=0;points=[[0,0.5],[1,0.5]];portConstraint=eastwest;top=0;left=0;right=0;bottom=0;fontFamily=Helvetica;fontSize=11;rounded=1;" parent="nrEiqh1vNegxxQYrQlBO-237" vertex="1">
                    <mxGeometry y="120" width="150" height="30" as="geometry"/>
                </mxCell>
                <mxCell id="nrEiqh1vNegxxQYrQlBO-321" value="" style="shape=partialRectangle;connectable=0;fillColor=none;top=0;left=0;bottom=0;right=0;editable=1;overflow=hidden;fontFamily=Helvetica;fontSize=11;rounded=1;" parent="nrEiqh1vNegxxQYrQlBO-320" vertex="1">
                    <mxGeometry width="30" height="30" as="geometry">
                        <mxRectangle width="30" height="30" as="alternateBounds"/>
                    </mxGeometry>
                </mxCell>
                <mxCell id="nrEiqh1vNegxxQYrQlBO-322" value="booking_status" style="shape=partialRectangle;connectable=0;fillColor=none;top=0;left=0;bottom=0;right=0;align=left;spacingLeft=6;overflow=hidden;fontFamily=Helvetica;fontSize=11;rounded=1;" parent="nrEiqh1vNegxxQYrQlBO-320" vertex="1">
                    <mxGeometry x="30" width="120" height="30" as="geometry">
                        <mxRectangle width="120" height="30" as="alternateBounds"/>
                    </mxGeometry>
                </mxCell>
                <mxCell id="nrEiqh1vNegxxQYrQlBO-348" style="shape=tableRow;horizontal=0;startSize=0;swimlaneHead=0;swimlaneBody=0;fillColor=none;collapsible=0;dropTarget=0;points=[[0,0.5],[1,0.5]];portConstraint=eastwest;top=0;left=0;right=0;bottom=0;fontFamily=Helvetica;fontSize=11;rounded=1;" parent="nrEiqh1vNegxxQYrQlBO-237" vertex="1">
                    <mxGeometry y="150" width="150" height="30" as="geometry"/>
                </mxCell>
                <mxCell id="nrEiqh1vNegxxQYrQlBO-349" style="shape=partialRectangle;connectable=0;fillColor=none;top=0;left=0;bottom=0;right=0;editable=1;overflow=hidden;fontFamily=Helvetica;fontSize=11;rounded=1;" parent="nrEiqh1vNegxxQYrQlBO-348" vertex="1">
                    <mxGeometry width="30" height="30" as="geometry">
                        <mxRectangle width="30" height="30" as="alternateBounds"/>
                    </mxGeometry>
                </mxCell>
                <mxCell id="nrEiqh1vNegxxQYrQlBO-350" value="payment_status" style="shape=partialRectangle;connectable=0;fillColor=none;top=0;left=0;bottom=0;right=0;align=left;spacingLeft=6;overflow=hidden;fontFamily=Helvetica;fontSize=11;rounded=1;" parent="nrEiqh1vNegxxQYrQlBO-348" vertex="1">
                    <mxGeometry x="30" width="120" height="30" as="geometry">
                        <mxRectangle width="120" height="30" as="alternateBounds"/>
                    </mxGeometry>
                </mxCell>
                <mxCell id="nrEiqh1vNegxxQYrQlBO-247" style="shape=tableRow;horizontal=0;startSize=0;swimlaneHead=0;swimlaneBody=0;fillColor=none;collapsible=0;dropTarget=0;points=[[0,0.5],[1,0.5]];portConstraint=eastwest;top=0;left=0;right=0;bottom=0;fontFamily=Helvetica;fontSize=11;rounded=1;" parent="nrEiqh1vNegxxQYrQlBO-237" vertex="1">
                    <mxGeometry y="180" width="150" height="30" as="geometry"/>
                </mxCell>
                <mxCell id="nrEiqh1vNegxxQYrQlBO-248" style="shape=partialRectangle;connectable=0;fillColor=none;top=0;left=0;bottom=0;right=0;editable=1;overflow=hidden;fontFamily=Helvetica;fontSize=11;rounded=1;" parent="nrEiqh1vNegxxQYrQlBO-247" vertex="1">
                    <mxGeometry width="30" height="30" as="geometry">
                        <mxRectangle width="30" height="30" as="alternateBounds"/>
                    </mxGeometry>
                </mxCell>
                <mxCell id="nrEiqh1vNegxxQYrQlBO-249" value="checkin_date" style="shape=partialRectangle;connectable=0;fillColor=none;top=0;left=0;bottom=0;right=0;align=left;spacingLeft=6;overflow=hidden;fontFamily=Helvetica;fontSize=11;rounded=1;" parent="nrEiqh1vNegxxQYrQlBO-247" vertex="1">
                    <mxGeometry x="30" width="120" height="30" as="geometry">
                        <mxRectangle width="120" height="30" as="alternateBounds"/>
                    </mxGeometry>
                </mxCell>
                <mxCell id="nrEiqh1vNegxxQYrQlBO-244" style="shape=tableRow;horizontal=0;startSize=0;swimlaneHead=0;swimlaneBody=0;fillColor=none;collapsible=0;dropTarget=0;points=[[0,0.5],[1,0.5]];portConstraint=eastwest;top=0;left=0;right=0;bottom=0;fontFamily=Helvetica;fontSize=11;rounded=1;" parent="nrEiqh1vNegxxQYrQlBO-237" vertex="1">
                    <mxGeometry y="210" width="150" height="30" as="geometry"/>
                </mxCell>
                <mxCell id="nrEiqh1vNegxxQYrQlBO-245" value="FK" style="shape=partialRectangle;connectable=0;fillColor=none;top=0;left=0;bottom=0;right=0;editable=1;overflow=hidden;fontFamily=Helvetica;fontSize=11;rounded=1;" parent="nrEiqh1vNegxxQYrQlBO-244" vertex="1">
                    <mxGeometry width="30" height="30" as="geometry">
                        <mxRectangle width="30" height="30" as="alternateBounds"/>
                    </mxGeometry>
                </mxCell>
                <mxCell id="nrEiqh1vNegxxQYrQlBO-246" value="guest_id" style="shape=partialRectangle;connectable=0;fillColor=none;top=0;left=0;bottom=0;right=0;align=left;spacingLeft=6;overflow=hidden;fontFamily=Helvetica;fontSize=11;rounded=1;" parent="nrEiqh1vNegxxQYrQlBO-244" vertex="1">
                    <mxGeometry x="30" width="120" height="30" as="geometry">
                        <mxRectangle width="120" height="30" as="alternateBounds"/>
                    </mxGeometry>
                </mxCell>
                <mxCell id="nrEiqh1vNegxxQYrQlBO-250" style="shape=tableRow;horizontal=0;startSize=0;swimlaneHead=0;swimlaneBody=0;fillColor=none;collapsible=0;dropTarget=0;points=[[0,0.5],[1,0.5]];portConstraint=eastwest;top=0;left=0;right=0;bottom=0;fontFamily=Helvetica;fontSize=11;rounded=1;" parent="nrEiqh1vNegxxQYrQlBO-237" vertex="1">
                    <mxGeometry y="240" width="150" height="30" as="geometry"/>
                </mxCell>
                <mxCell id="nrEiqh1vNegxxQYrQlBO-251" style="shape=partialRectangle;connectable=0;fillColor=none;top=0;left=0;bottom=0;right=0;editable=1;overflow=hidden;fontFamily=Helvetica;fontSize=11;rounded=1;" parent="nrEiqh1vNegxxQYrQlBO-250" vertex="1">
                    <mxGeometry width="30" height="30" as="geometry">
                        <mxRectangle width="30" height="30" as="alternateBounds"/>
                    </mxGeometry>
                </mxCell>
                <mxCell id="nrEiqh1vNegxxQYrQlBO-252" value="checkout_date" style="shape=partialRectangle;connectable=0;fillColor=none;top=0;left=0;bottom=0;right=0;align=left;spacingLeft=6;overflow=hidden;fontFamily=Helvetica;fontSize=11;rounded=1;" parent="nrEiqh1vNegxxQYrQlBO-250" vertex="1">
                    <mxGeometry x="30" width="120" height="30" as="geometry">
                        <mxRectangle width="120" height="30" as="alternateBounds"/>
                    </mxGeometry>
                </mxCell>
                <mxCell id="nrEiqh1vNegxxQYrQlBO-253" style="shape=tableRow;horizontal=0;startSize=0;swimlaneHead=0;swimlaneBody=0;fillColor=none;collapsible=0;dropTarget=0;points=[[0,0.5],[1,0.5]];portConstraint=eastwest;top=0;left=0;right=0;bottom=0;fontFamily=Helvetica;fontSize=11;rounded=1;" parent="nrEiqh1vNegxxQYrQlBO-237" vertex="1">
                    <mxGeometry y="270" width="150" height="30" as="geometry"/>
                </mxCell>
                <mxCell id="nrEiqh1vNegxxQYrQlBO-254" style="shape=partialRectangle;connectable=0;fillColor=none;top=0;left=0;bottom=0;right=0;editable=1;overflow=hidden;fontFamily=Helvetica;fontSize=11;rounded=1;" parent="nrEiqh1vNegxxQYrQlBO-253" vertex="1">
                    <mxGeometry width="30" height="30" as="geometry">
                        <mxRectangle width="30" height="30" as="alternateBounds"/>
                    </mxGeometry>
                </mxCell>
                <mxCell id="nrEiqh1vNegxxQYrQlBO-255" value="no_of_guest" style="shape=partialRectangle;connectable=0;fillColor=none;top=0;left=0;bottom=0;right=0;align=left;spacingLeft=6;overflow=hidden;fontFamily=Helvetica;fontSize=11;rounded=1;" parent="nrEiqh1vNegxxQYrQlBO-253" vertex="1">
                    <mxGeometry x="30" width="120" height="30" as="geometry">
                        <mxRectangle width="120" height="30" as="alternateBounds"/>
                    </mxGeometry>
                </mxCell>
                <mxCell id="nrEiqh1vNegxxQYrQlBO-256" value="Guest" style="shape=table;startSize=30;container=1;collapsible=1;childLayout=tableLayout;fixedRows=1;rowLines=0;fontStyle=1;align=center;resizeLast=1;fontFamily=Helvetica;fontSize=11;rounded=1;" parent="1" vertex="1">
                    <mxGeometry x="19" y="-430" width="150" height="90" as="geometry"/>
                </mxCell>
                <mxCell id="nrEiqh1vNegxxQYrQlBO-257" value="" style="shape=tableRow;horizontal=0;startSize=0;swimlaneHead=0;swimlaneBody=0;fillColor=none;collapsible=0;dropTarget=0;points=[[0,0.5],[1,0.5]];portConstraint=eastwest;top=0;left=0;right=0;bottom=1;fontFamily=Helvetica;fontSize=11;rounded=1;" parent="nrEiqh1vNegxxQYrQlBO-256" vertex="1">
                    <mxGeometry y="30" width="150" height="30" as="geometry"/>
                </mxCell>
                <mxCell id="nrEiqh1vNegxxQYrQlBO-258" value="PK" style="shape=partialRectangle;connectable=0;fillColor=none;top=0;left=0;bottom=0;right=0;fontStyle=1;overflow=hidden;fontFamily=Helvetica;fontSize=11;rounded=1;" parent="nrEiqh1vNegxxQYrQlBO-257" vertex="1">
                    <mxGeometry width="30" height="30" as="geometry">
                        <mxRectangle width="30" height="30" as="alternateBounds"/>
                    </mxGeometry>
                </mxCell>
                <mxCell id="nrEiqh1vNegxxQYrQlBO-259" value="guest_id" style="shape=partialRectangle;connectable=0;fillColor=none;top=0;left=0;bottom=0;right=0;align=left;spacingLeft=6;fontStyle=5;overflow=hidden;fontFamily=Helvetica;fontSize=11;rounded=1;" parent="nrEiqh1vNegxxQYrQlBO-257" vertex="1">
                    <mxGeometry x="30" width="120" height="30" as="geometry">
                        <mxRectangle width="120" height="30" as="alternateBounds"/>
                    </mxGeometry>
                </mxCell>
                <mxCell id="nrEiqh1vNegxxQYrQlBO-302" style="shape=tableRow;horizontal=0;startSize=0;swimlaneHead=0;swimlaneBody=0;fillColor=none;collapsible=0;dropTarget=0;points=[[0,0.5],[1,0.5]];portConstraint=eastwest;top=0;left=0;right=0;bottom=0;fontFamily=Helvetica;fontSize=11;rounded=1;" parent="nrEiqh1vNegxxQYrQlBO-256" vertex="1">
                    <mxGeometry y="60" width="150" height="30" as="geometry"/>
                </mxCell>
                <mxCell id="nrEiqh1vNegxxQYrQlBO-303" value="FK" style="shape=partialRectangle;connectable=0;fillColor=none;top=0;left=0;bottom=0;right=0;editable=1;overflow=hidden;fontFamily=Helvetica;fontSize=11;rounded=1;" parent="nrEiqh1vNegxxQYrQlBO-302" vertex="1">
                    <mxGeometry width="30" height="30" as="geometry">
                        <mxRectangle width="30" height="30" as="alternateBounds"/>
                    </mxGeometry>
                </mxCell>
                <mxCell id="nrEiqh1vNegxxQYrQlBO-304" value="user_id&#10;" style="shape=partialRectangle;connectable=0;fillColor=none;top=0;left=0;bottom=0;right=0;align=left;spacingLeft=6;overflow=hidden;fontFamily=Helvetica;fontSize=11;rounded=1;" parent="nrEiqh1vNegxxQYrQlBO-302" vertex="1">
                    <mxGeometry x="30" width="120" height="30" as="geometry">
                        <mxRectangle width="120" height="30" as="alternateBounds"/>
                    </mxGeometry>
                </mxCell>
                <mxCell id="nrEiqh1vNegxxQYrQlBO-363" value="Property_Photo" style="shape=table;startSize=30;container=1;collapsible=1;childLayout=tableLayout;fixedRows=1;rowLines=0;fontStyle=1;align=center;resizeLast=1;fontFamily=Helvetica;fontSize=11;rounded=1;" parent="1" vertex="1">
                    <mxGeometry x="-900" y="-599" width="150" height="120" as="geometry"/>
                </mxCell>
                <mxCell id="nrEiqh1vNegxxQYrQlBO-364" style="shape=tableRow;horizontal=0;startSize=0;swimlaneHead=0;swimlaneBody=0;fillColor=none;collapsible=0;dropTarget=0;points=[[0,0.5],[1,0.5]];portConstraint=eastwest;top=0;left=0;right=0;bottom=1;fontFamily=Helvetica;fontSize=11;rounded=1;" parent="nrEiqh1vNegxxQYrQlBO-363" vertex="1">
                    <mxGeometry y="30" width="150" height="30" as="geometry"/>
                </mxCell>
                <mxCell id="nrEiqh1vNegxxQYrQlBO-365" value="PK" style="shape=partialRectangle;connectable=0;fillColor=none;top=0;left=0;bottom=0;right=0;fontStyle=1;overflow=hidden;fontFamily=Helvetica;fontSize=11;rounded=1;" parent="nrEiqh1vNegxxQYrQlBO-364" vertex="1">
                    <mxGeometry width="30" height="30" as="geometry">
                        <mxRectangle width="30" height="30" as="alternateBounds"/>
                    </mxGeometry>
                </mxCell>
                <mxCell id="nrEiqh1vNegxxQYrQlBO-366" value="property_photo_id" style="shape=partialRectangle;connectable=0;fillColor=none;top=0;left=0;bottom=0;right=0;align=left;spacingLeft=6;fontStyle=5;overflow=hidden;fontFamily=Helvetica;fontSize=11;rounded=1;" parent="nrEiqh1vNegxxQYrQlBO-364" vertex="1">
                    <mxGeometry x="30" width="120" height="30" as="geometry">
                        <mxRectangle width="120" height="30" as="alternateBounds"/>
                    </mxGeometry>
                </mxCell>
                <mxCell id="CbRteJP2frnYpMNlqBMR-38" style="shape=tableRow;horizontal=0;startSize=0;swimlaneHead=0;swimlaneBody=0;fillColor=none;collapsible=0;dropTarget=0;points=[[0,0.5],[1,0.5]];portConstraint=eastwest;top=0;left=0;right=0;bottom=0;fontFamily=Helvetica;fontSize=11;rounded=1;" parent="nrEiqh1vNegxxQYrQlBO-363" vertex="1">
                    <mxGeometry y="60" width="150" height="30" as="geometry"/>
                </mxCell>
                <mxCell id="CbRteJP2frnYpMNlqBMR-39" value="FK" style="shape=partialRectangle;connectable=0;fillColor=none;top=0;left=0;bottom=0;right=0;editable=1;overflow=hidden;fontFamily=Helvetica;fontSize=11;rounded=1;" parent="CbRteJP2frnYpMNlqBMR-38" vertex="1">
                    <mxGeometry width="30" height="30" as="geometry">
                        <mxRectangle width="30" height="30" as="alternateBounds"/>
                    </mxGeometry>
                </mxCell>
                <mxCell id="CbRteJP2frnYpMNlqBMR-40" value="property_id" style="shape=partialRectangle;connectable=0;fillColor=none;top=0;left=0;bottom=0;right=0;align=left;spacingLeft=6;overflow=hidden;fontFamily=Helvetica;fontSize=11;rounded=1;" parent="CbRteJP2frnYpMNlqBMR-38" vertex="1">
                    <mxGeometry x="30" width="120" height="30" as="geometry">
                        <mxRectangle width="120" height="30" as="alternateBounds"/>
                    </mxGeometry>
                </mxCell>
                <mxCell id="nrEiqh1vNegxxQYrQlBO-370" style="shape=tableRow;horizontal=0;startSize=0;swimlaneHead=0;swimlaneBody=0;fillColor=none;collapsible=0;dropTarget=0;points=[[0,0.5],[1,0.5]];portConstraint=eastwest;top=0;left=0;right=0;bottom=0;fontFamily=Helvetica;fontSize=11;rounded=1;" parent="nrEiqh1vNegxxQYrQlBO-363" vertex="1">
                    <mxGeometry y="90" width="150" height="30" as="geometry"/>
                </mxCell>
                <mxCell id="nrEiqh1vNegxxQYrQlBO-371" style="shape=partialRectangle;connectable=0;fillColor=none;top=0;left=0;bottom=0;right=0;editable=1;overflow=hidden;fontFamily=Helvetica;fontSize=11;rounded=1;" parent="nrEiqh1vNegxxQYrQlBO-370" vertex="1">
                    <mxGeometry width="30" height="30" as="geometry">
                        <mxRectangle width="30" height="30" as="alternateBounds"/>
                    </mxGeometry>
                </mxCell>
                <mxCell id="nrEiqh1vNegxxQYrQlBO-372" value="property_photo_URL" style="shape=partialRectangle;connectable=0;fillColor=none;top=0;left=0;bottom=0;right=0;align=left;spacingLeft=6;overflow=hidden;fontFamily=Helvetica;fontSize=11;rounded=1;" parent="nrEiqh1vNegxxQYrQlBO-370" vertex="1">
                    <mxGeometry x="30" width="120" height="30" as="geometry">
                        <mxRectangle width="120" height="30" as="alternateBounds"/>
                    </mxGeometry>
                </mxCell>
                <mxCell id="nrEiqh1vNegxxQYrQlBO-391" value="" style="edgeStyle=orthogonalEdgeStyle;fontSize=11;html=1;endArrow=ERzeroToMany;startArrow=ERmandOne;rounded=1;fontFamily=Helvetica;jumpStyle=arc;startFill=0;endFill=0;" parent="1" source="nrEiqh1vNegxxQYrQlBO-238" target="nrEiqh1vNegxxQYrQlBO-330" edge="1">
                    <mxGeometry width="100" height="100" relative="1" as="geometry">
                        <mxPoint x="-139" y="142" as="sourcePoint"/>
                        <mxPoint x="-79" y="682" as="targetPoint"/>
                    </mxGeometry>
                </mxCell>
                <mxCell id="nrEiqh1vNegxxQYrQlBO-393" value="Cancellation_Policy" style="shape=table;startSize=30;container=1;collapsible=1;childLayout=tableLayout;fixedRows=1;rowLines=0;fontStyle=1;align=center;resizeLast=1;fontFamily=Helvetica;fontSize=11;rounded=1;" parent="1" vertex="1">
                    <mxGeometry x="-900" y="-228" width="150" height="180" as="geometry"/>
                </mxCell>
                <mxCell id="nrEiqh1vNegxxQYrQlBO-394" style="shape=tableRow;horizontal=0;startSize=0;swimlaneHead=0;swimlaneBody=0;fillColor=none;collapsible=0;dropTarget=0;points=[[0,0.5],[1,0.5]];portConstraint=eastwest;top=0;left=0;right=0;bottom=1;fontFamily=Helvetica;fontSize=11;rounded=1;" parent="nrEiqh1vNegxxQYrQlBO-393" vertex="1">
                    <mxGeometry y="30" width="150" height="30" as="geometry"/>
                </mxCell>
                <mxCell id="nrEiqh1vNegxxQYrQlBO-395" value="PK" style="shape=partialRectangle;connectable=0;fillColor=none;top=0;left=0;bottom=0;right=0;fontStyle=1;overflow=hidden;fontFamily=Helvetica;fontSize=11;rounded=1;" parent="nrEiqh1vNegxxQYrQlBO-394" vertex="1">
                    <mxGeometry width="30" height="30" as="geometry">
                        <mxRectangle width="30" height="30" as="alternateBounds"/>
                    </mxGeometry>
                </mxCell>
                <mxCell id="nrEiqh1vNegxxQYrQlBO-396" value="cancellation_policy_id" style="shape=partialRectangle;connectable=0;fillColor=none;top=0;left=0;bottom=0;right=0;align=left;spacingLeft=6;fontStyle=4;overflow=hidden;fontFamily=Helvetica;fontSize=11;rounded=1;" parent="nrEiqh1vNegxxQYrQlBO-394" vertex="1">
                    <mxGeometry x="30" width="120" height="30" as="geometry">
                        <mxRectangle width="120" height="30" as="alternateBounds"/>
                    </mxGeometry>
                </mxCell>
                <mxCell id="nrEiqh1vNegxxQYrQlBO-397" style="shape=tableRow;horizontal=0;startSize=0;swimlaneHead=0;swimlaneBody=0;fillColor=none;collapsible=0;dropTarget=0;points=[[0,0.5],[1,0.5]];portConstraint=eastwest;top=0;left=0;right=0;bottom=0;fontFamily=Helvetica;fontSize=11;rounded=1;" parent="nrEiqh1vNegxxQYrQlBO-393" vertex="1">
                    <mxGeometry y="60" width="150" height="30" as="geometry"/>
                </mxCell>
                <mxCell id="nrEiqh1vNegxxQYrQlBO-398" style="shape=partialRectangle;connectable=0;fillColor=none;top=0;left=0;bottom=0;right=0;editable=1;overflow=hidden;fontFamily=Helvetica;fontSize=11;rounded=1;" parent="nrEiqh1vNegxxQYrQlBO-397" vertex="1">
                    <mxGeometry width="30" height="30" as="geometry">
                        <mxRectangle width="30" height="30" as="alternateBounds"/>
                    </mxGeometry>
                </mxCell>
                <mxCell id="nrEiqh1vNegxxQYrQlBO-399" value="cancellation_name" style="shape=partialRectangle;connectable=0;fillColor=none;top=0;left=0;bottom=0;right=0;align=left;spacingLeft=6;overflow=hidden;fontFamily=Helvetica;fontSize=11;rounded=1;" parent="nrEiqh1vNegxxQYrQlBO-397" vertex="1">
                    <mxGeometry x="30" width="120" height="30" as="geometry">
                        <mxRectangle width="120" height="30" as="alternateBounds"/>
                    </mxGeometry>
                </mxCell>
                <mxCell id="nrEiqh1vNegxxQYrQlBO-400" style="shape=tableRow;horizontal=0;startSize=0;swimlaneHead=0;swimlaneBody=0;fillColor=none;collapsible=0;dropTarget=0;points=[[0,0.5],[1,0.5]];portConstraint=eastwest;top=0;left=0;right=0;bottom=0;fontFamily=Helvetica;fontSize=11;rounded=1;" parent="nrEiqh1vNegxxQYrQlBO-393" vertex="1">
                    <mxGeometry y="90" width="150" height="30" as="geometry"/>
                </mxCell>
                <mxCell id="nrEiqh1vNegxxQYrQlBO-401" style="shape=partialRectangle;connectable=0;fillColor=none;top=0;left=0;bottom=0;right=0;editable=1;overflow=hidden;fontFamily=Helvetica;fontSize=11;rounded=1;" parent="nrEiqh1vNegxxQYrQlBO-400" vertex="1">
                    <mxGeometry width="30" height="30" as="geometry">
                        <mxRectangle width="30" height="30" as="alternateBounds"/>
                    </mxGeometry>
                </mxCell>
                <mxCell id="nrEiqh1vNegxxQYrQlBO-402" value="cancellation_description" style="shape=partialRectangle;connectable=0;fillColor=none;top=0;left=0;bottom=0;right=0;align=left;spacingLeft=6;overflow=hidden;fontFamily=Helvetica;fontSize=11;rounded=1;" parent="nrEiqh1vNegxxQYrQlBO-400" vertex="1">
                    <mxGeometry x="30" width="120" height="30" as="geometry">
                        <mxRectangle width="120" height="30" as="alternateBounds"/>
                    </mxGeometry>
                </mxCell>
                <mxCell id="nrEiqh1vNegxxQYrQlBO-406" style="shape=tableRow;horizontal=0;startSize=0;swimlaneHead=0;swimlaneBody=0;fillColor=none;collapsible=0;dropTarget=0;points=[[0,0.5],[1,0.5]];portConstraint=eastwest;top=0;left=0;right=0;bottom=0;fontFamily=Helvetica;fontSize=11;rounded=1;" parent="nrEiqh1vNegxxQYrQlBO-393" vertex="1">
                    <mxGeometry y="120" width="150" height="30" as="geometry"/>
                </mxCell>
                <mxCell id="nrEiqh1vNegxxQYrQlBO-407" style="shape=partialRectangle;connectable=0;fillColor=none;top=0;left=0;bottom=0;right=0;editable=1;overflow=hidden;fontFamily=Helvetica;fontSize=11;rounded=1;" parent="nrEiqh1vNegxxQYrQlBO-406" vertex="1">
                    <mxGeometry width="30" height="30" as="geometry">
                        <mxRectangle width="30" height="30" as="alternateBounds"/>
                    </mxGeometry>
                </mxCell>
                <mxCell id="nrEiqh1vNegxxQYrQlBO-408" value="is_refundable" style="shape=partialRectangle;connectable=0;fillColor=none;top=0;left=0;bottom=0;right=0;align=left;spacingLeft=6;overflow=hidden;fontFamily=Helvetica;fontSize=11;rounded=1;" parent="nrEiqh1vNegxxQYrQlBO-406" vertex="1">
                    <mxGeometry x="30" width="120" height="30" as="geometry">
                        <mxRectangle width="120" height="30" as="alternateBounds"/>
                    </mxGeometry>
                </mxCell>
                <mxCell id="nrEiqh1vNegxxQYrQlBO-403" style="shape=tableRow;horizontal=0;startSize=0;swimlaneHead=0;swimlaneBody=0;fillColor=none;collapsible=0;dropTarget=0;points=[[0,0.5],[1,0.5]];portConstraint=eastwest;top=0;left=0;right=0;bottom=0;fontFamily=Helvetica;fontSize=11;rounded=1;" parent="nrEiqh1vNegxxQYrQlBO-393" vertex="1">
                    <mxGeometry y="150" width="150" height="30" as="geometry"/>
                </mxCell>
                <mxCell id="nrEiqh1vNegxxQYrQlBO-404" style="shape=partialRectangle;connectable=0;fillColor=none;top=0;left=0;bottom=0;right=0;editable=1;overflow=hidden;fontFamily=Helvetica;fontSize=11;rounded=1;" parent="nrEiqh1vNegxxQYrQlBO-403" vertex="1">
                    <mxGeometry width="30" height="30" as="geometry">
                        <mxRectangle width="30" height="30" as="alternateBounds"/>
                    </mxGeometry>
                </mxCell>
                <mxCell id="nrEiqh1vNegxxQYrQlBO-405" value="refund_rate" style="shape=partialRectangle;connectable=0;fillColor=none;top=0;left=0;bottom=0;right=0;align=left;spacingLeft=6;overflow=hidden;fontFamily=Helvetica;fontSize=11;rounded=1;" parent="nrEiqh1vNegxxQYrQlBO-403" vertex="1">
                    <mxGeometry x="30" width="120" height="30" as="geometry">
                        <mxRectangle width="120" height="30" as="alternateBounds"/>
                    </mxGeometry>
                </mxCell>
                <mxCell id="nrEiqh1vNegxxQYrQlBO-409" value="" style="edgeStyle=elbowEdgeStyle;fontSize=11;html=1;endArrow=ERmandOne;startArrow=ERmandOne;rounded=1;fontFamily=Helvetica;jumpStyle=arc;" parent="1" source="nrEiqh1vNegxxQYrQlBO-394" target="nrEiqh1vNegxxQYrQlBO-379" edge="1">
                    <mxGeometry width="100" height="100" relative="1" as="geometry">
                        <mxPoint x="-652.9999999999995" y="-141" as="sourcePoint"/>
                        <mxPoint x="-184" y="238" as="targetPoint"/>
                        <Array as="points">
                            <mxPoint x="-730" y="-220"/>
                        </Array>
                    </mxGeometry>
                </mxCell>
                <mxCell id="nrEiqh1vNegxxQYrQlBO-410" value="" style="edgeStyle=orthogonalEdgeStyle;fontSize=11;html=1;endArrow=ERmandOne;startArrow=ERmany;rounded=1;fontFamily=Helvetica;startFill=0;" parent="1" source="nrEiqh1vNegxxQYrQlBO-302" target="nrEiqh1vNegxxQYrQlBO-121" edge="1">
                    <mxGeometry width="100" height="100" relative="1" as="geometry">
                        <mxPoint x="-528" y="-246" as="sourcePoint"/>
                        <mxPoint x="-448" y="-330" as="targetPoint"/>
                    </mxGeometry>
                </mxCell>
                <mxCell id="nrEiqh1vNegxxQYrQlBO-423" value="" style="edgeStyle=orthogonalEdgeStyle;fontSize=11;html=1;endArrow=ERmandOne;startArrow=ERmany;rounded=1;fontFamily=Helvetica;jumpStyle=arc;startFill=0;" parent="1" source="nrEiqh1vNegxxQYrQlBO-415" target="nrEiqh1vNegxxQYrQlBO-121" edge="1">
                    <mxGeometry width="100" height="100" relative="1" as="geometry">
                        <mxPoint x="29" y="-509.9999999999998" as="sourcePoint"/>
                        <mxPoint x="29" y="-389.9999999999998" as="targetPoint"/>
                        <Array as="points">
                            <mxPoint x="-260" y="-255"/>
                            <mxPoint x="-260" y="-212"/>
                        </Array>
                    </mxGeometry>
                </mxCell>
                <mxCell id="nrEiqh1vNegxxQYrQlBO-424" value="Admin" style="shape=table;startSize=30;container=1;collapsible=1;childLayout=tableLayout;fixedRows=1;rowLines=0;fontStyle=1;align=center;resizeLast=1;fontFamily=Helvetica;fontSize=11;rounded=1;" parent="1" vertex="1">
                    <mxGeometry x="18" y="-177" width="150" height="90" as="geometry"/>
                </mxCell>
                <mxCell id="nrEiqh1vNegxxQYrQlBO-425" value="" style="shape=tableRow;horizontal=0;startSize=0;swimlaneHead=0;swimlaneBody=0;fillColor=none;collapsible=0;dropTarget=0;points=[[0,0.5],[1,0.5]];portConstraint=eastwest;top=0;left=0;right=0;bottom=1;fontFamily=Helvetica;fontSize=11;rounded=1;" parent="nrEiqh1vNegxxQYrQlBO-424" vertex="1">
                    <mxGeometry y="30" width="150" height="30" as="geometry"/>
                </mxCell>
                <mxCell id="nrEiqh1vNegxxQYrQlBO-426" value="PK" style="shape=partialRectangle;connectable=0;fillColor=none;top=0;left=0;bottom=0;right=0;fontStyle=1;overflow=hidden;fontFamily=Helvetica;fontSize=11;rounded=1;" parent="nrEiqh1vNegxxQYrQlBO-425" vertex="1">
                    <mxGeometry width="30" height="30" as="geometry">
                        <mxRectangle width="30" height="30" as="alternateBounds"/>
                    </mxGeometry>
                </mxCell>
                <mxCell id="nrEiqh1vNegxxQYrQlBO-427" value="admin_id" style="shape=partialRectangle;connectable=0;fillColor=none;top=0;left=0;bottom=0;right=0;align=left;spacingLeft=6;fontStyle=5;overflow=hidden;fontFamily=Helvetica;fontSize=11;rounded=1;" parent="nrEiqh1vNegxxQYrQlBO-425" vertex="1">
                    <mxGeometry x="30" width="120" height="30" as="geometry">
                        <mxRectangle width="120" height="30" as="alternateBounds"/>
                    </mxGeometry>
                </mxCell>
                <mxCell id="nrEiqh1vNegxxQYrQlBO-428" value="" style="shape=tableRow;horizontal=0;startSize=0;swimlaneHead=0;swimlaneBody=0;fillColor=none;collapsible=0;dropTarget=0;points=[[0,0.5],[1,0.5]];portConstraint=eastwest;top=0;left=0;right=0;bottom=0;fontFamily=Helvetica;fontSize=11;rounded=1;" parent="nrEiqh1vNegxxQYrQlBO-424" vertex="1">
                    <mxGeometry y="60" width="150" height="30" as="geometry"/>
                </mxCell>
                <mxCell id="nrEiqh1vNegxxQYrQlBO-429" value="FK" style="shape=partialRectangle;connectable=0;fillColor=none;top=0;left=0;bottom=0;right=0;editable=1;overflow=hidden;fontFamily=Helvetica;fontSize=11;rounded=1;" parent="nrEiqh1vNegxxQYrQlBO-428" vertex="1">
                    <mxGeometry width="30" height="30" as="geometry">
                        <mxRectangle width="30" height="30" as="alternateBounds"/>
                    </mxGeometry>
                </mxCell>
                <mxCell id="nrEiqh1vNegxxQYrQlBO-430" value="user_id" style="shape=partialRectangle;connectable=0;fillColor=none;top=0;left=0;bottom=0;right=0;align=left;spacingLeft=6;overflow=hidden;fontFamily=Helvetica;fontSize=11;rounded=1;" parent="nrEiqh1vNegxxQYrQlBO-428" vertex="1">
                    <mxGeometry x="30" width="120" height="30" as="geometry">
                        <mxRectangle width="120" height="30" as="alternateBounds"/>
                    </mxGeometry>
                </mxCell>
                <mxCell id="nrEiqh1vNegxxQYrQlBO-434" value="" style="edgeStyle=orthogonalEdgeStyle;fontSize=11;html=1;endArrow=ERmandOne;startArrow=ERmandOne;rounded=1;fontFamily=Helvetica;jumpStyle=arc;entryX=1;entryY=0.5;entryDx=0;entryDy=0;" parent="1" source="nrEiqh1vNegxxQYrQlBO-428" target="nrEiqh1vNegxxQYrQlBO-121" edge="1">
                    <mxGeometry width="100" height="100" relative="1" as="geometry">
                        <mxPoint x="-337" y="-275" as="sourcePoint"/>
                        <mxPoint x="-127" y="-424" as="targetPoint"/>
                    </mxGeometry>
                </mxCell>
                <mxCell id="nrEiqh1vNegxxQYrQlBO-435" value="Credit_Card" style="shape=table;startSize=30;container=1;collapsible=1;childLayout=tableLayout;fixedRows=1;rowLines=0;fontStyle=1;align=center;resizeLast=1;fontFamily=Helvetica;fontSize=11;rounded=1;" parent="1" vertex="1">
                    <mxGeometry x="259" y="-281" width="160" height="240" as="geometry"/>
                </mxCell>
                <mxCell id="nrEiqh1vNegxxQYrQlBO-436" style="shape=tableRow;horizontal=0;startSize=0;swimlaneHead=0;swimlaneBody=0;fillColor=none;collapsible=0;dropTarget=0;points=[[0,0.5],[1,0.5]];portConstraint=eastwest;top=0;left=0;right=0;bottom=1;fontFamily=Helvetica;fontSize=11;rounded=1;" parent="nrEiqh1vNegxxQYrQlBO-435" vertex="1">
                    <mxGeometry y="30" width="160" height="30" as="geometry"/>
                </mxCell>
                <mxCell id="nrEiqh1vNegxxQYrQlBO-437" value="PK" style="shape=partialRectangle;connectable=0;fillColor=none;top=0;left=0;bottom=0;right=0;fontStyle=1;overflow=hidden;fontFamily=Helvetica;fontSize=11;rounded=1;" parent="nrEiqh1vNegxxQYrQlBO-436" vertex="1">
                    <mxGeometry width="28.99999999999909" height="30" as="geometry">
                        <mxRectangle width="28.99999999999909" height="30" as="alternateBounds"/>
                    </mxGeometry>
                </mxCell>
                <mxCell id="nrEiqh1vNegxxQYrQlBO-438" value="credit_card_id" style="shape=partialRectangle;connectable=0;fillColor=none;top=0;left=0;bottom=0;right=0;align=left;spacingLeft=6;fontStyle=5;overflow=hidden;fontFamily=Helvetica;fontSize=11;rounded=1;" parent="nrEiqh1vNegxxQYrQlBO-436" vertex="1">
                    <mxGeometry x="28.99999999999909" width="131.0000000000009" height="30" as="geometry">
                        <mxRectangle width="131.0000000000009" height="30" as="alternateBounds"/>
                    </mxGeometry>
                </mxCell>
                <mxCell id="nrEiqh1vNegxxQYrQlBO-439" style="shape=tableRow;horizontal=0;startSize=0;swimlaneHead=0;swimlaneBody=0;fillColor=none;collapsible=0;dropTarget=0;points=[[0,0.5],[1,0.5]];portConstraint=eastwest;top=0;left=0;right=0;bottom=0;fontFamily=Helvetica;fontSize=11;rounded=1;" parent="nrEiqh1vNegxxQYrQlBO-435" vertex="1">
                    <mxGeometry y="60" width="160" height="30" as="geometry"/>
                </mxCell>
                <mxCell id="nrEiqh1vNegxxQYrQlBO-440" value="FK" style="shape=partialRectangle;connectable=0;fillColor=none;top=0;left=0;bottom=0;right=0;editable=1;overflow=hidden;fontFamily=Helvetica;fontSize=11;rounded=1;" parent="nrEiqh1vNegxxQYrQlBO-439" vertex="1">
                    <mxGeometry width="28.99999999999909" height="30" as="geometry">
                        <mxRectangle width="28.99999999999909" height="30" as="alternateBounds"/>
                    </mxGeometry>
                </mxCell>
                <mxCell id="nrEiqh1vNegxxQYrQlBO-441" value="payment_method_id" style="shape=partialRectangle;connectable=0;fillColor=none;top=0;left=0;bottom=0;right=0;align=left;spacingLeft=6;overflow=hidden;fontFamily=Helvetica;fontSize=11;rounded=1;" parent="nrEiqh1vNegxxQYrQlBO-439" vertex="1">
                    <mxGeometry x="28.99999999999909" width="131.0000000000009" height="30" as="geometry">
                        <mxRectangle width="131.0000000000009" height="30" as="alternateBounds"/>
                    </mxGeometry>
                </mxCell>
                <mxCell id="nrEiqh1vNegxxQYrQlBO-442" style="shape=tableRow;horizontal=0;startSize=0;swimlaneHead=0;swimlaneBody=0;fillColor=none;collapsible=0;dropTarget=0;points=[[0,0.5],[1,0.5]];portConstraint=eastwest;top=0;left=0;right=0;bottom=0;fontFamily=Helvetica;fontSize=11;rounded=1;" parent="nrEiqh1vNegxxQYrQlBO-435" vertex="1">
                    <mxGeometry y="90" width="160" height="30" as="geometry"/>
                </mxCell>
                <mxCell id="nrEiqh1vNegxxQYrQlBO-443" style="shape=partialRectangle;connectable=0;fillColor=none;top=0;left=0;bottom=0;right=0;editable=1;overflow=hidden;fontFamily=Helvetica;fontSize=11;rounded=1;" parent="nrEiqh1vNegxxQYrQlBO-442" vertex="1">
                    <mxGeometry width="28.99999999999909" height="30" as="geometry">
                        <mxRectangle width="28.99999999999909" height="30" as="alternateBounds"/>
                    </mxGeometry>
                </mxCell>
                <mxCell id="nrEiqh1vNegxxQYrQlBO-444" value="credit_card_name" style="shape=partialRectangle;connectable=0;fillColor=none;top=0;left=0;bottom=0;right=0;align=left;spacingLeft=6;overflow=hidden;fontFamily=Helvetica;fontSize=11;rounded=1;" parent="nrEiqh1vNegxxQYrQlBO-442" vertex="1">
                    <mxGeometry x="28.99999999999909" width="131.0000000000009" height="30" as="geometry">
                        <mxRectangle width="131.0000000000009" height="30" as="alternateBounds"/>
                    </mxGeometry>
                </mxCell>
                <mxCell id="nrEiqh1vNegxxQYrQlBO-445" style="shape=tableRow;horizontal=0;startSize=0;swimlaneHead=0;swimlaneBody=0;fillColor=none;collapsible=0;dropTarget=0;points=[[0,0.5],[1,0.5]];portConstraint=eastwest;top=0;left=0;right=0;bottom=0;fontFamily=Helvetica;fontSize=11;rounded=1;" parent="nrEiqh1vNegxxQYrQlBO-435" vertex="1">
                    <mxGeometry y="120" width="160" height="30" as="geometry"/>
                </mxCell>
                <mxCell id="nrEiqh1vNegxxQYrQlBO-446" style="shape=partialRectangle;connectable=0;fillColor=none;top=0;left=0;bottom=0;right=0;editable=1;overflow=hidden;fontFamily=Helvetica;fontSize=11;rounded=1;" parent="nrEiqh1vNegxxQYrQlBO-445" vertex="1">
                    <mxGeometry width="28.99999999999909" height="30" as="geometry">
                        <mxRectangle width="28.99999999999909" height="30" as="alternateBounds"/>
                    </mxGeometry>
                </mxCell>
                <mxCell id="nrEiqh1vNegxxQYrQlBO-447" value="credit_card_type" style="shape=partialRectangle;connectable=0;fillColor=none;top=0;left=0;bottom=0;right=0;align=left;spacingLeft=6;overflow=hidden;fontFamily=Helvetica;fontSize=11;rounded=1;" parent="nrEiqh1vNegxxQYrQlBO-445" vertex="1">
                    <mxGeometry x="28.99999999999909" width="131.0000000000009" height="30" as="geometry">
                        <mxRectangle width="131.0000000000009" height="30" as="alternateBounds"/>
                    </mxGeometry>
                </mxCell>
                <mxCell id="nrEiqh1vNegxxQYrQlBO-448" style="shape=tableRow;horizontal=0;startSize=0;swimlaneHead=0;swimlaneBody=0;fillColor=none;collapsible=0;dropTarget=0;points=[[0,0.5],[1,0.5]];portConstraint=eastwest;top=0;left=0;right=0;bottom=0;fontFamily=Helvetica;fontSize=11;rounded=1;" parent="nrEiqh1vNegxxQYrQlBO-435" vertex="1">
                    <mxGeometry y="150" width="160" height="30" as="geometry"/>
                </mxCell>
                <mxCell id="nrEiqh1vNegxxQYrQlBO-449" style="shape=partialRectangle;connectable=0;fillColor=none;top=0;left=0;bottom=0;right=0;editable=1;overflow=hidden;fontFamily=Helvetica;fontSize=11;rounded=1;" parent="nrEiqh1vNegxxQYrQlBO-448" vertex="1">
                    <mxGeometry width="28.99999999999909" height="30" as="geometry">
                        <mxRectangle width="28.99999999999909" height="30" as="alternateBounds"/>
                    </mxGeometry>
                </mxCell>
                <mxCell id="nrEiqh1vNegxxQYrQlBO-450" value="credit_card_no" style="shape=partialRectangle;connectable=0;fillColor=none;top=0;left=0;bottom=0;right=0;align=left;spacingLeft=6;overflow=hidden;fontFamily=Helvetica;fontSize=11;rounded=1;" parent="nrEiqh1vNegxxQYrQlBO-448" vertex="1">
                    <mxGeometry x="28.99999999999909" width="131.0000000000009" height="30" as="geometry">
                        <mxRectangle width="131.0000000000009" height="30" as="alternateBounds"/>
                    </mxGeometry>
                </mxCell>
                <mxCell id="nrEiqh1vNegxxQYrQlBO-458" style="shape=tableRow;horizontal=0;startSize=0;swimlaneHead=0;swimlaneBody=0;fillColor=none;collapsible=0;dropTarget=0;points=[[0,0.5],[1,0.5]];portConstraint=eastwest;top=0;left=0;right=0;bottom=0;fontFamily=Helvetica;fontSize=11;rounded=1;" parent="nrEiqh1vNegxxQYrQlBO-435" vertex="1">
                    <mxGeometry y="180" width="160" height="30" as="geometry"/>
                </mxCell>
                <mxCell id="nrEiqh1vNegxxQYrQlBO-459" style="shape=partialRectangle;connectable=0;fillColor=none;top=0;left=0;bottom=0;right=0;editable=1;overflow=hidden;fontFamily=Helvetica;fontSize=11;rounded=1;" parent="nrEiqh1vNegxxQYrQlBO-458" vertex="1">
                    <mxGeometry width="28.99999999999909" height="30" as="geometry">
                        <mxRectangle width="28.99999999999909" height="30" as="alternateBounds"/>
                    </mxGeometry>
                </mxCell>
                <mxCell id="nrEiqh1vNegxxQYrQlBO-460" value="credit_card_expiry_mm" style="shape=partialRectangle;connectable=0;fillColor=none;top=0;left=0;bottom=0;right=0;align=left;spacingLeft=6;overflow=hidden;fontFamily=Helvetica;fontSize=11;rounded=1;" parent="nrEiqh1vNegxxQYrQlBO-458" vertex="1">
                    <mxGeometry x="28.99999999999909" width="131.0000000000009" height="30" as="geometry">
                        <mxRectangle width="131.0000000000009" height="30" as="alternateBounds"/>
                    </mxGeometry>
                </mxCell>
                <mxCell id="CbRteJP2frnYpMNlqBMR-41" style="shape=tableRow;horizontal=0;startSize=0;swimlaneHead=0;swimlaneBody=0;fillColor=none;collapsible=0;dropTarget=0;points=[[0,0.5],[1,0.5]];portConstraint=eastwest;top=0;left=0;right=0;bottom=0;fontFamily=Helvetica;fontSize=11;rounded=1;" parent="nrEiqh1vNegxxQYrQlBO-435" vertex="1">
                    <mxGeometry y="210" width="160" height="30" as="geometry"/>
                </mxCell>
                <mxCell id="CbRteJP2frnYpMNlqBMR-42" style="shape=partialRectangle;connectable=0;fillColor=none;top=0;left=0;bottom=0;right=0;editable=1;overflow=hidden;fontFamily=Helvetica;fontSize=11;rounded=1;" parent="CbRteJP2frnYpMNlqBMR-41" vertex="1">
                    <mxGeometry width="28.99999999999909" height="30" as="geometry">
                        <mxRectangle width="28.99999999999909" height="30" as="alternateBounds"/>
                    </mxGeometry>
                </mxCell>
                <mxCell id="CbRteJP2frnYpMNlqBMR-43" value="credit_card_expiry_yy" style="shape=partialRectangle;connectable=0;fillColor=none;top=0;left=0;bottom=0;right=0;align=left;spacingLeft=6;overflow=hidden;fontFamily=Helvetica;fontSize=11;rounded=1;" parent="CbRteJP2frnYpMNlqBMR-41" vertex="1">
                    <mxGeometry x="28.99999999999909" width="131.0000000000009" height="30" as="geometry">
                        <mxRectangle width="131.0000000000009" height="30" as="alternateBounds"/>
                    </mxGeometry>
                </mxCell>
                <mxCell id="nrEiqh1vNegxxQYrQlBO-457" value="" style="edgeStyle=orthogonalEdgeStyle;fontSize=11;html=1;endArrow=ERmandOne;startArrow=ERmandOne;rounded=1;fontFamily=Helvetica;jumpStyle=arc;" parent="1" source="nrEiqh1vNegxxQYrQlBO-454" target="nrEiqh1vNegxxQYrQlBO-526" edge="1">
                    <mxGeometry width="100" height="100" relative="1" as="geometry">
                        <mxPoint x="-163" y="-1622.9999999999998" as="sourcePoint"/>
                        <mxPoint x="-163" y="-893" as="targetPoint"/>
                        <Array as="points">
                            <mxPoint x="200" y="-555"/>
                            <mxPoint x="200" y="-242"/>
                        </Array>
                    </mxGeometry>
                </mxCell>
                <mxCell id="nrEiqh1vNegxxQYrQlBO-465" value="" style="edgeStyle=orthogonalEdgeStyle;fontSize=11;html=1;endArrow=ERoneToMany;startArrow=ERmandOne;rounded=1;fontFamily=Helvetica;entryX=1;entryY=0.5;entryDx=0;entryDy=0;" parent="1" source="nrEiqh1vNegxxQYrQlBO-412" target="nrEiqh1vNegxxQYrQlBO-222" edge="1">
                    <mxGeometry width="100" height="100" relative="1" as="geometry">
                        <mxPoint x="-244" y="18" as="sourcePoint"/>
                        <mxPoint x="-144" y="-82" as="targetPoint"/>
                    </mxGeometry>
                </mxCell>
                <mxCell id="nrEiqh1vNegxxQYrQlBO-482" value="" style="edgeStyle=orthogonalEdgeStyle;fontSize=11;html=1;endArrow=ERmandOne;startArrow=ERmandOne;rounded=1;fontFamily=Helvetica;exitX=1;exitY=0.5;exitDx=0;exitDy=0;" parent="1" source="nrEiqh1vNegxxQYrQlBO-467" target="nrEiqh1vNegxxQYrQlBO-179" edge="1">
                    <mxGeometry width="100" height="100" relative="1" as="geometry">
                        <mxPoint x="-630" y="249" as="sourcePoint"/>
                        <mxPoint x="-145" y="207.99999999999977" as="targetPoint"/>
                    </mxGeometry>
                </mxCell>
                <mxCell id="nrEiqh1vNegxxQYrQlBO-483" value="" style="edgeStyle=orthogonalEdgeStyle;fontSize=11;html=1;endArrow=ERoneToMany;startArrow=ERmandOne;rounded=1;fontFamily=Helvetica;jumpStyle=arc;startFill=0;endFill=0;" parent="1" source="nrEiqh1vNegxxQYrQlBO-467" target="nrEiqh1vNegxxQYrQlBO-231" edge="1">
                    <mxGeometry width="100" height="100" relative="1" as="geometry">
                        <mxPoint x="-752.9999999999995" y="84.99999999999955" as="sourcePoint"/>
                        <mxPoint x="-314" y="-55" as="targetPoint"/>
                        <Array as="points">
                            <mxPoint x="-700" y="-91"/>
                            <mxPoint x="-700" y="-170"/>
                            <mxPoint x="-490" y="-170"/>
                            <mxPoint x="-490" y="-315"/>
                        </Array>
                    </mxGeometry>
                </mxCell>
                <mxCell id="nrEiqh1vNegxxQYrQlBO-506" value="Bank_Account" style="shape=table;startSize=30;container=1;collapsible=1;childLayout=tableLayout;fixedRows=1;rowLines=0;fontStyle=1;align=center;resizeLast=1;fontFamily=Helvetica;fontSize=11;rounded=1;" parent="1" vertex="1">
                    <mxGeometry x="258" y="-449" width="160" height="150" as="geometry"/>
                </mxCell>
                <mxCell id="nrEiqh1vNegxxQYrQlBO-507" style="shape=tableRow;horizontal=0;startSize=0;swimlaneHead=0;swimlaneBody=0;fillColor=none;collapsible=0;dropTarget=0;points=[[0,0.5],[1,0.5]];portConstraint=eastwest;top=0;left=0;right=0;bottom=1;fontFamily=Helvetica;fontSize=11;rounded=1;" parent="nrEiqh1vNegxxQYrQlBO-506" vertex="1">
                    <mxGeometry y="30" width="160" height="30" as="geometry"/>
                </mxCell>
                <mxCell id="nrEiqh1vNegxxQYrQlBO-508" value="PK" style="shape=partialRectangle;connectable=0;fillColor=none;top=0;left=0;bottom=0;right=0;fontStyle=1;overflow=hidden;fontFamily=Helvetica;fontSize=11;rounded=1;" parent="nrEiqh1vNegxxQYrQlBO-507" vertex="1">
                    <mxGeometry width="30" height="30" as="geometry">
                        <mxRectangle width="30" height="30" as="alternateBounds"/>
                    </mxGeometry>
                </mxCell>
                <mxCell id="nrEiqh1vNegxxQYrQlBO-509" value="bank_account_id" style="shape=partialRectangle;connectable=0;fillColor=none;top=0;left=0;bottom=0;right=0;align=left;spacingLeft=6;fontStyle=5;overflow=hidden;fontFamily=Helvetica;fontSize=11;rounded=1;" parent="nrEiqh1vNegxxQYrQlBO-507" vertex="1">
                    <mxGeometry x="30" width="130" height="30" as="geometry">
                        <mxRectangle width="130" height="30" as="alternateBounds"/>
                    </mxGeometry>
                </mxCell>
                <mxCell id="nrEiqh1vNegxxQYrQlBO-510" style="shape=tableRow;horizontal=0;startSize=0;swimlaneHead=0;swimlaneBody=0;fillColor=none;collapsible=0;dropTarget=0;points=[[0,0.5],[1,0.5]];portConstraint=eastwest;top=0;left=0;right=0;bottom=0;fontFamily=Helvetica;fontSize=11;rounded=1;" parent="nrEiqh1vNegxxQYrQlBO-506" vertex="1">
                    <mxGeometry y="60" width="160" height="30" as="geometry"/>
                </mxCell>
                <mxCell id="nrEiqh1vNegxxQYrQlBO-511" value="FK" style="shape=partialRectangle;connectable=0;fillColor=none;top=0;left=0;bottom=0;right=0;editable=1;overflow=hidden;fontFamily=Helvetica;fontSize=11;rounded=1;" parent="nrEiqh1vNegxxQYrQlBO-510" vertex="1">
                    <mxGeometry width="30" height="30" as="geometry">
                        <mxRectangle width="30" height="30" as="alternateBounds"/>
                    </mxGeometry>
                </mxCell>
                <mxCell id="nrEiqh1vNegxxQYrQlBO-512" value="payment_method_id" style="shape=partialRectangle;connectable=0;fillColor=none;top=0;left=0;bottom=0;right=0;align=left;spacingLeft=6;overflow=hidden;fontFamily=Helvetica;fontSize=11;rounded=1;" parent="nrEiqh1vNegxxQYrQlBO-510" vertex="1">
                    <mxGeometry x="30" width="130" height="30" as="geometry">
                        <mxRectangle width="130" height="30" as="alternateBounds"/>
                    </mxGeometry>
                </mxCell>
                <mxCell id="nrEiqh1vNegxxQYrQlBO-513" style="shape=tableRow;horizontal=0;startSize=0;swimlaneHead=0;swimlaneBody=0;fillColor=none;collapsible=0;dropTarget=0;points=[[0,0.5],[1,0.5]];portConstraint=eastwest;top=0;left=0;right=0;bottom=0;fontFamily=Helvetica;fontSize=11;rounded=1;" parent="nrEiqh1vNegxxQYrQlBO-506" vertex="1">
                    <mxGeometry y="90" width="160" height="30" as="geometry"/>
                </mxCell>
                <mxCell id="nrEiqh1vNegxxQYrQlBO-514" style="shape=partialRectangle;connectable=0;fillColor=none;top=0;left=0;bottom=0;right=0;editable=1;overflow=hidden;fontFamily=Helvetica;fontSize=11;rounded=1;" parent="nrEiqh1vNegxxQYrQlBO-513" vertex="1">
                    <mxGeometry width="30" height="30" as="geometry">
                        <mxRectangle width="30" height="30" as="alternateBounds"/>
                    </mxGeometry>
                </mxCell>
                <mxCell id="nrEiqh1vNegxxQYrQlBO-515" value="bank_account_name" style="shape=partialRectangle;connectable=0;fillColor=none;top=0;left=0;bottom=0;right=0;align=left;spacingLeft=6;overflow=hidden;fontFamily=Helvetica;fontSize=11;rounded=1;" parent="nrEiqh1vNegxxQYrQlBO-513" vertex="1">
                    <mxGeometry x="30" width="130" height="30" as="geometry">
                        <mxRectangle width="130" height="30" as="alternateBounds"/>
                    </mxGeometry>
                </mxCell>
                <mxCell id="nrEiqh1vNegxxQYrQlBO-516" style="shape=tableRow;horizontal=0;startSize=0;swimlaneHead=0;swimlaneBody=0;fillColor=none;collapsible=0;dropTarget=0;points=[[0,0.5],[1,0.5]];portConstraint=eastwest;top=0;left=0;right=0;bottom=0;fontFamily=Helvetica;fontSize=11;rounded=1;" parent="nrEiqh1vNegxxQYrQlBO-506" vertex="1">
                    <mxGeometry y="120" width="160" height="30" as="geometry"/>
                </mxCell>
                <mxCell id="nrEiqh1vNegxxQYrQlBO-517" style="shape=partialRectangle;connectable=0;fillColor=none;top=0;left=0;bottom=0;right=0;editable=1;overflow=hidden;fontFamily=Helvetica;fontSize=11;rounded=1;" parent="nrEiqh1vNegxxQYrQlBO-516" vertex="1">
                    <mxGeometry width="30" height="30" as="geometry">
                        <mxRectangle width="30" height="30" as="alternateBounds"/>
                    </mxGeometry>
                </mxCell>
                <mxCell id="nrEiqh1vNegxxQYrQlBO-518" value="bank_account_IBAN" style="shape=partialRectangle;connectable=0;fillColor=none;top=0;left=0;bottom=0;right=0;align=left;spacingLeft=6;overflow=hidden;fontFamily=Helvetica;fontSize=11;rounded=1;" parent="nrEiqh1vNegxxQYrQlBO-516" vertex="1">
                    <mxGeometry x="30" width="130" height="30" as="geometry">
                        <mxRectangle width="130" height="30" as="alternateBounds"/>
                    </mxGeometry>
                </mxCell>
                <mxCell id="nrEiqh1vNegxxQYrQlBO-525" value="Payment_Method" style="shape=table;startSize=30;container=1;collapsible=1;childLayout=tableLayout;fixedRows=1;rowLines=0;fontStyle=1;align=center;resizeLast=1;fontFamily=Helvetica;fontSize=11;rounded=1;" parent="1" vertex="1">
                    <mxGeometry x="19" y="-287" width="150" height="90" as="geometry"/>
                </mxCell>
                <mxCell id="nrEiqh1vNegxxQYrQlBO-526" style="shape=tableRow;horizontal=0;startSize=0;swimlaneHead=0;swimlaneBody=0;fillColor=none;collapsible=0;dropTarget=0;points=[[0,0.5],[1,0.5]];portConstraint=eastwest;top=0;left=0;right=0;bottom=1;fontFamily=Helvetica;fontSize=11;rounded=1;" parent="nrEiqh1vNegxxQYrQlBO-525" vertex="1">
                    <mxGeometry y="30" width="150" height="30" as="geometry"/>
                </mxCell>
                <mxCell id="nrEiqh1vNegxxQYrQlBO-527" value="PK" style="shape=partialRectangle;connectable=0;fillColor=none;top=0;left=0;bottom=0;right=0;fontStyle=1;overflow=hidden;fontFamily=Helvetica;fontSize=11;rounded=1;" parent="nrEiqh1vNegxxQYrQlBO-526" vertex="1">
                    <mxGeometry width="30" height="30" as="geometry">
                        <mxRectangle width="30" height="30" as="alternateBounds"/>
                    </mxGeometry>
                </mxCell>
                <mxCell id="nrEiqh1vNegxxQYrQlBO-528" value="payment_method_id" style="shape=partialRectangle;connectable=0;fillColor=none;top=0;left=0;bottom=0;right=0;align=left;spacingLeft=6;fontStyle=5;overflow=hidden;fontFamily=Helvetica;fontSize=11;rounded=1;" parent="nrEiqh1vNegxxQYrQlBO-526" vertex="1">
                    <mxGeometry x="30" width="120" height="30" as="geometry">
                        <mxRectangle width="120" height="30" as="alternateBounds"/>
                    </mxGeometry>
                </mxCell>
                <mxCell id="nrEiqh1vNegxxQYrQlBO-532" style="shape=tableRow;horizontal=0;startSize=0;swimlaneHead=0;swimlaneBody=0;fillColor=none;collapsible=0;dropTarget=0;points=[[0,0.5],[1,0.5]];portConstraint=eastwest;top=0;left=0;right=0;bottom=0;fontFamily=Helvetica;fontSize=11;rounded=1;" parent="nrEiqh1vNegxxQYrQlBO-525" vertex="1">
                    <mxGeometry y="60" width="150" height="30" as="geometry"/>
                </mxCell>
                <mxCell id="nrEiqh1vNegxxQYrQlBO-533" value="FK" style="shape=partialRectangle;connectable=0;fillColor=none;top=0;left=0;bottom=0;right=0;editable=1;overflow=hidden;fontFamily=Helvetica;fontSize=11;rounded=1;" parent="nrEiqh1vNegxxQYrQlBO-532" vertex="1">
                    <mxGeometry width="30" height="30" as="geometry">
                        <mxRectangle width="30" height="30" as="alternateBounds"/>
                    </mxGeometry>
                </mxCell>
                <mxCell id="nrEiqh1vNegxxQYrQlBO-534" value="user_id" style="shape=partialRectangle;connectable=0;fillColor=none;top=0;left=0;bottom=0;right=0;align=left;spacingLeft=6;overflow=hidden;fontFamily=Helvetica;fontSize=11;rounded=1;" parent="nrEiqh1vNegxxQYrQlBO-532" vertex="1">
                    <mxGeometry x="30" width="120" height="30" as="geometry">
                        <mxRectangle width="120" height="30" as="alternateBounds"/>
                    </mxGeometry>
                </mxCell>
                <mxCell id="nrEiqh1vNegxxQYrQlBO-538" value="" style="edgeStyle=orthogonalEdgeStyle;fontSize=11;html=1;endArrow=ERoneToMany;startArrow=ERmandOne;rounded=1;fontFamily=Helvetica;jumpStyle=arc;startFill=0;exitX=1;exitY=0.5;exitDx=0;exitDy=0;" parent="1" source="nrEiqh1vNegxxQYrQlBO-121" target="nrEiqh1vNegxxQYrQlBO-532" edge="1">
                    <mxGeometry width="100" height="100" relative="1" as="geometry">
                        <mxPoint x="218" y="-68" as="sourcePoint"/>
                        <mxPoint x="300" y="-620" as="targetPoint"/>
                    </mxGeometry>
                </mxCell>
                <mxCell id="nrEiqh1vNegxxQYrQlBO-539" value="" style="edgeStyle=orthogonalEdgeStyle;fontSize=11;html=1;endArrow=ERmandOne;startArrow=ERmandOne;rounded=1;fontFamily=Helvetica;jumpStyle=arc;" parent="1" source="nrEiqh1vNegxxQYrQlBO-526" target="nrEiqh1vNegxxQYrQlBO-510" edge="1">
                    <mxGeometry width="100" height="100" relative="1" as="geometry">
                        <mxPoint x="-79" y="-1540" as="sourcePoint"/>
                        <mxPoint x="21" y="-1640" as="targetPoint"/>
                    </mxGeometry>
                </mxCell>
                <mxCell id="nrEiqh1vNegxxQYrQlBO-540" value="" style="edgeStyle=orthogonalEdgeStyle;fontSize=11;html=1;endArrow=ERmandOne;startArrow=ERmandOne;rounded=1;fontFamily=Helvetica;jumpStyle=arc;" parent="1" source="nrEiqh1vNegxxQYrQlBO-439" target="nrEiqh1vNegxxQYrQlBO-526" edge="1">
                    <mxGeometry width="100" height="100" relative="1" as="geometry">
                        <mxPoint x="-119" y="-1520" as="sourcePoint"/>
                        <mxPoint x="-19" y="-1620" as="targetPoint"/>
                    </mxGeometry>
                </mxCell>
                <mxCell id="nrEiqh1vNegxxQYrQlBO-560" value="" style="edgeStyle=orthogonalEdgeStyle;fontSize=11;html=1;endArrow=ERzeroToMany;startArrow=ERmandOne;rounded=1;fontFamily=Helvetica;jumpStyle=arc;endFill=0;" parent="1" source="nrEiqh1vNegxxQYrQlBO-121" target="nrEiqh1vNegxxQYrQlBO-545" edge="1">
                    <mxGeometry width="100" height="100" relative="1" as="geometry">
                        <mxPoint x="-136" y="-136" as="sourcePoint"/>
                        <mxPoint x="-36" y="-236" as="targetPoint"/>
                    </mxGeometry>
                </mxCell>
                <mxCell id="nrEiqh1vNegxxQYrQlBO-561" value="" style="edgeStyle=orthogonalEdgeStyle;fontSize=11;html=1;endArrow=ERzeroToMany;startArrow=ERmandOne;rounded=1;fontFamily=Helvetica;jumpStyle=arc;endFill=0;" parent="1" source="nrEiqh1vNegxxQYrQlBO-121" target="nrEiqh1vNegxxQYrQlBO-548" edge="1">
                    <mxGeometry width="100" height="100" relative="1" as="geometry">
                        <mxPoint x="-106" y="160" as="sourcePoint"/>
                        <mxPoint x="-126" y="-451" as="targetPoint"/>
                    </mxGeometry>
                </mxCell>
                <mxCell id="nrEiqh1vNegxxQYrQlBO-562" value="" style="edgeStyle=orthogonalEdgeStyle;fontSize=11;html=1;endArrow=ERmandOne;startArrow=ERzeroToMany;rounded=1;startFill=0;fontFamily=Helvetica;jumpStyle=arc;" parent="1" source="nrEiqh1vNegxxQYrQlBO-209" target="nrEiqh1vNegxxQYrQlBO-121" edge="1">
                    <mxGeometry width="100" height="100" relative="1" as="geometry">
                        <mxPoint x="-244" y="-204" as="sourcePoint"/>
                        <mxPoint x="-144" y="-304" as="targetPoint"/>
                    </mxGeometry>
                </mxCell>
                <mxCell id="nrEiqh1vNegxxQYrQlBO-563" value="" style="edgeStyle=orthogonalEdgeStyle;fontSize=11;html=1;endArrow=ERmandOne;startArrow=ERzeroToMany;rounded=1;startFill=0;fontFamily=Helvetica;jumpStyle=arc;" parent="1" source="nrEiqh1vNegxxQYrQlBO-206" target="nrEiqh1vNegxxQYrQlBO-121" edge="1">
                    <mxGeometry width="100" height="100" relative="1" as="geometry">
                        <mxPoint x="-614" y="-29" as="sourcePoint"/>
                        <mxPoint x="-324" y="-97.9333333333334" as="targetPoint"/>
                        <Array as="points">
                            <mxPoint x="-330" y="239"/>
                            <mxPoint x="-330" y="-212"/>
                        </Array>
                    </mxGeometry>
                </mxCell>
                <mxCell id="nrEiqh1vNegxxQYrQlBO-305" value="Commission" style="shape=table;startSize=30;container=1;collapsible=1;childLayout=tableLayout;fixedRows=1;rowLines=0;fontStyle=1;align=center;resizeLast=1;fontFamily=Helvetica;fontSize=11;rounded=1;" parent="1" vertex="1">
                    <mxGeometry x="-674" y="-722" width="150" height="120" as="geometry"/>
                </mxCell>
                <mxCell id="nrEiqh1vNegxxQYrQlBO-306" style="shape=tableRow;horizontal=0;startSize=0;swimlaneHead=0;swimlaneBody=0;fillColor=none;collapsible=0;dropTarget=0;points=[[0,0.5],[1,0.5]];portConstraint=eastwest;top=0;left=0;right=0;bottom=1;fontFamily=Helvetica;fontSize=11;rounded=1;" parent="nrEiqh1vNegxxQYrQlBO-305" vertex="1">
                    <mxGeometry y="30" width="150" height="30" as="geometry"/>
                </mxCell>
                <mxCell id="nrEiqh1vNegxxQYrQlBO-307" value="PK" style="shape=partialRectangle;connectable=0;fillColor=none;top=0;left=0;bottom=0;right=0;fontStyle=1;overflow=hidden;fontFamily=Helvetica;fontSize=11;rounded=1;" parent="nrEiqh1vNegxxQYrQlBO-306" vertex="1">
                    <mxGeometry width="30" height="30" as="geometry">
                        <mxRectangle width="30" height="30" as="alternateBounds"/>
                    </mxGeometry>
                </mxCell>
                <mxCell id="nrEiqh1vNegxxQYrQlBO-308" value="commission_id" style="shape=partialRectangle;connectable=0;fillColor=none;top=0;left=0;bottom=0;right=0;align=left;spacingLeft=6;fontStyle=5;overflow=hidden;fontFamily=Helvetica;fontSize=11;rounded=1;" parent="nrEiqh1vNegxxQYrQlBO-306" vertex="1">
                    <mxGeometry x="30" width="120" height="30" as="geometry">
                        <mxRectangle width="120" height="30" as="alternateBounds"/>
                    </mxGeometry>
                </mxCell>
                <mxCell id="nrEiqh1vNegxxQYrQlBO-309" style="shape=tableRow;horizontal=0;startSize=0;swimlaneHead=0;swimlaneBody=0;fillColor=none;collapsible=0;dropTarget=0;points=[[0,0.5],[1,0.5]];portConstraint=eastwest;top=0;left=0;right=0;bottom=0;fontFamily=Helvetica;fontSize=11;rounded=1;" parent="nrEiqh1vNegxxQYrQlBO-305" vertex="1">
                    <mxGeometry y="60" width="150" height="30" as="geometry"/>
                </mxCell>
                <mxCell id="nrEiqh1vNegxxQYrQlBO-310" value="FK" style="shape=partialRectangle;connectable=0;fillColor=none;top=0;left=0;bottom=0;right=0;editable=1;overflow=hidden;fontFamily=Helvetica;fontSize=11;rounded=1;" parent="nrEiqh1vNegxxQYrQlBO-309" vertex="1">
                    <mxGeometry width="30" height="30" as="geometry">
                        <mxRectangle width="30" height="30" as="alternateBounds"/>
                    </mxGeometry>
                </mxCell>
                <mxCell id="nrEiqh1vNegxxQYrQlBO-311" value="property_id" style="shape=partialRectangle;connectable=0;fillColor=none;top=0;left=0;bottom=0;right=0;align=left;spacingLeft=6;overflow=hidden;fontFamily=Helvetica;fontSize=11;rounded=1;" parent="nrEiqh1vNegxxQYrQlBO-309" vertex="1">
                    <mxGeometry x="30" width="120" height="30" as="geometry">
                        <mxRectangle width="120" height="30" as="alternateBounds"/>
                    </mxGeometry>
                </mxCell>
                <mxCell id="nrEiqh1vNegxxQYrQlBO-315" style="shape=tableRow;horizontal=0;startSize=0;swimlaneHead=0;swimlaneBody=0;fillColor=none;collapsible=0;dropTarget=0;points=[[0,0.5],[1,0.5]];portConstraint=eastwest;top=0;left=0;right=0;bottom=0;fontFamily=Helvetica;fontSize=11;rounded=1;" parent="nrEiqh1vNegxxQYrQlBO-305" vertex="1">
                    <mxGeometry y="90" width="150" height="30" as="geometry"/>
                </mxCell>
                <mxCell id="nrEiqh1vNegxxQYrQlBO-316" style="shape=partialRectangle;connectable=0;fillColor=none;top=0;left=0;bottom=0;right=0;editable=1;overflow=hidden;fontFamily=Helvetica;fontSize=11;rounded=1;" parent="nrEiqh1vNegxxQYrQlBO-315" vertex="1">
                    <mxGeometry width="30" height="30" as="geometry">
                        <mxRectangle width="30" height="30" as="alternateBounds"/>
                    </mxGeometry>
                </mxCell>
                <mxCell id="nrEiqh1vNegxxQYrQlBO-317" value="commission_rate" style="shape=partialRectangle;connectable=0;fillColor=none;top=0;left=0;bottom=0;right=0;align=left;spacingLeft=6;overflow=hidden;fontFamily=Helvetica;fontSize=11;rounded=1;" parent="nrEiqh1vNegxxQYrQlBO-315" vertex="1">
                    <mxGeometry x="30" width="120" height="30" as="geometry">
                        <mxRectangle width="120" height="30" as="alternateBounds"/>
                    </mxGeometry>
                </mxCell>
                <mxCell id="nrEiqh1vNegxxQYrQlBO-120" value="User" style="shape=table;startSize=30;container=1;collapsible=1;childLayout=tableLayout;fixedRows=1;rowLines=0;fontStyle=1;align=center;resizeLast=1;fontFamily=Helvetica;fontSize=11;rounded=1;" parent="1" vertex="1">
                    <mxGeometry x="-201" y="-257" width="150" height="300" as="geometry"/>
                </mxCell>
                <mxCell id="nrEiqh1vNegxxQYrQlBO-121" value="" style="shape=tableRow;horizontal=0;startSize=0;swimlaneHead=0;swimlaneBody=0;fillColor=none;collapsible=0;dropTarget=0;points=[[0,0.5],[1,0.5]];portConstraint=eastwest;top=0;left=0;right=0;bottom=1;fontFamily=Helvetica;fontSize=11;rounded=1;" parent="nrEiqh1vNegxxQYrQlBO-120" vertex="1">
                    <mxGeometry y="30" width="150" height="30" as="geometry"/>
                </mxCell>
                <mxCell id="nrEiqh1vNegxxQYrQlBO-122" value="PK" style="shape=partialRectangle;connectable=0;fillColor=none;top=0;left=0;bottom=0;right=0;fontStyle=1;overflow=hidden;fontFamily=Helvetica;fontSize=11;rounded=1;" parent="nrEiqh1vNegxxQYrQlBO-121" vertex="1">
                    <mxGeometry width="30" height="30" as="geometry">
                        <mxRectangle width="30" height="30" as="alternateBounds"/>
                    </mxGeometry>
                </mxCell>
                <mxCell id="nrEiqh1vNegxxQYrQlBO-123" value="user_id" style="shape=partialRectangle;connectable=0;fillColor=none;top=0;left=0;bottom=0;right=0;align=left;spacingLeft=6;fontStyle=5;overflow=hidden;fontFamily=Helvetica;fontSize=11;rounded=1;" parent="nrEiqh1vNegxxQYrQlBO-121" vertex="1">
                    <mxGeometry x="30" width="120" height="30" as="geometry">
                        <mxRectangle width="120" height="30" as="alternateBounds"/>
                    </mxGeometry>
                </mxCell>
                <mxCell id="nrEiqh1vNegxxQYrQlBO-124" value="" style="shape=tableRow;horizontal=0;startSize=0;swimlaneHead=0;swimlaneBody=0;fillColor=none;collapsible=0;dropTarget=0;points=[[0,0.5],[1,0.5]];portConstraint=eastwest;top=0;left=0;right=0;bottom=0;fontFamily=Helvetica;fontSize=11;rounded=1;" parent="nrEiqh1vNegxxQYrQlBO-120" vertex="1">
                    <mxGeometry y="60" width="150" height="30" as="geometry"/>
                </mxCell>
                <mxCell id="nrEiqh1vNegxxQYrQlBO-125" value="" style="shape=partialRectangle;connectable=0;fillColor=none;top=0;left=0;bottom=0;right=0;editable=1;overflow=hidden;fontFamily=Helvetica;fontSize=11;rounded=1;" parent="nrEiqh1vNegxxQYrQlBO-124" vertex="1">
                    <mxGeometry width="30" height="30" as="geometry">
                        <mxRectangle width="30" height="30" as="alternateBounds"/>
                    </mxGeometry>
                </mxCell>
                <mxCell id="nrEiqh1vNegxxQYrQlBO-126" value="user_firstname" style="shape=partialRectangle;connectable=0;fillColor=none;top=0;left=0;bottom=0;right=0;align=left;spacingLeft=6;overflow=hidden;fontFamily=Helvetica;fontSize=11;rounded=1;" parent="nrEiqh1vNegxxQYrQlBO-124" vertex="1">
                    <mxGeometry x="30" width="120" height="30" as="geometry">
                        <mxRectangle width="120" height="30" as="alternateBounds"/>
                    </mxGeometry>
                </mxCell>
                <mxCell id="nrEiqh1vNegxxQYrQlBO-127" value="" style="shape=tableRow;horizontal=0;startSize=0;swimlaneHead=0;swimlaneBody=0;fillColor=none;collapsible=0;dropTarget=0;points=[[0,0.5],[1,0.5]];portConstraint=eastwest;top=0;left=0;right=0;bottom=0;fontFamily=Helvetica;fontSize=11;rounded=1;" parent="nrEiqh1vNegxxQYrQlBO-120" vertex="1">
                    <mxGeometry y="90" width="150" height="30" as="geometry"/>
                </mxCell>
                <mxCell id="nrEiqh1vNegxxQYrQlBO-128" value="" style="shape=partialRectangle;connectable=0;fillColor=none;top=0;left=0;bottom=0;right=0;editable=1;overflow=hidden;fontFamily=Helvetica;fontSize=11;rounded=1;" parent="nrEiqh1vNegxxQYrQlBO-127" vertex="1">
                    <mxGeometry width="30" height="30" as="geometry">
                        <mxRectangle width="30" height="30" as="alternateBounds"/>
                    </mxGeometry>
                </mxCell>
                <mxCell id="nrEiqh1vNegxxQYrQlBO-129" value="user_lastname" style="shape=partialRectangle;connectable=0;fillColor=none;top=0;left=0;bottom=0;right=0;align=left;spacingLeft=6;overflow=hidden;fontFamily=Helvetica;fontSize=11;rounded=1;" parent="nrEiqh1vNegxxQYrQlBO-127" vertex="1">
                    <mxGeometry x="30" width="120" height="30" as="geometry">
                        <mxRectangle width="120" height="30" as="alternateBounds"/>
                    </mxGeometry>
                </mxCell>
                <mxCell id="nrEiqh1vNegxxQYrQlBO-133" style="shape=tableRow;horizontal=0;startSize=0;swimlaneHead=0;swimlaneBody=0;fillColor=none;collapsible=0;dropTarget=0;points=[[0,0.5],[1,0.5]];portConstraint=eastwest;top=0;left=0;right=0;bottom=0;fontFamily=Helvetica;fontSize=11;rounded=1;" parent="nrEiqh1vNegxxQYrQlBO-120" vertex="1">
                    <mxGeometry y="120" width="150" height="30" as="geometry"/>
                </mxCell>
                <mxCell id="nrEiqh1vNegxxQYrQlBO-134" style="shape=partialRectangle;connectable=0;fillColor=none;top=0;left=0;bottom=0;right=0;editable=1;overflow=hidden;fontFamily=Helvetica;fontSize=11;rounded=1;" parent="nrEiqh1vNegxxQYrQlBO-133" vertex="1">
                    <mxGeometry width="30" height="30" as="geometry">
                        <mxRectangle width="30" height="30" as="alternateBounds"/>
                    </mxGeometry>
                </mxCell>
                <mxCell id="nrEiqh1vNegxxQYrQlBO-135" value="user_phone_number" style="shape=partialRectangle;connectable=0;fillColor=none;top=0;left=0;bottom=0;right=0;align=left;spacingLeft=6;overflow=hidden;fontFamily=Helvetica;fontSize=11;rounded=1;fontStyle=0" parent="nrEiqh1vNegxxQYrQlBO-133" vertex="1">
                    <mxGeometry x="30" width="120" height="30" as="geometry">
                        <mxRectangle width="120" height="30" as="alternateBounds"/>
                    </mxGeometry>
                </mxCell>
                <mxCell id="nrEiqh1vNegxxQYrQlBO-179" style="shape=tableRow;horizontal=0;startSize=0;swimlaneHead=0;swimlaneBody=0;fillColor=none;collapsible=0;dropTarget=0;points=[[0,0.5],[1,0.5]];portConstraint=eastwest;top=0;left=0;right=0;bottom=0;fontFamily=Helvetica;fontSize=11;rounded=1;" parent="nrEiqh1vNegxxQYrQlBO-120" vertex="1">
                    <mxGeometry y="150" width="150" height="30" as="geometry"/>
                </mxCell>
                <mxCell id="nrEiqh1vNegxxQYrQlBO-180" value="FK" style="shape=partialRectangle;connectable=0;fillColor=none;top=0;left=0;bottom=0;right=0;editable=1;overflow=hidden;fontFamily=Helvetica;fontSize=11;rounded=1;" parent="nrEiqh1vNegxxQYrQlBO-179" vertex="1">
                    <mxGeometry width="30" height="30" as="geometry">
                        <mxRectangle width="30" height="30" as="alternateBounds"/>
                    </mxGeometry>
                </mxCell>
                <mxCell id="nrEiqh1vNegxxQYrQlBO-181" value="address_id" style="shape=partialRectangle;connectable=0;fillColor=none;top=0;left=0;bottom=0;right=0;align=left;spacingLeft=6;overflow=hidden;fontFamily=Helvetica;fontSize=11;rounded=1;" parent="nrEiqh1vNegxxQYrQlBO-179" vertex="1">
                    <mxGeometry x="30" width="120" height="30" as="geometry">
                        <mxRectangle width="120" height="30" as="alternateBounds"/>
                    </mxGeometry>
                </mxCell>
                <mxCell id="nrEiqh1vNegxxQYrQlBO-139" style="shape=tableRow;horizontal=0;startSize=0;swimlaneHead=0;swimlaneBody=0;fillColor=none;collapsible=0;dropTarget=0;points=[[0,0.5],[1,0.5]];portConstraint=eastwest;top=0;left=0;right=0;bottom=0;fontFamily=Helvetica;fontSize=11;rounded=1;" parent="nrEiqh1vNegxxQYrQlBO-120" vertex="1">
                    <mxGeometry y="180" width="150" height="30" as="geometry"/>
                </mxCell>
                <mxCell id="nrEiqh1vNegxxQYrQlBO-140" style="shape=partialRectangle;connectable=0;fillColor=none;top=0;left=0;bottom=0;right=0;editable=1;overflow=hidden;fontFamily=Helvetica;fontSize=11;rounded=1;" parent="nrEiqh1vNegxxQYrQlBO-139" vertex="1">
                    <mxGeometry width="30" height="30" as="geometry">
                        <mxRectangle width="30" height="30" as="alternateBounds"/>
                    </mxGeometry>
                </mxCell>
                <mxCell id="nrEiqh1vNegxxQYrQlBO-141" value="user_photo_url" style="shape=partialRectangle;connectable=0;fillColor=none;top=0;left=0;bottom=0;right=0;align=left;spacingLeft=6;overflow=hidden;fontFamily=Helvetica;fontSize=11;rounded=1;fontStyle=0" parent="nrEiqh1vNegxxQYrQlBO-139" vertex="1">
                    <mxGeometry x="30" width="120" height="30" as="geometry">
                        <mxRectangle width="120" height="30" as="alternateBounds"/>
                    </mxGeometry>
                </mxCell>
                <mxCell id="nrEiqh1vNegxxQYrQlBO-130" value="" style="shape=tableRow;horizontal=0;startSize=0;swimlaneHead=0;swimlaneBody=0;fillColor=none;collapsible=0;dropTarget=0;points=[[0,0.5],[1,0.5]];portConstraint=eastwest;top=0;left=0;right=0;bottom=0;fontFamily=Helvetica;fontSize=11;rounded=1;" parent="nrEiqh1vNegxxQYrQlBO-120" vertex="1">
                    <mxGeometry y="210" width="150" height="30" as="geometry"/>
                </mxCell>
                <mxCell id="nrEiqh1vNegxxQYrQlBO-131" value="FK" style="shape=partialRectangle;connectable=0;fillColor=none;top=0;left=0;bottom=0;right=0;editable=1;overflow=hidden;fontFamily=Helvetica;fontSize=11;rounded=1;" parent="nrEiqh1vNegxxQYrQlBO-130" vertex="1">
                    <mxGeometry width="30" height="30" as="geometry">
                        <mxRectangle width="30" height="30" as="alternateBounds"/>
                    </mxGeometry>
                </mxCell>
                <mxCell id="nrEiqh1vNegxxQYrQlBO-132" value="user_email" style="shape=partialRectangle;connectable=0;fillColor=none;top=0;left=0;bottom=0;right=0;align=left;spacingLeft=6;overflow=hidden;fontStyle=0;fontFamily=Helvetica;fontSize=11;rounded=1;" parent="nrEiqh1vNegxxQYrQlBO-130" vertex="1">
                    <mxGeometry x="30" width="120" height="30" as="geometry">
                        <mxRectangle width="120" height="30" as="alternateBounds"/>
                    </mxGeometry>
                </mxCell>
                <mxCell id="2" style="shape=tableRow;horizontal=0;startSize=0;swimlaneHead=0;swimlaneBody=0;fillColor=none;collapsible=0;dropTarget=0;points=[[0,0.5],[1,0.5]];portConstraint=eastwest;top=0;left=0;right=0;bottom=0;fontFamily=Helvetica;fontSize=11;rounded=1;" parent="nrEiqh1vNegxxQYrQlBO-120" vertex="1">
                    <mxGeometry y="240" width="150" height="30" as="geometry"/>
                </mxCell>
                <mxCell id="3" style="shape=partialRectangle;connectable=0;fillColor=none;top=0;left=0;bottom=0;right=0;editable=1;overflow=hidden;fontFamily=Helvetica;fontSize=11;rounded=1;" parent="2" vertex="1">
                    <mxGeometry width="30" height="30" as="geometry">
                        <mxRectangle width="30" height="30" as="alternateBounds"/>
                    </mxGeometry>
                </mxCell>
                <mxCell id="4" value="user_created_on" style="shape=partialRectangle;connectable=0;fillColor=none;top=0;left=0;bottom=0;right=0;align=left;spacingLeft=6;overflow=hidden;fontFamily=Helvetica;fontSize=11;rounded=1;" parent="2" vertex="1">
                    <mxGeometry x="30" width="120" height="30" as="geometry">
                        <mxRectangle width="120" height="30" as="alternateBounds"/>
                    </mxGeometry>
                </mxCell>
                <mxCell id="nrEiqh1vNegxxQYrQlBO-142" style="shape=tableRow;horizontal=0;startSize=0;swimlaneHead=0;swimlaneBody=0;fillColor=none;collapsible=0;dropTarget=0;points=[[0,0.5],[1,0.5]];portConstraint=eastwest;top=0;left=0;right=0;bottom=0;fontFamily=Helvetica;fontSize=11;rounded=1;" parent="nrEiqh1vNegxxQYrQlBO-120" vertex="1">
                    <mxGeometry y="270" width="150" height="30" as="geometry"/>
                </mxCell>
                <mxCell id="nrEiqh1vNegxxQYrQlBO-143" value="FK" style="shape=partialRectangle;connectable=0;fillColor=none;top=0;left=0;bottom=0;right=0;editable=1;overflow=hidden;fontFamily=Helvetica;fontSize=11;rounded=1;" parent="nrEiqh1vNegxxQYrQlBO-142" vertex="1">
                    <mxGeometry width="30" height="30" as="geometry">
                        <mxRectangle width="30" height="30" as="alternateBounds"/>
                    </mxGeometry>
                </mxCell>
                <mxCell id="nrEiqh1vNegxxQYrQlBO-144" value="social_id" style="shape=partialRectangle;connectable=0;fillColor=none;top=0;left=0;bottom=0;right=0;align=left;spacingLeft=6;overflow=hidden;fontFamily=Helvetica;fontSize=11;rounded=1;" parent="nrEiqh1vNegxxQYrQlBO-142" vertex="1">
                    <mxGeometry x="30" width="120" height="30" as="geometry">
                        <mxRectangle width="120" height="30" as="alternateBounds"/>
                    </mxGeometry>
                </mxCell>
                <mxCell id="nrEiqh1vNegxxQYrQlBO-466" value="Address" style="shape=table;startSize=30;container=1;collapsible=1;childLayout=tableLayout;fixedRows=1;rowLines=0;fontStyle=1;align=center;resizeLast=1;fontFamily=Helvetica;fontSize=11;rounded=1;" parent="1" vertex="1">
                    <mxGeometry x="-674" y="-136" width="150" height="210" as="geometry"/>
                </mxCell>
                <mxCell id="nrEiqh1vNegxxQYrQlBO-467" style="shape=tableRow;horizontal=0;startSize=0;swimlaneHead=0;swimlaneBody=0;fillColor=none;collapsible=0;dropTarget=0;points=[[0,0.5],[1,0.5]];portConstraint=eastwest;top=0;left=0;right=0;bottom=1;fontFamily=Helvetica;fontSize=11;rounded=1;" parent="nrEiqh1vNegxxQYrQlBO-466" vertex="1">
                    <mxGeometry y="30" width="150" height="30" as="geometry"/>
                </mxCell>
                <mxCell id="nrEiqh1vNegxxQYrQlBO-468" value="PK" style="shape=partialRectangle;connectable=0;fillColor=none;top=0;left=0;bottom=0;right=0;fontStyle=1;overflow=hidden;fontFamily=Helvetica;fontSize=11;rounded=1;" parent="nrEiqh1vNegxxQYrQlBO-467" vertex="1">
                    <mxGeometry width="30" height="30" as="geometry">
                        <mxRectangle width="30" height="30" as="alternateBounds"/>
                    </mxGeometry>
                </mxCell>
                <mxCell id="nrEiqh1vNegxxQYrQlBO-469" value="address_id" style="shape=partialRectangle;connectable=0;fillColor=none;top=0;left=0;bottom=0;right=0;align=left;spacingLeft=6;fontStyle=5;overflow=hidden;fontFamily=Helvetica;fontSize=11;rounded=1;" parent="nrEiqh1vNegxxQYrQlBO-467" vertex="1">
                    <mxGeometry x="30" width="120" height="30" as="geometry">
                        <mxRectangle width="120" height="30" as="alternateBounds"/>
                    </mxGeometry>
                </mxCell>
                <mxCell id="nrEiqh1vNegxxQYrQlBO-470" style="shape=tableRow;horizontal=0;startSize=0;swimlaneHead=0;swimlaneBody=0;fillColor=none;collapsible=0;dropTarget=0;points=[[0,0.5],[1,0.5]];portConstraint=eastwest;top=0;left=0;right=0;bottom=0;fontFamily=Helvetica;fontSize=11;rounded=1;" parent="nrEiqh1vNegxxQYrQlBO-466" vertex="1">
                    <mxGeometry y="60" width="150" height="30" as="geometry"/>
                </mxCell>
                <mxCell id="nrEiqh1vNegxxQYrQlBO-471" style="shape=partialRectangle;connectable=0;fillColor=none;top=0;left=0;bottom=0;right=0;editable=1;overflow=hidden;fontFamily=Helvetica;fontSize=11;rounded=1;" parent="nrEiqh1vNegxxQYrQlBO-470" vertex="1">
                    <mxGeometry width="30" height="30" as="geometry">
                        <mxRectangle width="30" height="30" as="alternateBounds"/>
                    </mxGeometry>
                </mxCell>
                <mxCell id="nrEiqh1vNegxxQYrQlBO-472" value="address_house_no" style="shape=partialRectangle;connectable=0;fillColor=none;top=0;left=0;bottom=0;right=0;align=left;spacingLeft=6;overflow=hidden;fontFamily=Helvetica;fontSize=11;rounded=1;" parent="nrEiqh1vNegxxQYrQlBO-470" vertex="1">
                    <mxGeometry x="30" width="120" height="30" as="geometry">
                        <mxRectangle width="120" height="30" as="alternateBounds"/>
                    </mxGeometry>
                </mxCell>
                <mxCell id="CbRteJP2frnYpMNlqBMR-1" style="shape=tableRow;horizontal=0;startSize=0;swimlaneHead=0;swimlaneBody=0;fillColor=none;collapsible=0;dropTarget=0;points=[[0,0.5],[1,0.5]];portConstraint=eastwest;top=0;left=0;right=0;bottom=0;fontFamily=Helvetica;fontSize=11;rounded=1;" parent="nrEiqh1vNegxxQYrQlBO-466" vertex="1">
                    <mxGeometry y="90" width="150" height="30" as="geometry"/>
                </mxCell>
                <mxCell id="CbRteJP2frnYpMNlqBMR-2" style="shape=partialRectangle;connectable=0;fillColor=none;top=0;left=0;bottom=0;right=0;editable=1;overflow=hidden;fontFamily=Helvetica;fontSize=11;rounded=1;" parent="CbRteJP2frnYpMNlqBMR-1" vertex="1">
                    <mxGeometry width="30" height="30" as="geometry">
                        <mxRectangle width="30" height="30" as="alternateBounds"/>
                    </mxGeometry>
                </mxCell>
                <mxCell id="CbRteJP2frnYpMNlqBMR-3" value="address_street" style="shape=partialRectangle;connectable=0;fillColor=none;top=0;left=0;bottom=0;right=0;align=left;spacingLeft=6;overflow=hidden;fontFamily=Helvetica;fontSize=11;rounded=1;" parent="CbRteJP2frnYpMNlqBMR-1" vertex="1">
                    <mxGeometry x="30" width="120" height="30" as="geometry">
                        <mxRectangle width="120" height="30" as="alternateBounds"/>
                    </mxGeometry>
                </mxCell>
                <mxCell id="nrEiqh1vNegxxQYrQlBO-473" style="shape=tableRow;horizontal=0;startSize=0;swimlaneHead=0;swimlaneBody=0;fillColor=none;collapsible=0;dropTarget=0;points=[[0,0.5],[1,0.5]];portConstraint=eastwest;top=0;left=0;right=0;bottom=0;fontFamily=Helvetica;fontSize=11;rounded=1;" parent="nrEiqh1vNegxxQYrQlBO-466" vertex="1">
                    <mxGeometry y="120" width="150" height="30" as="geometry"/>
                </mxCell>
                <mxCell id="nrEiqh1vNegxxQYrQlBO-474" style="shape=partialRectangle;connectable=0;fillColor=none;top=0;left=0;bottom=0;right=0;editable=1;overflow=hidden;fontFamily=Helvetica;fontSize=11;rounded=1;" parent="nrEiqh1vNegxxQYrQlBO-473" vertex="1">
                    <mxGeometry width="30" height="30" as="geometry">
                        <mxRectangle width="30" height="30" as="alternateBounds"/>
                    </mxGeometry>
                </mxCell>
                <mxCell id="nrEiqh1vNegxxQYrQlBO-475" value="address_city" style="shape=partialRectangle;connectable=0;fillColor=none;top=0;left=0;bottom=0;right=0;align=left;spacingLeft=6;overflow=hidden;fontFamily=Helvetica;fontSize=11;rounded=1;" parent="nrEiqh1vNegxxQYrQlBO-473" vertex="1">
                    <mxGeometry x="30" width="120" height="30" as="geometry">
                        <mxRectangle width="120" height="30" as="alternateBounds"/>
                    </mxGeometry>
                </mxCell>
                <mxCell id="nrEiqh1vNegxxQYrQlBO-476" style="shape=tableRow;horizontal=0;startSize=0;swimlaneHead=0;swimlaneBody=0;fillColor=none;collapsible=0;dropTarget=0;points=[[0,0.5],[1,0.5]];portConstraint=eastwest;top=0;left=0;right=0;bottom=0;fontFamily=Helvetica;fontSize=11;rounded=1;" parent="nrEiqh1vNegxxQYrQlBO-466" vertex="1">
                    <mxGeometry y="150" width="150" height="30" as="geometry"/>
                </mxCell>
                <mxCell id="nrEiqh1vNegxxQYrQlBO-477" style="shape=partialRectangle;connectable=0;fillColor=none;top=0;left=0;bottom=0;right=0;editable=1;overflow=hidden;fontFamily=Helvetica;fontSize=11;rounded=1;" parent="nrEiqh1vNegxxQYrQlBO-476" vertex="1">
                    <mxGeometry width="30" height="30" as="geometry">
                        <mxRectangle width="30" height="30" as="alternateBounds"/>
                    </mxGeometry>
                </mxCell>
                <mxCell id="nrEiqh1vNegxxQYrQlBO-478" value="address_postcode" style="shape=partialRectangle;connectable=0;fillColor=none;top=0;left=0;bottom=0;right=0;align=left;spacingLeft=6;overflow=hidden;fontFamily=Helvetica;fontSize=11;rounded=1;" parent="nrEiqh1vNegxxQYrQlBO-476" vertex="1">
                    <mxGeometry x="30" width="120" height="30" as="geometry">
                        <mxRectangle width="120" height="30" as="alternateBounds"/>
                    </mxGeometry>
                </mxCell>
                <mxCell id="nrEiqh1vNegxxQYrQlBO-479" style="shape=tableRow;horizontal=0;startSize=0;swimlaneHead=0;swimlaneBody=0;fillColor=none;collapsible=0;dropTarget=0;points=[[0,0.5],[1,0.5]];portConstraint=eastwest;top=0;left=0;right=0;bottom=0;fontFamily=Helvetica;fontSize=11;rounded=1;" parent="nrEiqh1vNegxxQYrQlBO-466" vertex="1">
                    <mxGeometry y="180" width="150" height="30" as="geometry"/>
                </mxCell>
                <mxCell id="nrEiqh1vNegxxQYrQlBO-480" value="FK" style="shape=partialRectangle;connectable=0;fillColor=none;top=0;left=0;bottom=0;right=0;editable=1;overflow=hidden;fontFamily=Helvetica;fontSize=11;rounded=1;" parent="nrEiqh1vNegxxQYrQlBO-479" vertex="1">
                    <mxGeometry width="30" height="30" as="geometry">
                        <mxRectangle width="30" height="30" as="alternateBounds"/>
                    </mxGeometry>
                </mxCell>
                <mxCell id="nrEiqh1vNegxxQYrQlBO-481" value="country_id" style="shape=partialRectangle;connectable=0;fillColor=none;top=0;left=0;bottom=0;right=0;align=left;spacingLeft=6;overflow=hidden;fontFamily=Helvetica;fontSize=11;rounded=1;" parent="nrEiqh1vNegxxQYrQlBO-479" vertex="1">
                    <mxGeometry x="30" width="120" height="30" as="geometry">
                        <mxRectangle width="120" height="30" as="alternateBounds"/>
                    </mxGeometry>
                </mxCell>
                <mxCell id="nrEiqh1vNegxxQYrQlBO-570" value="" style="edgeStyle=orthogonalEdgeStyle;fontSize=11;html=1;endArrow=ERmandOne;startArrow=ERmandOne;rounded=1;fontFamily=Helvetica;jumpStyle=arc;endFill=0;" parent="1" source="nrEiqh1vNegxxQYrQlBO-149" target="nrEiqh1vNegxxQYrQlBO-130" edge="1">
                    <mxGeometry width="100" height="100" relative="1" as="geometry">
                        <mxPoint x="-886" y="120" as="sourcePoint"/>
                        <mxPoint x="-356" y="360" as="targetPoint"/>
                    </mxGeometry>
                </mxCell>
                <mxCell id="nrEiqh1vNegxxQYrQlBO-326" value="Transaction" style="shape=table;startSize=30;container=1;collapsible=1;childLayout=tableLayout;fixedRows=1;rowLines=0;fontStyle=1;align=center;resizeLast=1;fontFamily=Helvetica;fontSize=11;rounded=1;" parent="1" vertex="1">
                    <mxGeometry x="18" y="-660" width="150" height="210" as="geometry"/>
                </mxCell>
                <mxCell id="nrEiqh1vNegxxQYrQlBO-327" style="shape=tableRow;horizontal=0;startSize=0;swimlaneHead=0;swimlaneBody=0;fillColor=none;collapsible=0;dropTarget=0;points=[[0,0.5],[1,0.5]];portConstraint=eastwest;top=0;left=0;right=0;bottom=1;fontFamily=Helvetica;fontSize=11;rounded=1;" parent="nrEiqh1vNegxxQYrQlBO-326" vertex="1">
                    <mxGeometry y="30" width="150" height="30" as="geometry"/>
                </mxCell>
                <mxCell id="nrEiqh1vNegxxQYrQlBO-328" value="PK" style="shape=partialRectangle;connectable=0;fillColor=none;top=0;left=0;bottom=0;right=0;fontStyle=1;overflow=hidden;fontFamily=Helvetica;fontSize=11;rounded=1;" parent="nrEiqh1vNegxxQYrQlBO-327" vertex="1">
                    <mxGeometry width="30" height="30" as="geometry">
                        <mxRectangle width="30" height="30" as="alternateBounds"/>
                    </mxGeometry>
                </mxCell>
                <mxCell id="nrEiqh1vNegxxQYrQlBO-329" value="transaction_id" style="shape=partialRectangle;connectable=0;fillColor=none;top=0;left=0;bottom=0;right=0;align=left;spacingLeft=6;fontStyle=5;overflow=hidden;fontFamily=Helvetica;fontSize=11;rounded=1;" parent="nrEiqh1vNegxxQYrQlBO-327" vertex="1">
                    <mxGeometry x="30" width="120" height="30" as="geometry">
                        <mxRectangle width="120" height="30" as="alternateBounds"/>
                    </mxGeometry>
                </mxCell>
                <mxCell id="nrEiqh1vNegxxQYrQlBO-330" style="shape=tableRow;horizontal=0;startSize=0;swimlaneHead=0;swimlaneBody=0;fillColor=none;collapsible=0;dropTarget=0;points=[[0,0.5],[1,0.5]];portConstraint=eastwest;top=0;left=0;right=0;bottom=0;fontFamily=Helvetica;fontSize=11;rounded=1;" parent="nrEiqh1vNegxxQYrQlBO-326" vertex="1">
                    <mxGeometry y="60" width="150" height="30" as="geometry"/>
                </mxCell>
                <mxCell id="nrEiqh1vNegxxQYrQlBO-331" value="FK" style="shape=partialRectangle;connectable=0;fillColor=none;top=0;left=0;bottom=0;right=0;editable=1;overflow=hidden;fontFamily=Helvetica;fontSize=11;rounded=1;" parent="nrEiqh1vNegxxQYrQlBO-330" vertex="1">
                    <mxGeometry width="30" height="30" as="geometry">
                        <mxRectangle width="30" height="30" as="alternateBounds"/>
                    </mxGeometry>
                </mxCell>
                <mxCell id="nrEiqh1vNegxxQYrQlBO-332" value="booking_id" style="shape=partialRectangle;connectable=0;fillColor=none;top=0;left=0;bottom=0;right=0;align=left;spacingLeft=6;overflow=hidden;fontFamily=Helvetica;fontSize=11;rounded=1;" parent="nrEiqh1vNegxxQYrQlBO-330" vertex="1">
                    <mxGeometry x="30" width="120" height="30" as="geometry">
                        <mxRectangle width="120" height="30" as="alternateBounds"/>
                    </mxGeometry>
                </mxCell>
                <mxCell id="nrEiqh1vNegxxQYrQlBO-454" style="shape=tableRow;horizontal=0;startSize=0;swimlaneHead=0;swimlaneBody=0;fillColor=none;collapsible=0;dropTarget=0;points=[[0,0.5],[1,0.5]];portConstraint=eastwest;top=0;left=0;right=0;bottom=0;fontFamily=Helvetica;fontSize=11;rounded=1;" parent="nrEiqh1vNegxxQYrQlBO-326" vertex="1">
                    <mxGeometry y="90" width="150" height="30" as="geometry"/>
                </mxCell>
                <mxCell id="nrEiqh1vNegxxQYrQlBO-455" value="FK" style="shape=partialRectangle;connectable=0;fillColor=none;top=0;left=0;bottom=0;right=0;editable=1;overflow=hidden;fontFamily=Helvetica;fontSize=11;rounded=1;" parent="nrEiqh1vNegxxQYrQlBO-454" vertex="1">
                    <mxGeometry width="30" height="30" as="geometry">
                        <mxRectangle width="30" height="30" as="alternateBounds"/>
                    </mxGeometry>
                </mxCell>
                <mxCell id="nrEiqh1vNegxxQYrQlBO-456" value="payment_method_id" style="shape=partialRectangle;connectable=0;fillColor=none;top=0;left=0;bottom=0;right=0;align=left;spacingLeft=6;overflow=hidden;fontFamily=Helvetica;fontSize=11;rounded=1;" parent="nrEiqh1vNegxxQYrQlBO-454" vertex="1">
                    <mxGeometry x="30" width="120" height="30" as="geometry">
                        <mxRectangle width="120" height="30" as="alternateBounds"/>
                    </mxGeometry>
                </mxCell>
                <mxCell id="nrEiqh1vNegxxQYrQlBO-351" style="shape=tableRow;horizontal=0;startSize=0;swimlaneHead=0;swimlaneBody=0;fillColor=none;collapsible=0;dropTarget=0;points=[[0,0.5],[1,0.5]];portConstraint=eastwest;top=0;left=0;right=0;bottom=0;fontFamily=Helvetica;fontSize=11;rounded=1;" parent="nrEiqh1vNegxxQYrQlBO-326" vertex="1">
                    <mxGeometry y="120" width="150" height="30" as="geometry"/>
                </mxCell>
                <mxCell id="nrEiqh1vNegxxQYrQlBO-352" style="shape=partialRectangle;connectable=0;fillColor=none;top=0;left=0;bottom=0;right=0;editable=1;overflow=hidden;fontFamily=Helvetica;fontSize=11;rounded=1;" parent="nrEiqh1vNegxxQYrQlBO-351" vertex="1">
                    <mxGeometry width="30" height="30" as="geometry">
                        <mxRectangle width="30" height="30" as="alternateBounds"/>
                    </mxGeometry>
                </mxCell>
                <mxCell id="nrEiqh1vNegxxQYrQlBO-353" value="transaction_date" style="shape=partialRectangle;connectable=0;fillColor=none;top=0;left=0;bottom=0;right=0;align=left;spacingLeft=6;overflow=hidden;fontFamily=Helvetica;fontSize=11;rounded=1;" parent="nrEiqh1vNegxxQYrQlBO-351" vertex="1">
                    <mxGeometry x="30" width="120" height="30" as="geometry">
                        <mxRectangle width="120" height="30" as="alternateBounds"/>
                    </mxGeometry>
                </mxCell>
                <mxCell id="nrEiqh1vNegxxQYrQlBO-354" style="shape=tableRow;horizontal=0;startSize=0;swimlaneHead=0;swimlaneBody=0;fillColor=none;collapsible=0;dropTarget=0;points=[[0,0.5],[1,0.5]];portConstraint=eastwest;top=0;left=0;right=0;bottom=0;fontFamily=Helvetica;fontSize=11;rounded=1;" parent="nrEiqh1vNegxxQYrQlBO-326" vertex="1">
                    <mxGeometry y="150" width="150" height="30" as="geometry"/>
                </mxCell>
                <mxCell id="nrEiqh1vNegxxQYrQlBO-355" style="shape=partialRectangle;connectable=0;fillColor=none;top=0;left=0;bottom=0;right=0;editable=1;overflow=hidden;fontFamily=Helvetica;fontSize=11;rounded=1;" parent="nrEiqh1vNegxxQYrQlBO-354" vertex="1">
                    <mxGeometry width="30" height="30" as="geometry">
                        <mxRectangle width="30" height="30" as="alternateBounds"/>
                    </mxGeometry>
                </mxCell>
                <mxCell id="nrEiqh1vNegxxQYrQlBO-356" value="transaction amount" style="shape=partialRectangle;connectable=0;fillColor=none;top=0;left=0;bottom=0;right=0;align=left;spacingLeft=6;overflow=hidden;fontFamily=Helvetica;fontSize=11;rounded=1;" parent="nrEiqh1vNegxxQYrQlBO-354" vertex="1">
                    <mxGeometry x="30" width="120" height="30" as="geometry">
                        <mxRectangle width="120" height="30" as="alternateBounds"/>
                    </mxGeometry>
                </mxCell>
                <mxCell id="nrEiqh1vNegxxQYrQlBO-357" style="shape=tableRow;horizontal=0;startSize=0;swimlaneHead=0;swimlaneBody=0;fillColor=none;collapsible=0;dropTarget=0;points=[[0,0.5],[1,0.5]];portConstraint=eastwest;top=0;left=0;right=0;bottom=0;fontFamily=Helvetica;fontSize=11;rounded=1;" parent="nrEiqh1vNegxxQYrQlBO-326" vertex="1">
                    <mxGeometry y="180" width="150" height="30" as="geometry"/>
                </mxCell>
                <mxCell id="nrEiqh1vNegxxQYrQlBO-358" style="shape=partialRectangle;connectable=0;fillColor=none;top=0;left=0;bottom=0;right=0;editable=1;overflow=hidden;fontFamily=Helvetica;fontSize=11;rounded=1;" parent="nrEiqh1vNegxxQYrQlBO-357" vertex="1">
                    <mxGeometry width="30" height="30" as="geometry">
                        <mxRectangle width="30" height="30" as="alternateBounds"/>
                    </mxGeometry>
                </mxCell>
                <mxCell id="nrEiqh1vNegxxQYrQlBO-359" value="transaction_status" style="shape=partialRectangle;connectable=0;fillColor=none;top=0;left=0;bottom=0;right=0;align=left;spacingLeft=6;overflow=hidden;fontFamily=Helvetica;fontSize=11;rounded=1;" parent="nrEiqh1vNegxxQYrQlBO-357" vertex="1">
                    <mxGeometry x="30" width="120" height="30" as="geometry">
                        <mxRectangle width="120" height="30" as="alternateBounds"/>
                    </mxGeometry>
                </mxCell>
                <mxCell id="nrEiqh1vNegxxQYrQlBO-581" value="" style="fontSize=11;html=1;endArrow=ERzeroToMany;startArrow=ERmandOne;rounded=1;fontFamily=Helvetica;jumpStyle=arc;startFill=0;edgeStyle=orthogonalEdgeStyle;" parent="1" source="nrEiqh1vNegxxQYrQlBO-257" target="nrEiqh1vNegxxQYrQlBO-244" edge="1">
                    <mxGeometry width="100" height="100" relative="1" as="geometry">
                        <mxPoint x="-5" y="-537.909090909091" as="sourcePoint"/>
                        <mxPoint x="78" y="-433.00000000000045" as="targetPoint"/>
                    </mxGeometry>
                </mxCell>
                <mxCell id="CbRteJP2frnYpMNlqBMR-7" value="Fee" style="shape=table;startSize=30;container=1;collapsible=1;childLayout=tableLayout;fixedRows=1;rowLines=0;fontStyle=1;align=center;resizeLast=1;fontFamily=Helvetica;fontSize=11;rounded=1;" parent="1" vertex="1">
                    <mxGeometry x="-900" y="-768" width="150" height="150" as="geometry"/>
                </mxCell>
                <mxCell id="CbRteJP2frnYpMNlqBMR-8" style="shape=tableRow;horizontal=0;startSize=0;swimlaneHead=0;swimlaneBody=0;fillColor=none;collapsible=0;dropTarget=0;points=[[0,0.5],[1,0.5]];portConstraint=eastwest;top=0;left=0;right=0;bottom=1;fontFamily=Helvetica;fontSize=11;rounded=1;" parent="CbRteJP2frnYpMNlqBMR-7" vertex="1">
                    <mxGeometry y="30" width="150" height="30" as="geometry"/>
                </mxCell>
                <mxCell id="CbRteJP2frnYpMNlqBMR-9" value="PK" style="shape=partialRectangle;connectable=0;fillColor=none;top=0;left=0;bottom=0;right=0;fontStyle=1;overflow=hidden;fontFamily=Helvetica;fontSize=11;rounded=1;" parent="CbRteJP2frnYpMNlqBMR-8" vertex="1">
                    <mxGeometry width="30" height="30" as="geometry">
                        <mxRectangle width="30" height="30" as="alternateBounds"/>
                    </mxGeometry>
                </mxCell>
                <mxCell id="CbRteJP2frnYpMNlqBMR-10" value="fee_id" style="shape=partialRectangle;connectable=0;fillColor=none;top=0;left=0;bottom=0;right=0;align=left;spacingLeft=6;fontStyle=5;overflow=hidden;fontFamily=Helvetica;fontSize=11;rounded=1;" parent="CbRteJP2frnYpMNlqBMR-8" vertex="1">
                    <mxGeometry x="30" width="120" height="30" as="geometry">
                        <mxRectangle width="120" height="30" as="alternateBounds"/>
                    </mxGeometry>
                </mxCell>
                <mxCell id="CbRteJP2frnYpMNlqBMR-11" style="shape=tableRow;horizontal=0;startSize=0;swimlaneHead=0;swimlaneBody=0;fillColor=none;collapsible=0;dropTarget=0;points=[[0,0.5],[1,0.5]];portConstraint=eastwest;top=0;left=0;right=0;bottom=0;fontFamily=Helvetica;fontSize=11;rounded=1;" parent="CbRteJP2frnYpMNlqBMR-7" vertex="1">
                    <mxGeometry y="60" width="150" height="30" as="geometry"/>
                </mxCell>
                <mxCell id="CbRteJP2frnYpMNlqBMR-12" value="FK" style="shape=partialRectangle;connectable=0;fillColor=none;top=0;left=0;bottom=0;right=0;editable=1;overflow=hidden;fontFamily=Helvetica;fontSize=11;rounded=1;" parent="CbRteJP2frnYpMNlqBMR-11" vertex="1">
                    <mxGeometry width="30" height="30" as="geometry">
                        <mxRectangle width="30" height="30" as="alternateBounds"/>
                    </mxGeometry>
                </mxCell>
                <mxCell id="CbRteJP2frnYpMNlqBMR-13" value="property_id" style="shape=partialRectangle;connectable=0;fillColor=none;top=0;left=0;bottom=0;right=0;align=left;spacingLeft=6;overflow=hidden;fontFamily=Helvetica;fontSize=11;rounded=1;" parent="CbRteJP2frnYpMNlqBMR-11" vertex="1">
                    <mxGeometry x="30" width="120" height="30" as="geometry">
                        <mxRectangle width="120" height="30" as="alternateBounds"/>
                    </mxGeometry>
                </mxCell>
                <mxCell id="CbRteJP2frnYpMNlqBMR-17" style="shape=tableRow;horizontal=0;startSize=0;swimlaneHead=0;swimlaneBody=0;fillColor=none;collapsible=0;dropTarget=0;points=[[0,0.5],[1,0.5]];portConstraint=eastwest;top=0;left=0;right=0;bottom=0;fontFamily=Helvetica;fontSize=11;rounded=1;" parent="CbRteJP2frnYpMNlqBMR-7" vertex="1">
                    <mxGeometry y="90" width="150" height="30" as="geometry"/>
                </mxCell>
                <mxCell id="CbRteJP2frnYpMNlqBMR-18" style="shape=partialRectangle;connectable=0;fillColor=none;top=0;left=0;bottom=0;right=0;editable=1;overflow=hidden;fontFamily=Helvetica;fontSize=11;rounded=1;" parent="CbRteJP2frnYpMNlqBMR-17" vertex="1">
                    <mxGeometry width="30" height="30" as="geometry">
                        <mxRectangle width="30" height="30" as="alternateBounds"/>
                    </mxGeometry>
                </mxCell>
                <mxCell id="CbRteJP2frnYpMNlqBMR-19" value="fee_description" style="shape=partialRectangle;connectable=0;fillColor=none;top=0;left=0;bottom=0;right=0;align=left;spacingLeft=6;overflow=hidden;fontFamily=Helvetica;fontSize=11;rounded=1;" parent="CbRteJP2frnYpMNlqBMR-17" vertex="1">
                    <mxGeometry x="30" width="120" height="30" as="geometry">
                        <mxRectangle width="120" height="30" as="alternateBounds"/>
                    </mxGeometry>
                </mxCell>
                <mxCell id="CbRteJP2frnYpMNlqBMR-14" style="shape=tableRow;horizontal=0;startSize=0;swimlaneHead=0;swimlaneBody=0;fillColor=none;collapsible=0;dropTarget=0;points=[[0,0.5],[1,0.5]];portConstraint=eastwest;top=0;left=0;right=0;bottom=0;fontFamily=Helvetica;fontSize=11;rounded=1;" parent="CbRteJP2frnYpMNlqBMR-7" vertex="1">
                    <mxGeometry y="120" width="150" height="30" as="geometry"/>
                </mxCell>
                <mxCell id="CbRteJP2frnYpMNlqBMR-15" style="shape=partialRectangle;connectable=0;fillColor=none;top=0;left=0;bottom=0;right=0;editable=1;overflow=hidden;fontFamily=Helvetica;fontSize=11;rounded=1;" parent="CbRteJP2frnYpMNlqBMR-14" vertex="1">
                    <mxGeometry width="30" height="30" as="geometry">
                        <mxRectangle width="30" height="30" as="alternateBounds"/>
                    </mxGeometry>
                </mxCell>
                <mxCell id="CbRteJP2frnYpMNlqBMR-16" value="fee_amount" style="shape=partialRectangle;connectable=0;fillColor=none;top=0;left=0;bottom=0;right=0;align=left;spacingLeft=6;overflow=hidden;fontFamily=Helvetica;fontSize=11;rounded=1;" parent="CbRteJP2frnYpMNlqBMR-14" vertex="1">
                    <mxGeometry x="30" width="120" height="30" as="geometry">
                        <mxRectangle width="120" height="30" as="alternateBounds"/>
                    </mxGeometry>
                </mxCell>
                <mxCell id="CbRteJP2frnYpMNlqBMR-20" value="" style="edgeStyle=elbowEdgeStyle;fontSize=11;html=1;endArrow=ERzeroToMany;startArrow=ERmandOne;rounded=1;fontFamily=Helvetica;jumpStyle=arc;elbow=horizontal;" parent="1" source="nrEiqh1vNegxxQYrQlBO-219" target="CbRteJP2frnYpMNlqBMR-11" edge="1">
                    <mxGeometry width="100" height="100" relative="1" as="geometry">
                        <mxPoint x="-619.9999999999999" y="-251" as="sourcePoint"/>
                        <mxPoint x="-564" y="-252.0000000000001" as="targetPoint"/>
                    </mxGeometry>
                </mxCell>
                <mxCell id="CbRteJP2frnYpMNlqBMR-37" value="" style="edgeStyle=orthogonalEdgeStyle;fontSize=11;html=1;endArrow=ERmandOne;startArrow=ERmandOne;elbow=vertical;movable=1;resizable=1;rotatable=1;deletable=1;editable=1;connectable=1;" parent="1" source="nrEiqh1vNegxxQYrQlBO-219" target="nrEiqh1vNegxxQYrQlBO-309" edge="1">
                    <mxGeometry width="100" height="100" relative="1" as="geometry">
                        <mxPoint x="-390" y="-430" as="sourcePoint"/>
                        <mxPoint x="-290" y="-530" as="targetPoint"/>
                        <Array as="points">
                            <mxPoint x="-690" y="-525"/>
                            <mxPoint x="-690" y="-586"/>
                            <mxPoint x="-500" y="-586"/>
                            <mxPoint x="-500" y="-647"/>
                        </Array>
                    </mxGeometry>
                </mxCell>
                <mxCell id="nrEiqh1vNegxxQYrQlBO-392" value="" style="edgeStyle=elbowEdgeStyle;fontSize=11;html=1;endArrow=ERzeroToMany;startArrow=ERmandOne;rounded=1;fontFamily=Helvetica;jumpStyle=arc;" parent="1" source="nrEiqh1vNegxxQYrQlBO-219" target="CbRteJP2frnYpMNlqBMR-38" edge="1">
                    <mxGeometry width="100" height="100" relative="1" as="geometry">
                        <mxPoint x="-652.9999999999995" y="-261" as="sourcePoint"/>
                        <mxPoint x="-184" y="313" as="targetPoint"/>
                    </mxGeometry>
                </mxCell>
                <mxCell id="11" value="" style="edgeStyle=orthogonalEdgeStyle;fontSize=12;html=1;endArrow=ERmandOne;startArrow=ERzeroToMany;exitX=0;exitY=0.5;exitDx=0;exitDy=0;endFill=0;startFill=0;" parent="1" source="nrEiqh1vNegxxQYrQlBO-241" target="nrEiqh1vNegxxQYrQlBO-219" edge="1">
                    <mxGeometry width="100" height="100" relative="1" as="geometry">
                        <mxPoint x="-350" y="-220" as="sourcePoint"/>
                        <mxPoint x="-250" y="-320" as="targetPoint"/>
                        <Array as="points">
                            <mxPoint x="-460" y="-685"/>
                            <mxPoint x="-460" y="-525"/>
                        </Array>
                    </mxGeometry>
                </mxCell>
                <mxCell id="22" value="" style="edgeStyle=orthogonalEdgeStyle;fontSize=12;html=1;endArrow=ERzeroToMany;startArrow=ERmandOne;" parent="1" source="nrEiqh1vNegxxQYrQlBO-219" target="17" edge="1">
                    <mxGeometry width="100" height="100" relative="1" as="geometry">
                        <mxPoint x="-270" y="-50" as="sourcePoint"/>
                        <mxPoint x="-170" y="-150" as="targetPoint"/>
                        <Array as="points">
                            <mxPoint x="-500" y="-525"/>
                            <mxPoint x="-500" y="-376"/>
                        </Array>
                    </mxGeometry>
                </mxCell>
                <mxCell id="23" value="Rule" style="shape=table;startSize=30;container=1;collapsible=1;childLayout=tableLayout;fixedRows=1;rowLines=0;fontStyle=1;align=center;resizeLast=1;fontFamily=Helvetica;fontSize=11;rounded=1;" parent="1" vertex="1">
                    <mxGeometry x="-1110" y="-310" width="150" height="90" as="geometry"/>
                </mxCell>
                <mxCell id="24" style="shape=tableRow;horizontal=0;startSize=0;swimlaneHead=0;swimlaneBody=0;fillColor=none;collapsible=0;dropTarget=0;points=[[0,0.5],[1,0.5]];portConstraint=eastwest;top=0;left=0;right=0;bottom=1;fontFamily=Helvetica;fontSize=11;rounded=1;" parent="23" vertex="1">
                    <mxGeometry y="30" width="150" height="30" as="geometry"/>
                </mxCell>
                <mxCell id="25" value="PK" style="shape=partialRectangle;connectable=0;fillColor=none;top=0;left=0;bottom=0;right=0;fontStyle=1;overflow=hidden;fontFamily=Helvetica;fontSize=11;rounded=1;" parent="24" vertex="1">
                    <mxGeometry width="30" height="30" as="geometry">
                        <mxRectangle width="30" height="30" as="alternateBounds"/>
                    </mxGeometry>
                </mxCell>
                <mxCell id="26" value="rule_id" style="shape=partialRectangle;connectable=0;fillColor=none;top=0;left=0;bottom=0;right=0;align=left;spacingLeft=6;fontStyle=4;overflow=hidden;fontFamily=Helvetica;fontSize=11;rounded=1;" parent="24" vertex="1">
                    <mxGeometry x="30" width="120" height="30" as="geometry">
                        <mxRectangle width="120" height="30" as="alternateBounds"/>
                    </mxGeometry>
                </mxCell>
                <mxCell id="30" style="shape=tableRow;horizontal=0;startSize=0;swimlaneHead=0;swimlaneBody=0;fillColor=none;collapsible=0;dropTarget=0;points=[[0,0.5],[1,0.5]];portConstraint=eastwest;top=0;left=0;right=0;bottom=0;fontFamily=Helvetica;fontSize=11;rounded=1;" parent="23" vertex="1">
                    <mxGeometry y="60" width="150" height="30" as="geometry"/>
                </mxCell>
                <mxCell id="31" style="shape=partialRectangle;connectable=0;fillColor=none;top=0;left=0;bottom=0;right=0;editable=1;overflow=hidden;fontFamily=Helvetica;fontSize=11;rounded=1;" parent="30" vertex="1">
                    <mxGeometry width="30" height="30" as="geometry">
                        <mxRectangle width="30" height="30" as="alternateBounds"/>
                    </mxGeometry>
                </mxCell>
                <mxCell id="32" value="rule_description" style="shape=partialRectangle;connectable=0;fillColor=none;top=0;left=0;bottom=0;right=0;align=left;spacingLeft=6;overflow=hidden;fontFamily=Helvetica;fontSize=11;rounded=1;" parent="30" vertex="1">
                    <mxGeometry x="30" width="120" height="30" as="geometry">
                        <mxRectangle width="120" height="30" as="alternateBounds"/>
                    </mxGeometry>
                </mxCell>
                <mxCell id="42" value="Amenity" style="shape=table;startSize=30;container=1;collapsible=1;childLayout=tableLayout;fixedRows=1;rowLines=0;fontStyle=1;align=center;resizeLast=1;fontFamily=Helvetica;fontSize=11;rounded=1;" parent="1" vertex="1">
                    <mxGeometry x="-1110" y="-429" width="150" height="90" as="geometry"/>
                </mxCell>
                <mxCell id="43" style="shape=tableRow;horizontal=0;startSize=0;swimlaneHead=0;swimlaneBody=0;fillColor=none;collapsible=0;dropTarget=0;points=[[0,0.5],[1,0.5]];portConstraint=eastwest;top=0;left=0;right=0;bottom=1;fontFamily=Helvetica;fontSize=11;rounded=1;" parent="42" vertex="1">
                    <mxGeometry y="30" width="150" height="30" as="geometry"/>
                </mxCell>
                <mxCell id="44" value="PK" style="shape=partialRectangle;connectable=0;fillColor=none;top=0;left=0;bottom=0;right=0;fontStyle=1;overflow=hidden;fontFamily=Helvetica;fontSize=11;rounded=1;" parent="43" vertex="1">
                    <mxGeometry width="30" height="30" as="geometry">
                        <mxRectangle width="30" height="30" as="alternateBounds"/>
                    </mxGeometry>
                </mxCell>
                <mxCell id="45" value="amenity_id" style="shape=partialRectangle;connectable=0;fillColor=none;top=0;left=0;bottom=0;right=0;align=left;spacingLeft=6;fontStyle=4;overflow=hidden;fontFamily=Helvetica;fontSize=11;rounded=1;" parent="43" vertex="1">
                    <mxGeometry x="30" width="120" height="30" as="geometry">
                        <mxRectangle width="120" height="30" as="alternateBounds"/>
                    </mxGeometry>
                </mxCell>
                <mxCell id="46" style="shape=tableRow;horizontal=0;startSize=0;swimlaneHead=0;swimlaneBody=0;fillColor=none;collapsible=0;dropTarget=0;points=[[0,0.5],[1,0.5]];portConstraint=eastwest;top=0;left=0;right=0;bottom=0;fontFamily=Helvetica;fontSize=11;rounded=1;" parent="42" vertex="1">
                    <mxGeometry y="60" width="150" height="30" as="geometry"/>
                </mxCell>
                <mxCell id="47" style="shape=partialRectangle;connectable=0;fillColor=none;top=0;left=0;bottom=0;right=0;editable=1;overflow=hidden;fontFamily=Helvetica;fontSize=11;rounded=1;" parent="46" vertex="1">
                    <mxGeometry width="30" height="30" as="geometry">
                        <mxRectangle width="30" height="30" as="alternateBounds"/>
                    </mxGeometry>
                </mxCell>
                <mxCell id="48" value="amenity_description" style="shape=partialRectangle;connectable=0;fillColor=none;top=0;left=0;bottom=0;right=0;align=left;spacingLeft=6;overflow=hidden;fontFamily=Helvetica;fontSize=11;rounded=1;" parent="46" vertex="1">
                    <mxGeometry x="30" width="120" height="30" as="geometry">
                        <mxRectangle width="120" height="30" as="alternateBounds"/>
                    </mxGeometry>
                </mxCell>
                <mxCell id="52" value="Neighbourhood" style="shape=table;startSize=30;container=1;collapsible=1;childLayout=tableLayout;fixedRows=1;rowLines=0;fontStyle=1;align=center;resizeLast=1;fontFamily=Helvetica;fontSize=11;rounded=1;" parent="1" vertex="1">
                    <mxGeometry x="-900" y="-18" width="150" height="120" as="geometry"/>
                </mxCell>
                <mxCell id="53" style="shape=tableRow;horizontal=0;startSize=0;swimlaneHead=0;swimlaneBody=0;fillColor=none;collapsible=0;dropTarget=0;points=[[0,0.5],[1,0.5]];portConstraint=eastwest;top=0;left=0;right=0;bottom=1;fontFamily=Helvetica;fontSize=11;rounded=1;" parent="52" vertex="1">
                    <mxGeometry y="30" width="150" height="30" as="geometry"/>
                </mxCell>
                <mxCell id="54" value="PK" style="shape=partialRectangle;connectable=0;fillColor=none;top=0;left=0;bottom=0;right=0;fontStyle=1;overflow=hidden;fontFamily=Helvetica;fontSize=11;rounded=1;" parent="53" vertex="1">
                    <mxGeometry width="30" height="30" as="geometry">
                        <mxRectangle width="30" height="30" as="alternateBounds"/>
                    </mxGeometry>
                </mxCell>
                <mxCell id="55" value="neighbourhood_id" style="shape=partialRectangle;connectable=0;fillColor=none;top=0;left=0;bottom=0;right=0;align=left;spacingLeft=6;fontStyle=4;overflow=hidden;fontFamily=Helvetica;fontSize=11;rounded=1;" parent="53" vertex="1">
                    <mxGeometry x="30" width="120" height="30" as="geometry">
                        <mxRectangle width="120" height="30" as="alternateBounds"/>
                    </mxGeometry>
                </mxCell>
                <mxCell id="56" style="shape=tableRow;horizontal=0;startSize=0;swimlaneHead=0;swimlaneBody=0;fillColor=none;collapsible=0;dropTarget=0;points=[[0,0.5],[1,0.5]];portConstraint=eastwest;top=0;left=0;right=0;bottom=0;fontFamily=Helvetica;fontSize=11;rounded=1;" parent="52" vertex="1">
                    <mxGeometry y="60" width="150" height="30" as="geometry"/>
                </mxCell>
                <mxCell id="57" style="shape=partialRectangle;connectable=0;fillColor=none;top=0;left=0;bottom=0;right=0;editable=1;overflow=hidden;fontFamily=Helvetica;fontSize=11;rounded=1;" parent="56" vertex="1">
                    <mxGeometry width="30" height="30" as="geometry">
                        <mxRectangle width="30" height="30" as="alternateBounds"/>
                    </mxGeometry>
                </mxCell>
                <mxCell id="58" value="neighbourhood_name" style="shape=partialRectangle;connectable=0;fillColor=none;top=0;left=0;bottom=0;right=0;align=left;spacingLeft=6;overflow=hidden;fontFamily=Helvetica;fontSize=11;rounded=1;" parent="56" vertex="1">
                    <mxGeometry x="30" width="120" height="30" as="geometry">
                        <mxRectangle width="120" height="30" as="alternateBounds"/>
                    </mxGeometry>
                </mxCell>
                <mxCell id="59" style="shape=tableRow;horizontal=0;startSize=0;swimlaneHead=0;swimlaneBody=0;fillColor=none;collapsible=0;dropTarget=0;points=[[0,0.5],[1,0.5]];portConstraint=eastwest;top=0;left=0;right=0;bottom=0;fontFamily=Helvetica;fontSize=11;rounded=1;" parent="52" vertex="1">
                    <mxGeometry y="90" width="150" height="30" as="geometry"/>
                </mxCell>
                <mxCell id="60" style="shape=partialRectangle;connectable=0;fillColor=none;top=0;left=0;bottom=0;right=0;editable=1;overflow=hidden;fontFamily=Helvetica;fontSize=11;rounded=1;" parent="59" vertex="1">
                    <mxGeometry width="30" height="30" as="geometry">
                        <mxRectangle width="30" height="30" as="alternateBounds"/>
                    </mxGeometry>
                </mxCell>
                <mxCell id="61" value="neighbourhood_description" style="shape=partialRectangle;connectable=0;fillColor=none;top=0;left=0;bottom=0;right=0;align=left;spacingLeft=6;overflow=hidden;fontFamily=Helvetica;fontSize=11;rounded=1;" parent="59" vertex="1">
                    <mxGeometry x="30" width="120" height="30" as="geometry">
                        <mxRectangle width="120" height="30" as="alternateBounds"/>
                    </mxGeometry>
                </mxCell>
                <mxCell id="65" value="" style="edgeStyle=orthogonalEdgeStyle;fontSize=11;html=1;endArrow=ERmandOne;startArrow=ERmandOne;rounded=1;fontFamily=Helvetica;jumpStyle=arc;" parent="1" source="62" target="53" edge="1">
                    <mxGeometry width="100" height="100" relative="1" as="geometry">
                        <mxPoint x="-20" y="-453" as="sourcePoint"/>
                        <mxPoint x="25" y="-482" as="targetPoint"/>
                    </mxGeometry>
                </mxCell>
                <mxCell id="66" value="Property_Amenity" style="shape=table;startSize=30;container=1;collapsible=1;childLayout=tableLayout;fixedRows=1;rowLines=0;fontStyle=1;align=center;resizeLast=1;fontFamily=Helvetica;fontSize=11;rounded=1;" parent="1" vertex="1">
                    <mxGeometry x="-900" y="-460" width="150" height="90" as="geometry"/>
                </mxCell>
                <mxCell id="73" style="shape=tableRow;horizontal=0;startSize=0;swimlaneHead=0;swimlaneBody=0;fillColor=none;collapsible=0;dropTarget=0;points=[[0,0.5],[1,0.5]];portConstraint=eastwest;top=0;left=0;right=0;bottom=0;fontFamily=Helvetica;fontSize=11;rounded=1;" parent="66" vertex="1">
                    <mxGeometry y="30" width="150" height="30" as="geometry"/>
                </mxCell>
                <mxCell id="74" value="FK" style="shape=partialRectangle;connectable=0;fillColor=none;top=0;left=0;bottom=0;right=0;editable=1;overflow=hidden;fontFamily=Helvetica;fontSize=11;rounded=1;" parent="73" vertex="1">
                    <mxGeometry width="30" height="30" as="geometry">
                        <mxRectangle width="30" height="30" as="alternateBounds"/>
                    </mxGeometry>
                </mxCell>
                <mxCell id="75" value="property_id" style="shape=partialRectangle;connectable=0;fillColor=none;top=0;left=0;bottom=0;right=0;align=left;spacingLeft=6;overflow=hidden;fontFamily=Helvetica;fontSize=11;rounded=1;" parent="73" vertex="1">
                    <mxGeometry x="30" width="120" height="30" as="geometry">
                        <mxRectangle width="120" height="30" as="alternateBounds"/>
                    </mxGeometry>
                </mxCell>
                <mxCell id="70" style="shape=tableRow;horizontal=0;startSize=0;swimlaneHead=0;swimlaneBody=0;fillColor=none;collapsible=0;dropTarget=0;points=[[0,0.5],[1,0.5]];portConstraint=eastwest;top=0;left=0;right=0;bottom=0;fontFamily=Helvetica;fontSize=11;rounded=1;" parent="66" vertex="1">
                    <mxGeometry y="60" width="150" height="30" as="geometry"/>
                </mxCell>
                <mxCell id="71" value="FK" style="shape=partialRectangle;connectable=0;fillColor=none;top=0;left=0;bottom=0;right=0;editable=1;overflow=hidden;fontFamily=Helvetica;fontSize=11;rounded=1;" parent="70" vertex="1">
                    <mxGeometry width="30" height="30" as="geometry">
                        <mxRectangle width="30" height="30" as="alternateBounds"/>
                    </mxGeometry>
                </mxCell>
                <mxCell id="72" value="amenity_id" style="shape=partialRectangle;connectable=0;fillColor=none;top=0;left=0;bottom=0;right=0;align=left;spacingLeft=6;overflow=hidden;fontFamily=Helvetica;fontSize=11;rounded=1;" parent="70" vertex="1">
                    <mxGeometry x="30" width="120" height="30" as="geometry">
                        <mxRectangle width="120" height="30" as="alternateBounds"/>
                    </mxGeometry>
                </mxCell>
                <mxCell id="76" value="Property_Rule" style="shape=table;startSize=30;container=1;collapsible=1;childLayout=tableLayout;fixedRows=1;rowLines=0;fontStyle=1;align=center;resizeLast=1;fontFamily=Helvetica;fontSize=11;rounded=1;" parent="1" vertex="1">
                    <mxGeometry x="-900" y="-340" width="150" height="90" as="geometry"/>
                </mxCell>
                <mxCell id="77" style="shape=tableRow;horizontal=0;startSize=0;swimlaneHead=0;swimlaneBody=0;fillColor=none;collapsible=0;dropTarget=0;points=[[0,0.5],[1,0.5]];portConstraint=eastwest;top=0;left=0;right=0;bottom=0;fontFamily=Helvetica;fontSize=11;rounded=1;" parent="76" vertex="1">
                    <mxGeometry y="30" width="150" height="30" as="geometry"/>
                </mxCell>
                <mxCell id="78" value="FK" style="shape=partialRectangle;connectable=0;fillColor=none;top=0;left=0;bottom=0;right=0;editable=1;overflow=hidden;fontFamily=Helvetica;fontSize=11;rounded=1;" parent="77" vertex="1">
                    <mxGeometry width="30" height="30" as="geometry">
                        <mxRectangle width="30" height="30" as="alternateBounds"/>
                    </mxGeometry>
                </mxCell>
                <mxCell id="79" value="property_id" style="shape=partialRectangle;connectable=0;fillColor=none;top=0;left=0;bottom=0;right=0;align=left;spacingLeft=6;overflow=hidden;fontFamily=Helvetica;fontSize=11;rounded=1;" parent="77" vertex="1">
                    <mxGeometry x="30" width="120" height="30" as="geometry">
                        <mxRectangle width="120" height="30" as="alternateBounds"/>
                    </mxGeometry>
                </mxCell>
                <mxCell id="80" style="shape=tableRow;horizontal=0;startSize=0;swimlaneHead=0;swimlaneBody=0;fillColor=none;collapsible=0;dropTarget=0;points=[[0,0.5],[1,0.5]];portConstraint=eastwest;top=0;left=0;right=0;bottom=0;fontFamily=Helvetica;fontSize=11;rounded=1;" parent="76" vertex="1">
                    <mxGeometry y="60" width="150" height="30" as="geometry"/>
                </mxCell>
                <mxCell id="81" value="FK" style="shape=partialRectangle;connectable=0;fillColor=none;top=0;left=0;bottom=0;right=0;editable=1;overflow=hidden;fontFamily=Helvetica;fontSize=11;rounded=1;" parent="80" vertex="1">
                    <mxGeometry width="30" height="30" as="geometry">
                        <mxRectangle width="30" height="30" as="alternateBounds"/>
                    </mxGeometry>
                </mxCell>
                <mxCell id="82" value="rule_id" style="shape=partialRectangle;connectable=0;fillColor=none;top=0;left=0;bottom=0;right=0;align=left;spacingLeft=6;overflow=hidden;fontFamily=Helvetica;fontSize=11;rounded=1;" parent="80" vertex="1">
                    <mxGeometry x="30" width="120" height="30" as="geometry">
                        <mxRectangle width="120" height="30" as="alternateBounds"/>
                    </mxGeometry>
                </mxCell>
                <mxCell id="83" value="" style="edgeStyle=orthogonalEdgeStyle;fontSize=11;html=1;endArrow=ERoneToMany;startArrow=ERmandOne;rounded=1;fontFamily=Helvetica;jumpStyle=arc;exitX=0;exitY=0.5;exitDx=0;exitDy=0;endFill=0;" parent="1" source="nrEiqh1vNegxxQYrQlBO-219" target="73" edge="1">
                    <mxGeometry width="100" height="100" relative="1" as="geometry">
                        <mxPoint x="-820" y="165" as="sourcePoint"/>
                        <mxPoint x="-770" y="126" as="targetPoint"/>
                    </mxGeometry>
                </mxCell>
                <mxCell id="84" value="" style="edgeStyle=orthogonalEdgeStyle;fontSize=11;html=1;endArrow=ERoneToMany;startArrow=ERmandOne;rounded=1;fontFamily=Helvetica;jumpStyle=arc;endFill=0;" parent="1" source="nrEiqh1vNegxxQYrQlBO-219" target="77" edge="1">
                    <mxGeometry width="100" height="100" relative="1" as="geometry">
                        <mxPoint x="-564" y="-389" as="sourcePoint"/>
                        <mxPoint x="-950" y="-85" as="targetPoint"/>
                    </mxGeometry>
                </mxCell>
                <mxCell id="85" value="" style="edgeStyle=orthogonalEdgeStyle;fontSize=11;html=1;endArrow=ERoneToMany;startArrow=ERmandOne;rounded=1;fontFamily=Helvetica;jumpStyle=arc;endFill=0;" parent="1" source="43" target="70" edge="1">
                    <mxGeometry width="100" height="100" relative="1" as="geometry">
                        <mxPoint x="-674" y="-307" as="sourcePoint"/>
                        <mxPoint x="-1060" y="-3" as="targetPoint"/>
                    </mxGeometry>
                </mxCell>
                <mxCell id="86" value="" style="edgeStyle=orthogonalEdgeStyle;fontSize=11;html=1;endArrow=ERoneToMany;startArrow=ERmandOne;rounded=1;fontFamily=Helvetica;jumpStyle=arc;endFill=0;exitX=1;exitY=0.5;exitDx=0;exitDy=0;" parent="1" source="24" target="80" edge="1">
                    <mxGeometry width="100" height="100" relative="1" as="geometry">
                        <mxPoint x="-1120" y="-13" as="sourcePoint"/>
                        <mxPoint x="-1070" y="17" as="targetPoint"/>
                    </mxGeometry>
                </mxCell>
                <mxCell id="nrEiqh1vNegxxQYrQlBO-541" value="Message" style="shape=table;startSize=28;container=1;collapsible=1;childLayout=tableLayout;fixedRows=1;rowLines=0;fontStyle=1;align=center;resizeLast=1;fontFamily=Helvetica;fontSize=11;rounded=1;arcSize=13;" parent="1" vertex="1">
                    <mxGeometry x="-440" y="-629" width="160" height="270" as="geometry"/>
                </mxCell>
                <mxCell id="nrEiqh1vNegxxQYrQlBO-542" style="shape=tableRow;horizontal=0;startSize=0;swimlaneHead=0;swimlaneBody=0;fillColor=none;collapsible=0;dropTarget=0;points=[[0,0.5],[1,0.5]];portConstraint=eastwest;top=0;left=0;right=0;bottom=1;fontFamily=Helvetica;fontSize=11;rounded=1;" parent="nrEiqh1vNegxxQYrQlBO-541" vertex="1">
                    <mxGeometry y="28" width="160" height="30" as="geometry"/>
                </mxCell>
                <mxCell id="nrEiqh1vNegxxQYrQlBO-543" value="PK" style="shape=partialRectangle;connectable=0;fillColor=none;top=0;left=0;bottom=0;right=0;fontStyle=1;overflow=hidden;fontFamily=Helvetica;fontSize=11;rounded=1;" parent="nrEiqh1vNegxxQYrQlBO-542" vertex="1">
                    <mxGeometry width="30" height="30" as="geometry">
                        <mxRectangle width="30" height="30" as="alternateBounds"/>
                    </mxGeometry>
                </mxCell>
                <mxCell id="nrEiqh1vNegxxQYrQlBO-544" value="message_id" style="shape=partialRectangle;connectable=0;fillColor=none;top=0;left=0;bottom=0;right=0;align=left;spacingLeft=6;fontStyle=5;overflow=hidden;fontFamily=Helvetica;fontSize=11;rounded=1;" parent="nrEiqh1vNegxxQYrQlBO-542" vertex="1">
                    <mxGeometry x="30" width="130" height="30" as="geometry">
                        <mxRectangle width="130" height="30" as="alternateBounds"/>
                    </mxGeometry>
                </mxCell>
                <mxCell id="nrEiqh1vNegxxQYrQlBO-545" style="shape=tableRow;horizontal=0;startSize=0;swimlaneHead=0;swimlaneBody=0;fillColor=none;collapsible=0;dropTarget=0;points=[[0,0.5],[1,0.5]];portConstraint=eastwest;top=0;left=0;right=0;bottom=0;fontFamily=Helvetica;fontSize=11;rounded=1;" parent="nrEiqh1vNegxxQYrQlBO-541" vertex="1">
                    <mxGeometry y="58" width="160" height="30" as="geometry"/>
                </mxCell>
                <mxCell id="nrEiqh1vNegxxQYrQlBO-546" value="FK" style="shape=partialRectangle;connectable=0;fillColor=none;top=0;left=0;bottom=0;right=0;editable=1;overflow=hidden;fontFamily=Helvetica;fontSize=11;rounded=1;" parent="nrEiqh1vNegxxQYrQlBO-545" vertex="1">
                    <mxGeometry width="30" height="30" as="geometry">
                        <mxRectangle width="30" height="30" as="alternateBounds"/>
                    </mxGeometry>
                </mxCell>
                <mxCell id="nrEiqh1vNegxxQYrQlBO-547" value="message_sender" style="shape=partialRectangle;connectable=0;fillColor=none;top=0;left=0;bottom=0;right=0;align=left;spacingLeft=6;overflow=hidden;fontFamily=Helvetica;fontSize=11;rounded=1;" parent="nrEiqh1vNegxxQYrQlBO-545" vertex="1">
                    <mxGeometry x="30" width="130" height="30" as="geometry">
                        <mxRectangle width="130" height="30" as="alternateBounds"/>
                    </mxGeometry>
                </mxCell>
                <mxCell id="nrEiqh1vNegxxQYrQlBO-548" style="shape=tableRow;horizontal=0;startSize=0;swimlaneHead=0;swimlaneBody=0;fillColor=none;collapsible=0;dropTarget=0;points=[[0,0.5],[1,0.5]];portConstraint=eastwest;top=0;left=0;right=0;bottom=0;fontFamily=Helvetica;fontSize=11;rounded=1;" parent="nrEiqh1vNegxxQYrQlBO-541" vertex="1">
                    <mxGeometry y="88" width="160" height="30" as="geometry"/>
                </mxCell>
                <mxCell id="nrEiqh1vNegxxQYrQlBO-549" value="FK" style="shape=partialRectangle;connectable=0;fillColor=none;top=0;left=0;bottom=0;right=0;editable=1;overflow=hidden;fontFamily=Helvetica;fontSize=11;rounded=1;" parent="nrEiqh1vNegxxQYrQlBO-548" vertex="1">
                    <mxGeometry width="30" height="30" as="geometry">
                        <mxRectangle width="30" height="30" as="alternateBounds"/>
                    </mxGeometry>
                </mxCell>
                <mxCell id="nrEiqh1vNegxxQYrQlBO-550" value="message_reciever" style="shape=partialRectangle;connectable=0;fillColor=none;top=0;left=0;bottom=0;right=0;align=left;spacingLeft=6;overflow=hidden;fontFamily=Helvetica;fontSize=11;rounded=1;" parent="nrEiqh1vNegxxQYrQlBO-548" vertex="1">
                    <mxGeometry x="30" width="130" height="30" as="geometry">
                        <mxRectangle width="130" height="30" as="alternateBounds"/>
                    </mxGeometry>
                </mxCell>
                <mxCell id="CbRteJP2frnYpMNlqBMR-44" style="shape=tableRow;horizontal=0;startSize=0;swimlaneHead=0;swimlaneBody=0;fillColor=none;collapsible=0;dropTarget=0;points=[[0,0.5],[1,0.5]];portConstraint=eastwest;top=0;left=0;right=0;bottom=0;fontFamily=Helvetica;fontSize=11;rounded=1;" parent="nrEiqh1vNegxxQYrQlBO-541" vertex="1">
                    <mxGeometry y="118" width="160" height="30" as="geometry"/>
                </mxCell>
                <mxCell id="CbRteJP2frnYpMNlqBMR-45" value="FK" style="shape=partialRectangle;connectable=0;fillColor=none;top=0;left=0;bottom=0;right=0;editable=1;overflow=hidden;fontFamily=Helvetica;fontSize=11;rounded=1;" parent="CbRteJP2frnYpMNlqBMR-44" vertex="1">
                    <mxGeometry width="30" height="30" as="geometry">
                        <mxRectangle width="30" height="30" as="alternateBounds"/>
                    </mxGeometry>
                </mxCell>
                <mxCell id="CbRteJP2frnYpMNlqBMR-46" value="parent_message_id" style="shape=partialRectangle;connectable=0;fillColor=none;top=0;left=0;bottom=0;right=0;align=left;spacingLeft=6;overflow=hidden;fontFamily=Helvetica;fontSize=11;rounded=1;" parent="CbRteJP2frnYpMNlqBMR-44" vertex="1">
                    <mxGeometry x="30" width="130" height="30" as="geometry">
                        <mxRectangle width="130" height="30" as="alternateBounds"/>
                    </mxGeometry>
                </mxCell>
                <mxCell id="nrEiqh1vNegxxQYrQlBO-551" style="shape=tableRow;horizontal=0;startSize=0;swimlaneHead=0;swimlaneBody=0;fillColor=none;collapsible=0;dropTarget=0;points=[[0,0.5],[1,0.5]];portConstraint=eastwest;top=0;left=0;right=0;bottom=0;fontFamily=Helvetica;fontSize=11;rounded=1;" parent="nrEiqh1vNegxxQYrQlBO-541" vertex="1">
                    <mxGeometry y="148" width="160" height="30" as="geometry"/>
                </mxCell>
                <mxCell id="nrEiqh1vNegxxQYrQlBO-552" style="shape=partialRectangle;connectable=0;fillColor=none;top=0;left=0;bottom=0;right=0;editable=1;overflow=hidden;fontFamily=Helvetica;fontSize=11;rounded=1;" parent="nrEiqh1vNegxxQYrQlBO-551" vertex="1">
                    <mxGeometry width="30" height="30" as="geometry">
                        <mxRectangle width="30" height="30" as="alternateBounds"/>
                    </mxGeometry>
                </mxCell>
                <mxCell id="nrEiqh1vNegxxQYrQlBO-553" value="message_created_on" style="shape=partialRectangle;connectable=0;fillColor=none;top=0;left=0;bottom=0;right=0;align=left;spacingLeft=6;overflow=hidden;fontFamily=Helvetica;fontSize=11;rounded=1;" parent="nrEiqh1vNegxxQYrQlBO-551" vertex="1">
                    <mxGeometry x="30" width="130" height="30" as="geometry">
                        <mxRectangle width="130" height="30" as="alternateBounds"/>
                    </mxGeometry>
                </mxCell>
                <mxCell id="nrEiqh1vNegxxQYrQlBO-554" style="shape=tableRow;horizontal=0;startSize=0;swimlaneHead=0;swimlaneBody=0;fillColor=none;collapsible=0;dropTarget=0;points=[[0,0.5],[1,0.5]];portConstraint=eastwest;top=0;left=0;right=0;bottom=0;fontFamily=Helvetica;fontSize=11;rounded=1;" parent="nrEiqh1vNegxxQYrQlBO-541" vertex="1">
                    <mxGeometry y="178" width="160" height="30" as="geometry"/>
                </mxCell>
                <mxCell id="nrEiqh1vNegxxQYrQlBO-555" style="shape=partialRectangle;connectable=0;fillColor=none;top=0;left=0;bottom=0;right=0;editable=1;overflow=hidden;fontFamily=Helvetica;fontSize=11;rounded=1;" parent="nrEiqh1vNegxxQYrQlBO-554" vertex="1">
                    <mxGeometry width="30" height="30" as="geometry">
                        <mxRectangle width="30" height="30" as="alternateBounds"/>
                    </mxGeometry>
                </mxCell>
                <mxCell id="nrEiqh1vNegxxQYrQlBO-556" value="message_subject" style="shape=partialRectangle;connectable=0;fillColor=none;top=0;left=0;bottom=0;right=0;align=left;spacingLeft=6;overflow=hidden;fontFamily=Helvetica;fontSize=11;rounded=1;" parent="nrEiqh1vNegxxQYrQlBO-554" vertex="1">
                    <mxGeometry x="30" width="130" height="30" as="geometry">
                        <mxRectangle width="130" height="30" as="alternateBounds"/>
                    </mxGeometry>
                </mxCell>
                <mxCell id="nrEiqh1vNegxxQYrQlBO-557" style="shape=tableRow;horizontal=0;startSize=0;swimlaneHead=0;swimlaneBody=0;fillColor=none;collapsible=0;dropTarget=0;points=[[0,0.5],[1,0.5]];portConstraint=eastwest;top=0;left=0;right=0;bottom=0;fontFamily=Helvetica;fontSize=11;rounded=1;" parent="nrEiqh1vNegxxQYrQlBO-541" vertex="1">
                    <mxGeometry y="208" width="160" height="30" as="geometry"/>
                </mxCell>
                <mxCell id="nrEiqh1vNegxxQYrQlBO-558" style="shape=partialRectangle;connectable=0;fillColor=none;top=0;left=0;bottom=0;right=0;editable=1;overflow=hidden;fontFamily=Helvetica;fontSize=11;rounded=1;" parent="nrEiqh1vNegxxQYrQlBO-557" vertex="1">
                    <mxGeometry width="30" height="30" as="geometry">
                        <mxRectangle width="30" height="30" as="alternateBounds"/>
                    </mxGeometry>
                </mxCell>
                <mxCell id="nrEiqh1vNegxxQYrQlBO-559" value="message_body" style="shape=partialRectangle;connectable=0;fillColor=none;top=0;left=0;bottom=0;right=0;align=left;spacingLeft=6;overflow=hidden;fontFamily=Helvetica;fontSize=11;rounded=1;" parent="nrEiqh1vNegxxQYrQlBO-557" vertex="1">
                    <mxGeometry x="30" width="130" height="30" as="geometry">
                        <mxRectangle width="130" height="30" as="alternateBounds"/>
                    </mxGeometry>
                </mxCell>
                <mxCell id="17" style="shape=tableRow;horizontal=0;startSize=0;swimlaneHead=0;swimlaneBody=0;fillColor=none;collapsible=0;dropTarget=0;points=[[0,0.5],[1,0.5]];portConstraint=eastwest;top=0;left=0;right=0;bottom=0;fontFamily=Helvetica;fontSize=11;rounded=1;" parent="nrEiqh1vNegxxQYrQlBO-541" vertex="1">
                    <mxGeometry y="238" width="160" height="30" as="geometry"/>
                </mxCell>
                <mxCell id="18" value="FK" style="shape=partialRectangle;connectable=0;fillColor=none;top=0;left=0;bottom=0;right=0;editable=1;overflow=hidden;fontFamily=Helvetica;fontSize=11;rounded=1;" parent="17" vertex="1">
                    <mxGeometry width="30" height="30" as="geometry">
                        <mxRectangle width="30" height="30" as="alternateBounds"/>
                    </mxGeometry>
                </mxCell>
                <mxCell id="19" value="property_id" style="shape=partialRectangle;connectable=0;fillColor=none;top=0;left=0;bottom=0;right=0;align=left;spacingLeft=6;overflow=hidden;fontFamily=Helvetica;fontSize=11;rounded=1;" parent="17" vertex="1">
                    <mxGeometry x="30" width="130" height="30" as="geometry">
                        <mxRectangle width="130" height="30" as="alternateBounds"/>
                    </mxGeometry>
                </mxCell>
                <mxCell id="CbRteJP2frnYpMNlqBMR-47" value="sub_message" style="fontSize=11;html=1;endArrow=ERmandOne;startArrow=ERzeroToOne;startFill=0;dashed=1;edgeStyle=orthogonalEdgeStyle;" parent="nrEiqh1vNegxxQYrQlBO-541" source="CbRteJP2frnYpMNlqBMR-44" target="nrEiqh1vNegxxQYrQlBO-542" edge="1">
                    <mxGeometry x="0.5294" y="-15" width="100" height="100" relative="1" as="geometry">
                        <mxPoint x="-724" y="175.0666666666666" as="sourcePoint"/>
                        <mxPoint x="-724" y="25.066666666666606" as="targetPoint"/>
                        <Array as="points">
                            <mxPoint x="210" y="135"/>
                            <mxPoint x="210" y="45"/>
                        </Array>
                        <mxPoint as="offset"/>
                    </mxGeometry>
                </mxCell>
                <mxCell id="89" value="" style="edgeStyle=orthogonalEdgeStyle;fontSize=11;html=1;endArrow=none;startArrow=ERzeroToMany;rounded=1;fontFamily=Helvetica;jumpStyle=arc;startFill=0;" parent="1" source="nrEiqh1vNegxxQYrQlBO-203" target="nrEiqh1vNegxxQYrQlBO-238" edge="1">
                    <mxGeometry width="100" height="100" relative="1" as="geometry">
                        <mxPoint x="-524" y="284.99999999999955" as="sourcePoint"/>
                        <mxPoint x="-350.00000000000045" y="-309" as="targetPoint"/>
                        <Array as="points">
                            <mxPoint x="-480" y="179"/>
                            <mxPoint x="-480" y="-745"/>
                        </Array>
                    </mxGeometry>
                </mxCell>
                <mxCell id="nrEiqh1vNegxxQYrQlBO-411" value="Host" style="shape=table;startSize=30;container=1;collapsible=1;childLayout=tableLayout;fixedRows=1;rowLines=0;fontStyle=1;align=center;resizeLast=1;fontFamily=Helvetica;fontSize=11;rounded=1;" parent="1" vertex="1">
                    <mxGeometry x="-436" y="-330" width="150" height="90" as="geometry"/>
                </mxCell>
                <mxCell id="nrEiqh1vNegxxQYrQlBO-412" value="" style="shape=tableRow;horizontal=0;startSize=0;swimlaneHead=0;swimlaneBody=0;fillColor=none;collapsible=0;dropTarget=0;points=[[0,0.5],[1,0.5]];portConstraint=eastwest;top=0;left=0;right=0;bottom=1;fontFamily=Helvetica;fontSize=11;rounded=1;" parent="nrEiqh1vNegxxQYrQlBO-411" vertex="1">
                    <mxGeometry y="30" width="150" height="30" as="geometry"/>
                </mxCell>
                <mxCell id="nrEiqh1vNegxxQYrQlBO-413" value="PK" style="shape=partialRectangle;connectable=0;fillColor=none;top=0;left=0;bottom=0;right=0;fontStyle=1;overflow=hidden;fontFamily=Helvetica;fontSize=11;rounded=1;" parent="nrEiqh1vNegxxQYrQlBO-412" vertex="1">
                    <mxGeometry width="30" height="30" as="geometry">
                        <mxRectangle width="30" height="30" as="alternateBounds"/>
                    </mxGeometry>
                </mxCell>
                <mxCell id="nrEiqh1vNegxxQYrQlBO-414" value="host_id" style="shape=partialRectangle;connectable=0;fillColor=none;top=0;left=0;bottom=0;right=0;align=left;spacingLeft=6;fontStyle=5;overflow=hidden;fontFamily=Helvetica;fontSize=11;rounded=1;" parent="nrEiqh1vNegxxQYrQlBO-412" vertex="1">
                    <mxGeometry x="30" width="120" height="30" as="geometry">
                        <mxRectangle width="120" height="30" as="alternateBounds"/>
                    </mxGeometry>
                </mxCell>
                <mxCell id="nrEiqh1vNegxxQYrQlBO-415" value="" style="shape=tableRow;horizontal=0;startSize=0;swimlaneHead=0;swimlaneBody=0;fillColor=none;collapsible=0;dropTarget=0;points=[[0,0.5],[1,0.5]];portConstraint=eastwest;top=0;left=0;right=0;bottom=0;fontFamily=Helvetica;fontSize=11;rounded=1;" parent="nrEiqh1vNegxxQYrQlBO-411" vertex="1">
                    <mxGeometry y="60" width="150" height="30" as="geometry"/>
                </mxCell>
                <mxCell id="nrEiqh1vNegxxQYrQlBO-416" value="FK" style="shape=partialRectangle;connectable=0;fillColor=none;top=0;left=0;bottom=0;right=0;editable=1;overflow=hidden;fontFamily=Helvetica;fontSize=11;rounded=1;" parent="nrEiqh1vNegxxQYrQlBO-415" vertex="1">
                    <mxGeometry width="30" height="30" as="geometry">
                        <mxRectangle width="30" height="30" as="alternateBounds"/>
                    </mxGeometry>
                </mxCell>
                <mxCell id="nrEiqh1vNegxxQYrQlBO-417" value="user_id" style="shape=partialRectangle;connectable=0;fillColor=none;top=0;left=0;bottom=0;right=0;align=left;spacingLeft=6;overflow=hidden;fontFamily=Helvetica;fontSize=11;rounded=1;" parent="nrEiqh1vNegxxQYrQlBO-415" vertex="1">
                    <mxGeometry x="30" width="120" height="30" as="geometry">
                        <mxRectangle width="120" height="30" as="alternateBounds"/>
                    </mxGeometry>
                </mxCell>
            </root>
        </mxGraphModel>
    </diagram>
</mxfile>